<mxfile host="app.diagrams.net" agent="Mozilla/5.0 (Macintosh; Intel Mac OS X 10_15_7) AppleWebKit/537.36 (KHTML, like Gecko) Chrome/139.0.0.0 Safari/537.36" version="28.1.0">
  <diagram name="Page-1" id="kERKkxSswbXh509p4wRf">
    <mxGraphModel dx="1898" dy="1268" grid="0" gridSize="10" guides="1" tooltips="1" connect="1" arrows="1" fold="1" page="0" pageScale="1" pageWidth="850" pageHeight="1100" math="0" shadow="0">
      <root>
        <mxCell id="0" />
        <mxCell id="1" parent="0" />
        <mxCell id="OjBoxP9DTPbRT_fUNsws-79" value="、" style="rounded=1;whiteSpace=wrap;html=1;fillColor=#f5f5f5;fontColor=#333333;strokeColor=#666666;strokeWidth=2;" parent="1" vertex="1">
          <mxGeometry x="946" y="95" width="674" height="1044" as="geometry" />
        </mxCell>
        <mxCell id="OjBoxP9DTPbRT_fUNsws-77" value="" style="rounded=1;whiteSpace=wrap;html=1;fillColor=#f5f5f5;fontColor=#333333;strokeColor=#666666;strokeWidth=2;dashed=1;" parent="1" vertex="1">
          <mxGeometry x="1444" y="651" width="157" height="408.75" as="geometry" />
        </mxCell>
        <mxCell id="OjBoxP9DTPbRT_fUNsws-74" value="" style="rounded=1;whiteSpace=wrap;html=1;fillColor=#f5f5f5;fontColor=#333333;strokeColor=#666666;strokeWidth=2;dashed=1;" parent="1" vertex="1">
          <mxGeometry x="1304" y="653" width="121" height="405.75" as="geometry" />
        </mxCell>
        <mxCell id="OjBoxP9DTPbRT_fUNsws-73" value="" style="rounded=1;whiteSpace=wrap;html=1;fillColor=#f5f5f5;fontColor=#333333;strokeColor=#666666;strokeWidth=2;dashed=1;" parent="1" vertex="1">
          <mxGeometry x="1138" y="654" width="127" height="403.75" as="geometry" />
        </mxCell>
        <mxCell id="1lWh8q4CggjqC2O8VYAE-1" style="edgeStyle=orthogonalEdgeStyle;rounded=0;orthogonalLoop=1;jettySize=auto;html=1;exitX=0.5;exitY=1;exitDx=0;exitDy=0;entryX=0.5;entryY=1;entryDx=0;entryDy=0;strokeWidth=2;startArrow=classic;startFill=1;endArrow=none;endFill=0;dashed=1;" edge="1" parent="1" source="OjBoxP9DTPbRT_fUNsws-72" target="ami44mtzP3b5byjjy8G6-45">
          <mxGeometry relative="1" as="geometry">
            <Array as="points">
              <mxPoint x="1040" y="1094" />
              <mxPoint x="178" y="1094" />
            </Array>
          </mxGeometry>
        </mxCell>
        <mxCell id="OjBoxP9DTPbRT_fUNsws-72" value="" style="rounded=1;whiteSpace=wrap;html=1;fillColor=#f5f5f5;fontColor=#333333;strokeColor=#666666;strokeWidth=2;dashed=1;" parent="1" vertex="1">
          <mxGeometry x="978" y="655" width="125" height="405.75" as="geometry" />
        </mxCell>
        <mxCell id="1lWh8q4CggjqC2O8VYAE-5" style="edgeStyle=orthogonalEdgeStyle;rounded=0;orthogonalLoop=1;jettySize=auto;html=1;exitX=0.5;exitY=1;exitDx=0;exitDy=0;entryX=0.5;entryY=1;entryDx=0;entryDy=0;strokeWidth=2;dashed=1;" edge="1" parent="1" source="ami44mtzP3b5byjjy8G6-117" target="OjBoxP9DTPbRT_fUNsws-73">
          <mxGeometry relative="1" as="geometry">
            <Array as="points">
              <mxPoint x="650" y="1158" />
              <mxPoint x="1202" y="1158" />
            </Array>
          </mxGeometry>
        </mxCell>
        <mxCell id="ami44mtzP3b5byjjy8G6-117" value="" style="rounded=1;whiteSpace=wrap;html=1;fillColor=#f5f5f5;fontColor=#333333;strokeColor=#666666;strokeWidth=2;" parent="1" vertex="1">
          <mxGeometry x="481" y="247" width="339" height="740" as="geometry" />
        </mxCell>
        <mxCell id="ami44mtzP3b5byjjy8G6-81" value="" style="rounded=1;whiteSpace=wrap;html=1;fillColor=#ffe6cc;strokeColor=#d79b00;strokeWidth=2;" parent="1" vertex="1">
          <mxGeometry x="519" y="384" width="105" height="112" as="geometry" />
        </mxCell>
        <mxCell id="ami44mtzP3b5byjjy8G6-46" value="" style="rounded=1;whiteSpace=wrap;html=1;fillColor=#f5f5f5;fontColor=#333333;strokeColor=#666666;strokeWidth=2;" parent="1" vertex="1">
          <mxGeometry x="10" y="244" width="339" height="740" as="geometry" />
        </mxCell>
        <mxCell id="ami44mtzP3b5byjjy8G6-41" value="" style="rounded=1;whiteSpace=wrap;html=1;strokeColor=#007FFF;strokeWidth=2;" parent="1" vertex="1">
          <mxGeometry x="42" y="840" width="272" height="60" as="geometry" />
        </mxCell>
        <mxCell id="ami44mtzP3b5byjjy8G6-44" style="edgeStyle=orthogonalEdgeStyle;rounded=0;orthogonalLoop=1;jettySize=auto;html=1;exitX=0.5;exitY=1;exitDx=0;exitDy=0;entryX=0.5;entryY=0;entryDx=0;entryDy=0;strokeColor=#007FFF;strokeWidth=2;" parent="1" source="ami44mtzP3b5byjjy8G6-38" target="ami44mtzP3b5byjjy8G6-41" edge="1">
          <mxGeometry relative="1" as="geometry" />
        </mxCell>
        <mxCell id="ami44mtzP3b5byjjy8G6-38" value="" style="rounded=1;whiteSpace=wrap;html=1;strokeColor=#007FFF;strokeWidth=2;" parent="1" vertex="1">
          <mxGeometry x="42" y="689" width="272" height="60" as="geometry" />
        </mxCell>
        <mxCell id="ami44mtzP3b5byjjy8G6-30" value="" style="rounded=1;whiteSpace=wrap;html=1;strokeColor=#007FFF;strokeWidth=2;" parent="1" vertex="1">
          <mxGeometry x="211.75" y="400" width="97" height="70" as="geometry" />
        </mxCell>
        <mxCell id="ami44mtzP3b5byjjy8G6-24" value="" style="rounded=1;whiteSpace=wrap;html=1;strokeColor=#007FFF;strokeWidth=2;" parent="1" vertex="1">
          <mxGeometry x="211" y="278.25" width="101" height="67.75" as="geometry" />
        </mxCell>
        <mxCell id="ami44mtzP3b5byjjy8G6-43" style="edgeStyle=orthogonalEdgeStyle;rounded=0;orthogonalLoop=1;jettySize=auto;html=1;exitX=0.5;exitY=1;exitDx=0;exitDy=0;entryX=0.5;entryY=0;entryDx=0;entryDy=0;strokeColor=#007FFF;strokeWidth=2;" parent="1" source="ami44mtzP3b5byjjy8G6-19" target="ami44mtzP3b5byjjy8G6-38" edge="1">
          <mxGeometry relative="1" as="geometry" />
        </mxCell>
        <mxCell id="ami44mtzP3b5byjjy8G6-19" value="" style="rounded=1;whiteSpace=wrap;html=1;strokeColor=#007FFF;strokeWidth=2;" parent="1" vertex="1">
          <mxGeometry x="42" y="533" width="272" height="60" as="geometry" />
        </mxCell>
        <mxCell id="ami44mtzP3b5byjjy8G6-18" value="" style="rounded=1;whiteSpace=wrap;html=1;strokeColor=#007FFF;strokeWidth=2;" parent="1" vertex="1">
          <mxGeometry x="48" y="278" width="112" height="70" as="geometry" />
        </mxCell>
        <mxCell id="ami44mtzP3b5byjjy8G6-7" value="" style="shape=image;verticalLabelPosition=bottom;labelBackgroundColor=default;verticalAlign=top;aspect=fixed;imageAspect=0;image=data:image/png,iVBORw0KGgoAAAANSUhEUgAAAMgAAADICAYAAACtWK6eAAAAAXNSR0IArs4c6QAAAERlWElmTU0AKgAAAAgAAYdpAAQAAAABAAAAGgAAAAAAA6ABAAMAAAABAAEAAKACAAQAAAABAAAAyKADAAQAAAABAAAAyAAAAACbWz2VAAAPWElEQVR4Ae2dS5LcNhKGi20fpGc9bmvR47WrTyFHyAut5LlFt25haaNwhBVhncKlvbXRaPaeizSHWWgIIJtVjQRAPDL/WhQfBYDID/iZAAiwdjt8QAAEQAAEQAAEQAAEQAAEQAAEQAAEQAAEQAAEQAAEQAAEQAAEQAAEQAAEQAAEQAAEQAAEQAAEQAAEQAAEQAAEQAAEQAAEQAAEeiIw9JTZXvP608//3ru833/dH8fhR3d+/HrenBsO9rdhGD/afbO9OP72x++/Hrfz33CUkwAEkpPmQ1okiHEcb83hsuLnvuBwsAL64/e3d7lT154eBJJYA6x3KCeIpzIMwTxFiPM7BMKh5YV1XmJrD+FdNGJ3GHavKRq8SwS8KQoEwuTWizCWZkEoSyJhxxBIGKddr8JYM4/EAo+yRubxOQjkMZPZmZ9+fnU3jruHDvfsp+4PIJSnixACOcFIksc4YeLxNERyjg76IKt0jDju/1z9UehJCGW9YL9ZP633rGlSje8UEthfPbsevnz+dFBo+0mT0cR6QKOlSXWyJjz8AE8yJwSBTDzqNKncVJJ5kZw6Kvu8ZRgubjCVZbf79lRxaDm/rTiMCMxUkDzzpyi/pmzMnK6tRtjG8dgHU38DVQ/g+Ytfps54zrszTfUYXlMlLnkHpr4TXTOvYIbDh/dvbihdrR/VAsn3jKOOKE5V2nx2TcOcyh8qqhVInkpkhFHSU5wSxdr5XF5Fs0hUCiSHOHrqxOaxV+f0FHUCSa8s/bbLU23v6aaw5lFjzl3EROo5TkonlpoaPXdaaYIi2RBbfm7NS2wK/cVTJRC6g8YWkbl79r9iz4jk4iaOw7h3w8xxKfQWS5VAYr2HtKYFDSqQTTGVVZsXUSOQWO8hTRxWFPEi0eVF1AgkxnuY4U25bw4xIuH3STR5ERUCifEeWsb+zcpC/rwwLX0RFQKJ8R6alqSakTmeSLR4EfECifUetq2uZWvnj4Xbq6MvIl4g4QVuQw4HTd7DWm2my8CLWB52K14g3OaVfUuhBaRpy/ci8umIFkhMR1Kj97DVnO9Fci4TsLloaytaILude1F0CPaUaRgh6fcQhutBY25CPXCweRQuEGtm2Faz93CEzMpHd3x+T/polmiB8PofvA7q+WrT76/8Zla/tobkXKxAuK6f27QIgasjjOzhXrEC4fY/dFTmMCsxmuU4iRXI/N+bnMGn9tD/cGRMM8sdP73HGwx5Or12QogVSDuI5eeEezPqiQgEciwtdNAfV1owISaCBRL+EAsd9MfywBlDQLBAUMQpBHg3jfCbUUqeasSFQGpQ7+KavAeGXZgUkUmRAuE+A5lamocIdoiigIBIgSgot+ZM5N+UmjNhNUMQyCoWnAQBQ0CoQOQ+uELFLUtAqEDQpyhbjeReTahA5BYYLCtLAAIpyxtX64wABNJZgSG7ZQlAIGV5d3Q1DHRQYUEgHVVZZLU8AQjkyBx3y/JVr48rQiB9lBNyWYmASIHwV8RVoi/oslKZixQIt95JXhHHZYHwcwIQyJwHjh4I4KZhQAgWCJaMQu3pBAQLhANH7oo4DoV5WA4TuTcjCGReK3AEAjMCYgXCW1O920ld8DMr7cADLgsu68BsNBFMrECwjLaJ+tV9JgQLpPuyqWgAZhZY+BDIAwnpr/G3Bb7NVu4CNbECkfpkd5sKPk+V+wxEMmuxAjFFzhl+5AxrziuUvCOwsGUqXCDWzLAtd/QmLFXpoTg3of5YiBYI/ueCXyG5/ysveYiX6IkWCLd6oKPOJSY/vGiBSO48blU1+R30t3db5aWFdEULxADmtJFl/99eWIVDB93npEAgvrnYP0eA3//YvT6XnoTfxAuE21FHP0RCtc5ng3iB8FHpbWbx/ld+t9Pwx6fiBWI66px+CF9SEmJwm1cSbA6xQbxACAKaWSFVgRdmGOT3P4iICoHwip5C62tmcZtXfKZ9xlAhkLhmlp4p3zHNKw39D5K0CoGQofxm1u6W4mn4cL2HluYVlb0agcRU9Jg7a8x1asaJs1Hu+o9lWagRSEwzi3tnXcLt4Zg7tYRs0jSFR41AqGC5zSyKE3eHpZjtf4xtvKklmppXVIKqBBJz59PgRThS1tI5t0xUCYSMjrkDPn/xy58WmJQteQ+u+GPY9c5r6N2AmPw/f/Fq5MYbhoubGA/EvU6J8LRychzv2aL/8P6tuvqizoNQBYy5E8ZUqBKVPeYaMRMyY5jF5K21OOruCLYAYrzIJK3Dh/dvbmwaPW5jmlZkp0bvQXar9CBkOFX244b1RVNQXt2xojQUOFYcWr0HFZ1aD0LGx3kR00TrbTQntt9BnLR6D7JdsQehin4R1Vyi0Z+ePEmKODR7DxLIN/Sl9fPl819/f/f9v/aT/ZcRDPZXz66HL58/HSLiFouSKo7ePGVusKqbWBZmbFOL4tMdttVKlCIOsk1z04rsp4/qJpZBEN/UovitNrdSxaG9aWXrhuomloWQ2NSiZJpqbpnRqvGdtY+7bdkrcm1JDY8mlkfQTCnhTd7zoh93a1Yu4zXGW1oRucxX+HH/z3rCbX06JDyIx+i///n0W0Kn3aZUxZt4XuPSZiRmO/U7/hETT2oc9EEWJRszJX6RRPF+SewDwGW+0e9YElE+zPsYx25H/ZGrZz98nJopL9d+Z5wr4klyiqPV0TgG8+xB4UFWkNKs3diHiH5yMav1/Pil9mv2m0rZGHsd9EFOkDOe5JoGMfYngoScviRvRGmFBI4J88+ra/a0df86EIdP4/E+PMhjJl/PUJPDeJKYiY1fk9lsh0atUhI3a1xk/31BCh+KC4E8QZCaWzTFPb4D2+L7tYZjE1LKArAnijDp52+TYiuKTN5k6hAfR6j6NhvPOTjlBw/CoGWaXP2+k5a8YO8LvhjFlSUoBMLG2PNL03rOO7ugskSAQLJgRCJSCUAgUksWdmUhgE76CYxuCPV+ekXO8KMJNk779yditH+a3swyrX2ZMkqjWOM0W4A+FweMZhkSa98QyETFisG9DmcphHGNXcfnyL7d3hhwf2tEQ0dOOJh2YuioFIgRhPUMSzEYMH18537G4oQziWaaNm9WTBoWOj2NCoHMPYQvCGmeIb+s3etJjaexD0y1eBixAiFR2CbT1Pbe5686OlO0gpl7GLneRZRAnCh8L1G7Il8ctssBpX1/bAptd43zKRvByPUuNFu1648vihYN2fLNIMZ2/kuoS3AyTbH+PUu3AmldGFQJqZJs3VbPsY5+S8H03mfpqolFopiaFDREedvH84gtm1emWtMS4amvNXFp8+P3WUrcMHJT6MKD9OAtlgVj1lr8elie3+K45abWmr09CaV5gbTehHAVwCyqojt6rSfTtD6d8mPv2i5vbe71IJRmBZLrZQR5q4YVAU3TcM2nWoIIsc02SymsP2UmJG6pMC0LpTmBtNOcstMu+h+JOVXRrXiMcOr3Y1oUSlMCqec1rGcYXlNlatkjnKrsuc67ZhpN0CwvmtZE0oRAynsNJwjNYggRVS0vU3KQ4xyH6gIp5zWoyQQPca4yhPzmPMxu8yf4LXiTqgLZXhxGFPASIVWfH6aEWGqLpJpAthMHRMGv6ukxTHlu02+pKZIqAtlGHBBGejVPT8H1WfI2wWqJpLhAcoujFrj0qiQ/hfxlfXFTurlcVCBmtCrP7FMIox+B5RRK6dGtoi+vnl60/G4q1suUoiVhTFPIb1r/d9kUG6XFpbKa/pzoNf0r8GTbPtG+S/qjo8Q0gqMX8yDpdxG8MjO4VBsPmFoXSnqRYu/FSplAZ7zGm5vGyx3ZCySQ+gpXu5Q68HJJwYp4kPg7Bkamkkq3g8ixs7VLeZFiHoRfVqZJVXrUgp9PxEghYF6mbab+cNIp5UWKCITfvEJ/g1NZeg8bK5ISdhcRCNcQvKKfS6z/8HaeXLglZWYaby4Q82Q13GzqkIeHRkgpBExTmt/U2tr+zQWytQFIXw4B90LtMJu4N9+wVOehIJA5DxyBwIwABDLDgYOeCJQY4dxcIFwj3IsFeioq5DUHgRbLfnOB8MGVGZ3g5wsxtifQXtkXEghvdKJE52v7wsYVOARotgUnfKnRziIC4Y5OlHpKyikQhN2WAP9h8rb5sakXEYj/kjV74fPbcc+9o5xPD7+2TCCurN2L+7a0rchkRTJg+sOVkWtIqQlp3HwhfD4CsRNZt/xbCd+6Qh6ELsnrh1AM+ldW9EeIhMwPlW1M06pU/4OoFxMIf66NqRQQiWRxxC2/3vo/V3zixQSSMtfGiOTVnZ9x7PdLwHiOOHGU9B5EuOia9KtnP/xvaji9jCzaPa1pxlr0SHqNRDN9jpHeTRD1ofcRREWMjFRUIF8+//V34sL9/XffX99BKJGlXTEaeY2Hl3a8jM0GeY/SN8hio1g+lNhlln4atE/ASrZHl9fH8dMETHNqnN7jm/qUvM4iumJ9EB9lbIfdT4P2aQSEho/jxtGXqeE4JwESBt0Iqf+YLg66GZoXj+fMY0haVTwIZSylo3bKMNuBg1c5RWjb8/m8xTyfNZ+HVRMIIYh9SDTHt34EsaxzyX12K1HYfNZuRlcVCEHYUiQWMj2ktPPB4F0clZg9JwiKndqvOJ+D2uKg3FUXCGWijEjoSu5jPQzNE+OuWXGpyN0jIRjr6H/p6W8N6LOtIMw1zHfNZtUsH/5BzX13ZypXCI/tdZ7G/CZfPLWFsF4G9f5Ke5mfJjyIn6ka3sS//vl9M5/MNtdcWDeztLY3chXe5u5+b/dqeAJ77ZBtC02qZT6bEwhlsA1vskSVcsyfqBl2tZreNiyHYaHafcVskwKxUNv2JjaX2MYTaFcY1qamBWIzCaFYElK27QvDku5CIDazEIol0eu2H2FYwl0JxGaahEL7MYttbBrYliTQnzAsnS4FYjNPW+NVtvn7Yf862OcS6FcUvqXdC8Q3Bp7Fp1FjX4YofHKiBOIbZp4H2KfAUoZDfQtb2CdBjB8lz0YQK5Bl9bGCofPmgRlEs2R0/tg+JDXTzms/ED2f13y/qhHIGrLHoqFQ2oVjhWA8AxHRIgaydflRLZAlDP/YFw+db32ahp/38/vuqb5tHlF4zSI4xwsCOUfnid+MiGwgN+fJnqGtE5Z/dm1/6blcRV4L7Z87NzeMwqHy+7SwDwIgAAIgAAIgAAIgAAIgAAIgAAIgAAIgAAIgAAIgAAIgAAIgAAIgAAIgAAIgAAIgAAIgAAIgAAIgAAIgAAIgAAIgAAIgAAIgIJnA/wGpCwtRgxuI8wAAAABJRU5ErkJggg==;" parent="1" vertex="1">
          <mxGeometry x="63" y="283.24" width="37.26" height="37.26" as="geometry" />
        </mxCell>
        <mxCell id="ami44mtzP3b5byjjy8G6-8" value="" style="shape=image;verticalLabelPosition=bottom;labelBackgroundColor=default;verticalAlign=top;aspect=fixed;imageAspect=0;image=data:image/png,iVBORw0KGgoAAAANSUhEUgAAAMwAAADICAYAAACksw7kAAAAAXNSR0IArs4c6QAAAERlWElmTU0AKgAAAAgAAYdpAAQAAAABAAAAGgAAAAAAA6ABAAMAAAABAAEAAKACAAQAAAABAAAAzKADAAQAAAABAAAAyAAAAADoUxpaAAAN9UlEQVR4Ae2dTXobNxKG2crcIMkqs8jK0gkc70yfTNJR5iRWdrFPIGk1i8nOuQJ7UFC3TFI0GwUUwAbw8nlsimyggHqBr/Hb4LDJ8Lq5+bD1Zne7l/cMaWCycgJXVw+Pj3891ObFYJFhEcg4jrfe1jhuLWxioxMCw/AwjOOf4u3j89e7tXudLJibd+/vxs3mRSxr95b8rZqAq4z3axdNtGBeWxValFVXwhozt2bhRAvm+t1717DwgkAeAsPV1ac1jnGuYtyVblhMPOJAIJTA65g4NEKhcD9p02HMoiVG+EgCv//682/Dt3/+foiMnyWauoVhgJ+lHDB6gsAa65pKMK/rKyec4ysI5CCwtjqnEsyGhcgcdQKb5wisrM7pBHPOMa5BIAOBcRg+ZjAbbfJfmpiqPqVbwdXYJmxnBCpdv1MJRlOkwzDcr3EeXeMDYfMQmBa9t0HWVyYsumRBpUYgCLwQQDDUBAgoCCAYBSyCQgDBUAcgoCCAYBSwCAoBBEMdgICCAIJRwCIoBBAMdQACCgIIRgGLoBBAMNQBCCgIIBgFLIJCAMFQByCgIIBgFLAICgEEQx2AgIIAglHAIigEEAx1AAIKAghGAYugEEAw1AEIKAggGAUsgkIAwVAHIKAggGAUsAgKgWynxuREy2HoOel+t73232r5ntNyf1UpGNX5aOVYtpjSXYtOpfhElyyFHnG7I4BguityHE4hgGBS6BG3OwIIprsix+EUAggmhR5xuyOAYLorchxOIYBgUugRtzsCCKa7IsfhFAIIJoUecbsjgGC6K3IcTiFQ5daYp+evQ4rTxIVALAFamFhyxOuSAILpsthxOpYAgoklR7wuCSCYLosdp2MJIJhYcsTrkgCC6bLYcTqWAIKJJUe8LgkgmC6LHadjCSCYWHLE65IAgumy2HE6lkB1W2PkiKVxGD7GOky8MALDOP7JMUtvWVUnGO/COG7fusI3lgTcTcnSXDO26JI1U5Q4UoIAgilBmTSaIYBgmilKHClBAMGUoEwazRBAMM0UJY6UIIBgSlAmjWYIIJhmihJHShBAMCUok0YzBBBMM0WJIyUI1LfSf3X1MOx2Jdj0ncYwPPQN4LT31Qnm8fEvKUj5xwsCxQnQJSuOnARrJoBgai498l6cAIIpjpwEayaAYGouPfJenACCKY6cBGsmgGBqLj3yXpwAgimOnARrJoBgai498l6cAIIpjpwEayZQ3Ur/zc2Hba3Ap10KRbMvvC6RblEnCyZWnWA2u9123GxuCzJKT8rtyxqG4T7d0FsL/gbimMiVg+OnppN1Rrfv7vrd+5eI0/4wOULp5YuX/zlOaZ/G+b/rE8x5f9Z31VXSp6cvnywzJiIZx/F240Qhgnh9je5Wcu41i2iz2e4Hc4K6dYcqeUEjnn0yb/9GMG+ZmH0jlfDx6ctdqsG5G3pSJKnGp/hzqy3i2UiLKK2Q2xlOd+4QMII55GHzaeqCpVa2uSVxrcjWJmOBVqTlklZot7t1J43eI5zv3BDMdxY2fxl0wS4mlBMEfMszCYfu2mbDtPKJShL7lXTBUscr/uzo3e6zjE9i85EjngjHdddGyV8O+7XYRDBWJeValpQ7sFREqZDzWMIqW9Z2ehcOgjGqUSkti29VKpsqF+H02NogGAPBDFdXn2LNXF//8XntrcqPfPOtjcv/j663+D2CSSxVP3X8cs6AypIM7EUsaxurqJyQwG6s5cc2Fe/A0PiMYDS0jsJ6sTx/vTv6evGj74KtcGC/mPEzAdzU9+ceumjVTStPA+u7M2W36kvZxitu0kEcf9324hYd5fPBa289x2+jMZ6Jm8Y1m5TJj4P8rvBDdYJZIcPgLJmLZVoglQwELpI+HGd2bhWsxlGtiwbBHNegTJ/9YqRbAEw2P4kkUCCLye21BndWgvaiufnQ5LYaxjCLVcomgPTxUy3NC6NWYjnOj4jn6fmr/Lrl/fE17WcLf7VplgiPYApQnrs9sUl5obiKvNcaxJoKimclHD8LGJRiPYEQTOaySu3myBpPKaEco5B0/RrTNKFwfH3xs5tUSL1ZLKZROACCyQg8SSyukkr3KFf3K9RtSV92McR206bxzDY0vbWHQzAZS0gqS4x53wUzfugsJh/7cXxrEzm2aWk8g2D2a4Xh37FdERHLpbpgS+6niCaWx1KeSl9HMJmIx7QuaxbLjClWNDE85jTX9I5gMpRG1N3UjVnW2rIcI/L5jJgIiOJynPiFP7ubWvhLNtmFhvazOxGbEkPsXwK8pjJrOM3+ygB//ruW95jNoznrRQlu1a30m62YK+hKVyk0uIg5+K4yGfVTt6EJrCicHB3lDubYarLkD/Ko+Bfk6JJpSjsgrLavLmK89NRxgFsng0i+NTcTb0QpsJMJX/BLBBMC/9TO3xPxYrqKmq7eiSQv/lVM/qWXcPGMR2YAwQSAy9UCqO/OAXm9RBCtH1O37BJZTU4TwSwhVMwGabtjMXfnpexe4rraj4q7ZQhmoYa9PpC1EE7bzdDelReSv/hl7cSFltfFHZwygGCsSmLvacYgk4HjoiBbFQaqtVuGYIwqm7o7lmmNysgdtRk/zlN0X2s9/APBqKvG2wja7kVr3bGZSGj3dQ6v5TbHu+Q7glmi33nXaQnPwfUOWFW30u8LSNP0H5Ropg/K8Yt6VilTtq3NSrfMbZd5CO5uvXB7sM5HTnvVCWZaE6kK8kEBrk3sB5njwxIBumRLhLiejcDBTwxmS8XWMIKx5bloTTswXjS4sgCt+4dgDCpcjXdKA7e7NIFguiz2jE5rZsoq3CKDYCzqjqbgNRXKIm/YMCWAYCxwama+lFPQFtkraqNx/xBM0dpEYgcENDeag4iX+4BgCrNngqAwcOPkEIwB0NanUjWINDeEGrkhGE1tIGz3BBCMRRXQzHxpZtQs8lbaRuP+IZjSFcqlV+O29hBMMYeAhNhdUxgEY1Aa2kMyan3a0ADVgYkad20jmIMiTPigmSJttNuieupUwyuhWKyjIhgjonIKpMZUa90yrT81zpBJ+SIYTS03DNtct0y7wq+ZKDHknmoKwaQSnOLHHAKhvSsbZTWLGVV3zOVAO+7LkukIowgmAppVlFZaGe3sWM2HgCAYq9rv7GjHMfLse+2tzPRrBbeGGFdtCsEYFo+6W+bSbqWV0WCscTp59g/BzCSM3qNaGfebMkbJFzUT07rU3B0TuAjGuIpFtTLu15a14wDjbKvNxYhFEqm5dZH8IxihYPxStzIufZllqmU8I/nUzooJ4tpbF/EBwQgF41dMKyNZqGU8E5vP2lsXKSMEIxQyvGJaGZk18z+0miE/ViZjfghW0m6hdRE/EIxQyPCKbWW8aNyvVa+teyb5SRFLC62LVBMEk0Ess8moVmaKPO52n9cyEeDHLC4/IubZN817K2IRnxGMpuSVYaWV0f4y134SfiLgwlPOfjZMxBL5aqUrNruPYGYSmd69aNxPi8eaF9FcSxetsHDmLljMbNjsq4ilpdZF/EIwc+lmfJdKk3qn9cK5/iN7N+1VKAldMI/SPe/SmljEr+p+7iJjvc5qWiqPGzR/jB0H+My5MYQTzta1Nv6jZYX045RxvHVjp21WEJUbdze+8Jd0DUJDS9/dzxSFRugknIZhEBJ3J/cPY7nnSzS8RSBi36+pRA7mF/Pn8vb09OXTYriKAiCYwoXl7+QJg+ig7E6P/+4/1XhwXlgugZzKXGOiQTCnCrnAd7FrGgWyZp9EQ6Jh0G9fPYIsSlfF3a3ugwLXHsi1aP4GUbsfLv8I5oKFaDF7dsHs65JuRDQIRlfs5qERjTnSrAYRTFa8YcZFNE/PX4dqumjTpEKYd0ehpKVZ4V65o1z+8COC+SGa8hdWLxwnFFku8OMv955CyO+Vm6a2U+yUjotgShMPSG/upq2mxdkTyrzW47f8dCgaVybhL82iGwuX4VzPhfSbH4chbYfAuQTOXROhuBM9Z5GcCmqxrlRTXUEwp2rBSr+bN2CmbIhcdG0anywJ5dhO6rpSLaJBMMclX8lnM/HsCURcP9eaLKHpQTQIZqkWVHJ93hu22ds8ebAdxvmxv1VmM51tnCKQU2haFw2COVXqfJdEoGXRMEuWVDWIfIqA36E8dfVOXV/6bs1TzghmqfS4HkWgVdEgmKjqQKQQAi2KBsGElDxhogm0JhoEE10ViBhKoCXRIJjQUidcEoFWRINgkqoBkTUEWhANgtGUOGGTCdQuGgSTXAUwoCVQs2jyrfTL8+qV/rS0tgJYh7fermKdPyt7Ne4I0AnGnbyYdBCdFenG7dSyc9eiGGoTDV0yi1LHRjSB5O6ZO60zOvGIiCrBpPx8Q0TeiNIJgSTRuDMC5kcdSuBSCaZEhkijTwIpojl+jCEnQZVg/GA0YRdqTkewXT+BaNG4VqaU9yrBSKbolpUqmj7TiRJNwZu4WjDSyriptfs+ixOvSxAQ0Wjq2MGTpJkz+FOM/W///P3wyy//3rq4v8fEJ855Aq4V/8+3b//77/lQbV+VOvbrz7853Wy2S566QxA/LYWxuq5uYeaEtXeBOR7vEAglMJ/Pdi68piU6Zyf0WrRgJAHvkBzmVrAPGeoY4dog8EPRuDrnF3jdMbslPZUmz+TlTy2ZTizJem6WSW7XbaSnlX5tSUg962XrkJYN4SEAAQhAAAIQgAAEIAABCEAAAhCAAAQgAAEIQAACEIAABCAAAQhAAAIQgAAEIAABCEAAAhCAAAQgAAEIQAACEIAABCAAAQhAAAIQgAAEIACB1RH4P20owQ5Q/aRSAAAAAElFTkSuQmCC;" parent="1" vertex="1">
          <mxGeometry x="137" y="545.06" width="40.81" height="40" as="geometry" />
        </mxCell>
        <mxCell id="ami44mtzP3b5byjjy8G6-9" value="" style="shape=image;verticalLabelPosition=bottom;labelBackgroundColor=default;verticalAlign=top;imageAspect=0;image=data:image/png,iVBORw0KGgoAAAANSUhEUgAAAMgAAADICAYAAACtWK6eAAAAAXNSR0IArs4c6QAAAERlWElmTU0AKgAAAAgAAYdpAAQAAAABAAAAGgAAAAAAA6ABAAMAAAABAAEAAKACAAQAAAABAAAAyKADAAQAAAABAAAAyAAAAACbWz2VAAAKU0lEQVR4Ae2djXEcNw+G5S8pJJ2YLiWVCK4kXydHdZJOFCCjnZEvJx65y1/wwQx9t0sSBB7wPd5KHvvlBYMABCAAAQhAAAIQgAAEIAABCEAAAhCAwOwEvs0eoMYXPpqF+t3+wJYm8HYXvdxdc5lBIOiYm7Z32hYMROtsDXtCQLQfUezNwPYAdkcg6DUnxt7CuP9glLs9MuTytyGr/rqo6OVf2v7QhkHgIBD0jT0jR23DbLRARDN/HZY9C89OIGiAw0UyCpLowvfHKtcwebQHbqM26agTxMTxOipp1l2OwB8a8ZCTZIRARJNFHAoBKyIQdHR3kdiCvc2OUAwCZwl03bP/OxvlyXlych7TIHAQkONNj9euatSEOD16VNX/Gt327e8dWUqltWIlP7gZQyBUWPamPn5U8DOVCzs9zjbRuUEb5oeAaCpn94MJxJ2dgWEggjsSJHQQsNpajc/sDZvrxkQzOQPBDQAS+ZJA0J4ze8PmNbfeP8UqSehnyWDGLksgauRnav26bMYPAr/pvdJPiQduuOWYQOn+sD3V3GY9QWLzzFlgNgJT1ryXQEJhNd4KxzN8PwKhR8q9BNIjF9ZYm8CUH4oIZO1NRfSNCSCQxoBxvzYBBLJ2/Yi+MQEE0hgw7tcmgEDWrh/RNyaAQBoDxv3aBBDI2vUj+sYEEEhjwLhfmwACWbt+RN+YAAJpDBj3axNAIGvXj+gbE0AgjQHjfm0CCGTt+hF9YwIIpDFg3K9NAIGsXT+ib0wAgTQGjPu1CSCQtetH9I0JIJDGgHG/NgEEsnb9iL4xAQTSGDDu1yaAQNauH9E3JoBAGgPG/doEEMja9SP6xgR6/v8gjVP5xX3Qq9ePO/Yea0vg+Ld1pe0y/b17FIgV6RBHf6J7rviZt/F3Y96+YolW5nOx3BRqkUSMvSwSa1aYngRihUEcWWVvOshqEJqu0NG5J4F0xMZSTwi4+aDyJBA3RXmy+ejuSMCTQDpiY6knBMKT/mW6PQkkLkPdf6BuauFJIFP+/xL+tfAwQze18CQQ0VLFh+XiZm8C0nvBVut5EogxOn6j24oXfp8TcFUDbwKJWr9v2lwV6fmenGJE1Ch+aBNtbszjXzWx4oi2qC1ow9oSiB/uj9e2q3X27lUghjF+NHuPQeAUAW9fsU5BYBIEviKAQL4iw30IKAEEwjaAQIIAAknAoQsCCIQ9AIEEAQSSgEMXBBAIewACCQIIJAGHLgggEPYABBIEEEgCDl0QQCDsAQgkCCCQBBy6IIBA2AMQSBBAIAk4dEEAgbAHIJAggEAScOiCAAJhD0AgQQCBJODQBQEEwh6AQIIAAknAoQsCCIQ9AIEEAQSSgEMXBBAIewACCQIIJAGHLgggEPYABBIEEEgCDl0QQCDsAQgkCCCQBBy6IIBA2AMQSBDw/K+7W9ohkTtddQjEOm7m9OJVIKK4+W+h++45+0+LjLsr8/gV66YVQhz9t6kxN/ah/9LtVvR2goiiCu1w4fkJgYN9fDJumW5PJ4godU6O8VsvaAjWXJgngXx3UREfSbj5oPIkkOBjb7nIwk0tPAnExc4iibkIeBJInAvt1tG4qYUngdjP4bE5CLzNEcb1KDwJJCoOa9hYAq5+YehJILYtrDjR3mBDCERdVYas3GhRbwKJyumHNhMK1peAMTf2rszbb9KP4oi+sWYW/v2TP1oSiC2dj/TtVSCfmbot3ucked+GgLevWG0o4XVbAghk29KTeA4BBJJDiTHbEkAg25aexHMIIJAcSozZlgAC2bb0JJ5DAIHkUGLMtgQQyLalJ/EcAggkhxJjtiWAQLYtPYnnEEAgOZQYsy0BBLJt6Uk8hwACyaHEmG0JIJBtS0/iOQQQSA4lxmxLAIFsW3oSzyGAQHIoMWZbAghk29KTeA4BBJJDiTHbEkAg25aexHMIIJAcSozZlgAC2bb0JJ5DAIHkUGLMtgQQyLalJ/EcAggkhxJjtiWAQLYtPYnnEEAgOZQYsy0BBLJt6Uk8hwACyaHEmG0JeP7X3cNHVY9XD0WOmoQ1zBmBd82npMmF/IPOvWkrWW+1saL5eTPRhErr0JyBtxPEIL82pzZ+gSNHyxdrSMDbM8ixcRoim8a15SrTROM0EE8C2XGz7PSBMESCngTyfQjB8YuG8SH4jcDTM8iuG8Xyjtp6W+i94Ij1PAkkKsAwAuIGax5c7Svd8X6DtF9ePAlki4I9SDI+uFfrVlBH24miFrwSP+86uKRJifOPsUFfS9bwMFY+cq/9EtThTdvsjGrnPcxfKWg5GanNK11r5fEnMSWnrcQwmchKnaWb0Ip01kQnlq632vib5hi01TZRhyuxqJ3/f/x5fAaxIh/2erxx8ho1jzdtoq22iTr0xqs2o2b+Sj+VrFhYPwKiS5XWaIbxzQl5+kVhc1hOFxDNi5Pji+IikC/AbHQbcSSKjUAScDbokg1yvJQiArmEb/nJnB5PSohAngBy3C2Oc6uWmscf81aD49zRldMjKhv7cbO9njVbP5ydrPPihbnZUxFINipXA8OFbH7o3Hhhvk0VbUHbFTOBNjcE0hzxlAuEk1F9Oznv8zTRiyun12dfbt6/ayYlTdxkPmcit8J6WO2kQipn1n20b8yPK3uUZOqeuMp+vmRsg6X4P+q7kkU4sd6jGI575s+VHYnlvoqr7OdLJrcOx7gr9bC5h58ar0H9dTN+zNsN9ZYLiWb9WinzqH5q/ICgKBwe0otwMbiAgOjY2uIoWL7OUE6QOhzx8iuBm17WEsdP9WUnxxBDIEOwu100aGbv2uy1hpk4pIajsz74inWWHPPuCYjeqHVqmO/uzxu26L1xgtwT4foMAdFJtcQR1dcU4tA4XjhBjAJ2hYDo5NriuBJP1bmcIFVxbufsphnXEoc9b9jJMZUhkKnKsUwwQSN912avNczEITUc1fbBV6zaRP37E02x1qlhtKZ53rBg7o0T5J4I1ykCop21xBHV19Ti0Ph4SDcIWBYB0VG1xZG18A6D7PtqSbvtAGVgjiW1qD1WBuY97dK24UtA23isHYGSWtQcK+1SWtuzbfhS0GtnPHf0pbWoMT7MjeRxdDM/pMvjkLm7GIGo8U7/MD6aadAAznwK2TysPoEztTgz51Y/dJ8eg6Z1FrDNxeoSOFOL0jlSN2T/3uzTpBTyMR7YdffHwbXVq5t6favLPentpr0hOSKvM+YNY1SCQEj0Xe3ieeMCwVafWPg9fzrXYlfrA/DC9qo/9bf6LpMe7cQKyRF0rkggatB2cvytDbtIoNYnFn7GnxpWA7m4H6ae3vsEMRicIlNviaLgfupoKZqx2OARAonKCJEstlEehGtfqf7/4D63KhGwhzq+Jq3HwOoWKu0B3DwhINqPSNZhYOLYykZ8xfoMOOoFX7c+E5n3vT1v/DlveL4jE02Pk2ReBlYfbAICojEglLkYhAn2BSHcERC9toZYxjGw542gbWuz7/+zm9wF+P3umss6BN4+uYn63hoGAQhAAAIQgAAEIAABCEAAAhCAAAQgAAEITE/gHwzzU/wMweI0AAAAAElFTkSuQmCC;aspect=fixed;" parent="1" vertex="1">
          <mxGeometry x="217" y="287.5" width="31.5" height="31.5" as="geometry" />
        </mxCell>
        <mxCell id="ami44mtzP3b5byjjy8G6-10" value="" style="shape=image;verticalLabelPosition=bottom;labelBackgroundColor=default;verticalAlign=top;aspect=fixed;imageAspect=0;image=data:image/png,iVBORw0KGgoAAAANSUhEUgAAAMgAAADICAYAAACtWK6eAAAAAXNSR0IArs4c6QAAAERlWElmTU0AKgAAAAgAAYdpAAQAAAABAAAAGgAAAAAAA6ABAAMAAAABAAEAAKACAAQAAAABAAAAyKADAAQAAAABAAAAyAAAAACbWz2VAAARbElEQVR4Ae2dC3bkKBJF23VqXxm1soxaWeKV5bznElNYJSGBECAUcU4kiE98LoSV9kx3//efiREwAkbACBgBI2AEjIARMAJGwAgYASNgBIyAETACRsAIGAEjYASMgBEwAkbACBgBI2AEjIARMAJGwAgcJfBx1IDtXyUgqzPxCRefttmaBKxA9tOWYCn7j+CZXZk9l3p0gaHPoO/HfRtMWbcUASuQ7yRlemTrC8CPTVPdNm6KzBcRn/3YNGVNKoE7F4hMsJ5T65+nx2Eah0ysaDKP804FImBE5ZuB7Z3FIXlfNHpnEFu5j1wgMiXPN4TvT0PWzAg4PLNg2FJNJgKjFYggr9G/MtW4vL8nJ1rDWc8+RigQAWArivNumRXLeWxPsyywTH1B36bVGChYC9SkUwKCuKwo2v9Q4Bko1KQTAoI4rDDaF8bS21o7uSO3DEOQtRVGn4UxLxa95Q1tlLTArxXGNQpj6ELp7a9YLIwnlO0VxAVBfgb9cDwY3t2V2crH9Dwfny3r6pF//dKuIsoIpqcCIUwWR0/ipmB4+X2fQ2Gfzy1E4JTqhUUk/qGTdogiac2Sh/qCvhsrY6DKpGguK4LIddLWXOmfsZhkEFDsaXGALASqTIpmeFFkSGXerZgLfJvsJFD7oO5WEFvHoFhArV0s9GkSISCYq3Uovigi4dgUCAhUoeRV42zoy2SBgGLs7AOwolgAnzhU45zowyQgoOifVRxWFAHogl2eGfWsc6NtExBQ6BmQrTDqXa+zzpB2by2K7EsXB22atCGgcGvnWZB9SZg8HJM+CCjCsLM9eBavQhBpRw7GYtvPIaAwW6pQ5JwQ+7SqCKsEOOkzPYtqRkDxfPS8+YPwFqLI0mDd4qi/JVni3GljeFFkeKRAuN/kmgQEYR85e+6ljWFFkdkRQDIsmXsl9jpwD7h3WDkCRoalcs/E7C7Mzp0X/J2p3GsyHoHcIuG+5vKjcASSaY//YI3L3Gvb+ibAszWZCOT8tFCjNzwBnnHONwsZjUwOhNEYWD7LBHJ+eMqyqWuOMpnUAtFrpmpRZxAQ7Em9HyyqplLydxBpmok5752A6z3ApfhKFsiS/a0x3Vpg80MRcFfLpnWBXI2XxVuXgNR196+3kgXy+Nd8dMRFZ21yRAL894tdSkoWSGrikrrB1huBKxPgXxxS/0ohV07YYk8mkHo/uL6ptHyDMPFn0+zNeU0CWtNZKV+tC0RKJWJ2jEDvBF4IMOcVqr0nZvEdJsAzzrkb3DOM5BYIIcgwFCyRJQK5xdG8QFp/xfIwWVziH6wdioAOlc2BZHjJj/yk4F454N+29kdAEdLRO9FfVpkRlSgQK5JM+B1uU8R0tDi4fxgpVSCEosNQuV8igpRL3oVhCJaEYkVyzWvB4uDZldRrkliIunSBEDJtyoIvG+qPgCKkkoXhbfWXaWZEvMw+qdKtZsZk284nIHBR+rxDe+dnUMnD62RQhKaVcjE32wQES2qc+XYkF1lRAxaLxAql7YUQuK951m2zLei9JjQrlIIHt9OUYF2LM94ZXv/LWsALC4UHaFKWgMActeXZwv0Y0hKiLxS2OgbOplkIvPdynk1BlHTeC1BfLIxHSyY4uC1Bfr2dIc9yGOkRLgFTGZtCBWryh4CgofZ8bjy7YSQVtL+0hFBbvW8Zhv52IsyVytxr86Y/+s3xjW1jSGryXE9R6LuxMhbGQRXo1UWQAJV5UVvzVcRAUWhqLNw3hKQeBNeHonhIhXf2esbIuKgC7U0EAVEVylipZzNJsc94BOpF0UnZz7VN5WdT79+d6/T4/D7c9EngnUqZx+W+Rv/7b/7vevLj0/Tu/6yD+A1BG449VsaD4a66/M8eaFcRNQ7mBf/vBOX6NVFMpNiytf3w4rkKdEkUg6lntWSn2tiPap7SHCmWf0D5U8jkGgQcwvw1KftDSK8F4uEqOlYonkafrUNYwxWGR93T7yA+pqVWMeiV809+mDQj4OD5E8qWarKDAL97pny/5Pojotic4s/WHufFMxNorig2pp5Drq8i+67yBllKVjHolfNPfpgUJ+Bg8bZviysXiL8JOnXY+r4VywQls3HY93vay75JAQJ8/fb0+hTEoxkxpeYwynqen0DPFIXxVF5nxrNp+2Nzxf4FOYB/wbzb7+LQSp12P9DK1L9r46bEa78lWBypUvKOpvouup4FQgApyj2tROBYoTlxp+TYw1rmSJVJ0VQXhcccFtUDDR2O8DtImE9K32ExNRTBA5XygAo7FxI3xfqJ1vd9O01Zk0Kg5OvL/4RK8c+1fM0rOx2LTLH5lo8sIIp8fZ7/4QIXLACK+/r8206P3TWCiHg/cqTkHU32X9J5boEw6F9Qx87FRTbiX5p3kT2xuci27qbeByIqeUcPhHF8KwuEIHKUe03GJKBIK+dO+D3DUOEl90nltNxvMhYBRTo5dyHcMwwRXvAwsZw+bZiMQUCRRs4dmO8Zgway4OWeJ5f7LMNQuWciJe/CMARLQmFh6TBk7pOIINXS92AYeqXBWJFc62oowuWZldZrUYhEe0aBeNga8WtTbQkI3J959m2zK+j9TEgsFNrXgvGaqWMEBNvPPnOe+zBSAxaB6aTDgLNE+iXws9/QViN7zmZ09myPRqBLArXeIHyLzFW7JGJBGYGAQMsC8QWjiIdqYgS6I9BDgfhCYauTdgfKArongd4KxIrlnvew26xzCiRnT3jxc/sKilQTI1CNQOpl53qKQnMveql9jIEqUBMjcAqB3AJhMAJN3V+qONbsMB6dVNCa3JBAyX9aixdKEhg6rOU/SRiK4uEZDnTad4jrcxYbxyju6zPvQ7Htkbc1e9f8DLINRTbybtQUno3WdLjHFyG8EzQGTRPspPhsuTaWL9L9EsVn7Rj/eD73s3ZOe1jvyvjHrlX1FylcfkB/13dtHo3AXwK9FoiPUNGxQvE0rK1OoPcC8UAUHSsUT8PaagSuUiAeiKLjC8W+fnkq1p5G4GoF4kEoOlRfLOiaGIHyBH6WN1ndosIjVSZ9TC2a4cRdNKMz4parseCf1lL/nHdmjgrj1NSYzlpPPluiWBDzv7X/TvPkucZqD+tdrFp/xZJdUeYtUmyj8mvYLyh/Z3FQEyOwm8AIX7H2JOuwiOpF0KFSnn8a+zQC/xJoXSC8nO7fsE4foU8qRb8+//4Ow8cHVNgxuTeB1gUiwK+TomkqDt6pc5FpwLd8ZAFR5OvTPoYl0LpACNa/RVynlH1cvl0KUxYG52NuYY0NdU6ghwIhIl8kneNaDc8tzCyNLSyzoZ4JtP4rlmcj6Lz8g7VGoBcCvRQIeQhUoSZGoBsCPRUIofCrlr1JurkeFkhvBcITEegbqlATI9CUQI8F4oHwbaL+wVoj0IJAL3/FWsudRfKAfkIVarKfgGIp2W1J7f8LzmsjoNrxbIRTbpqJv09ULRdqt5aYY4xhSuCyYcv74bpaonDk/a61sjOYV8QW54pIz1+x5gk+MUCoOp+w50UCbnH030Fy7UlcT8FcqUA8NysUT2K7ddtLqq54bHjj16uu5IoF4gGGhaJ+0NpvBPi725bI1oKC8zV9FQn7ygXiAbBQwmLx49Yu/58vl7jI0mDhsT0+tLDPw+ZGKJAQgi+UFwY1nLhp3+3Mm9zOFjnbwRn2RysQz4iHMS8Wjt1RXCdJPzbi6O73j414k6f5U/t9AVXESBVob6IIKMYwJ17ZsOn95dhO2eP9rLWMM0VeWLxmi3PdSSzgpUR8EopMluZrjTEOxkBtLYoAYnnnxhez6eck1/iOfYo13s9au8PMtyWviE3OFZGfRawcM6LT9ucxM9m7BTupFB+DQ9//BYh96pXFIXjZSIC5u401Z00P//WK4Fi17wTl+rkoBlJstFjLuBmnV0HfK7qHRLE7llOucdmw631y3Rni7a+1muH0hT1r9jhXRHp4g4SJaPDwDPo9dQXBUL1sxemmhXwj6dS/U7Mn5z1rmjDrrUAIYQ5r6wI2AZfgVBLWnrXUwTBVoDEhaxdbcMJc11+veiwQfwbqO1N79UKZpVP9kRdRNrxynuqgpWTr3LSUozPs9FwgPt85wC3gfp+13wm474+rTyXfIrrq5c9E128PhvhjI4GephXBUD+g3YNFjD2K2xGUYA21hFz+h9mVCiQ8MMWDLxQrlpBMvL+XVYmLzTPaEt1a0Hr+qgXiuREw1YoFEHaI27GGS2RS9nNlq8j2Fmuu/+72KSJ6J+pZSQgMKzQ1njPXvxDPligWxGLY2r9nfstH6F/2GFxYs8fHwrakIfIMYw37nCsiV3+DrEFwmFAo3yy/oPxpdbufWMh5SdzS4MrYc2U8NqyY3Np3y7MQgAmreE+fe1qIwin1Bd0TZ4k19LUligUxX1v7984zlpifcE73Gp3WhXvX+okmF5e/MLpmn3NF5GcRK/lGntjq8rdn79TZTsEzlfKACjsDC3+Cy878eEYU/fqMf+y5mLd8e3hsb3RSVfzmDlvGpoHyAlBTc+R67tsSxYKY7a39KfOMJ+ZrPqcR44K5vfYiZpKmYv44V0RKv0EcopLEyJjMR+KeWssdHFFjIsFk2A+G///v9grHWvdT3iKM9Tkp9zmoF46Lf9hob/32IBuBvjOURWLy520V41eaEbnH/JWc08LBx2LnXLeSC1W7zaheYGQQ41c6EtnwF4slda507K9I7JwrIj+KWPluxH1/3P30xErdvdoWliDgYKTG154aPkrwqGJD4CX1p0u4XqtE2acT5h6ymPfPivq14XceR8ozczpDYjFzrmtRRJcCcb62+wRPor/F7SS32b87zs9t/sx8zhLekbk//8y57iWWgE9kq9XusywbIPONMSnr7bs12fAdi2tp7vXdfPEn2l/yy7GzfRdJRiIJrCW2NK5FormGEea6xMCPnZ3Fln8fx1b7OjtQ2KePtThq+C+SokaSWEtubZy2RhdFgmv5c7yGCJzEYtia0xpBwscrEifnLiOxRLZgL83rZTJPD5S5LeXsx9It5u/YisXH5NsXXEm+u+Sd9Od9z1vOXUpiycyT2/uslyKwL1jmFMt/n5WyqxgTdS2uF+YEWlvoNxZT7XgO+4sltJbonnFFZHI4uj4MKMKI5dxDlIIgvLaMJ3afOHdJiSUVuxh75mhbL0nlb9CMP5br35XW43mvseJcEflRxMp+I7+w1O1fnrRSsPoJJTSdFI2JEbgeAUXIa9Vfepy+qFcQRZCx/K+QQ60YXxFWnLu8KDKIXYYz5giOfqk9iiKoWN49xtwqJp7lGivODSGCLGKJrgEoNU7fOqmgbS2KAGK5tY6vJ/88uzVWnBtKFNmsJVt7nHAZD1WgNUXhLJZvzVh698VzWmPFuSLys4iV40YUJrw+j5s7ZEGwm0oJY3FfI3//uyF89GO+5ZjJQAR6KRCPVKdOeDH9XOtWpgB8y8elOB0nFuQTY7owbkNGIIuAYtd7IH3toLCV8w4Tt1lCnmv3Yw/rXaBq/+8gu4KaFinaD6j902gTEGvqE+i5QDwNRccXivOD1hqBGgR6+x0klrNOk759xhbbnBEoQeAKb5B5nooBqr1VAMHkXAJXeoMskdBgkP0HVKAmRqAIgasXSAhBgwfft69hARTrphMYqUDC7HV6YOv79naZoFizn8CoBRIS0PABfZnUCmYGxh7/JXCHApln7TBA9SLoUClWNH842OdE4I4FMj98hwHqXAQDVC9WPJ7EjVorkPXDdpiirokEE2GfwyymuXzOBzKe3xl7trbwz+Vnyxlxnx3zl30rkHzMLtga9oNh616dwI+rJ2DxG4EzCViBnEnXbF+egBXI5Y/QEjiTgBXImXTN9uUJWIFc/ggtgTMJ2F+xzqSbbtulb7nEjt+VoxyVY2WM5s4IGAEjYASMgBEwAkbACBgBI2AEjIARMAJGwAgYASNgBIyAETACRsAIGAEjYASMgBEwAkbACBgBI1CGwP8Au+Y1lX+U0nYAAAAASUVORK5CYII=;" parent="1" vertex="1">
          <mxGeometry x="237.75" y="404" width="45" height="45" as="geometry" />
        </mxCell>
        <mxCell id="ami44mtzP3b5byjjy8G6-11" value="" style="shape=image;verticalLabelPosition=bottom;labelBackgroundColor=default;verticalAlign=top;aspect=fixed;imageAspect=0;image=data:image/png,iVBORw0KGgoAAAANSUhEUgAAAMgAAADICAYAAACtWK6eAAAAAXNSR0IArs4c6QAAAERlWElmTU0AKgAAAAgAAYdpAAQAAAABAAAAGgAAAAAAA6ABAAMAAAABAAEAAKACAAQAAAABAAAAyKADAAQAAAABAAAAyAAAAACbWz2VAAAStklEQVR4Ae1dC5akNhK09/lenT5Zp08Gc7LeiDK01YwKpJQASWS+pwak/ESElE3VzHj3zz/czlRAguTr/UcwF96u6+HcHD7g/tfmeV1fr5tlfyxV4M/SBB7/UkAWHXhdG2CdW5YuucyosjYR7zncChTwBrGJJwj7XEJ537r9swCcceVwS1TAGyRNKIFbTw1xxMob5kghX99VQLDKMWF8PWAoOHK4uQK7CghWn9IU7xpfoQF1cHMFXgoIfj69KfaaxY/JAxXwpsj76MhfIPrAc/I4ygLG/rbIa47t20Ufd2oeQFjA0RujrDG8UQZsFG+Muk2xbRI+64DnZnhKAob+xji/OcKG0RFP1Wh/UcjG+MTgtVWb3wD7FZn/iMxJZK6lKf4lpLYEqATLKA0iEKGlxpiXTeGhX+/X67JUfJElw3plM633y9Ktl6Ea5VYlC4sr4r9uHBNqc8gycLndBAh0GXdqQwyC4XaDAoKaPJhXHwDW5BCMXkwAVJdxtV6sx9puFykgqMMDeuVGsx7rjmICIopxpYasxZpuJyogyH3Vpo7WFO+2RbHAcZWurOV2ggKKnGdv4toUcgL+HlIqQHJcpTNKuZUqIEjAg3vmpq2NUYp1pHg9WXPuJ2u4FSigiPXGKBCwQujZe8D8bgYFFDFnNYe/MfI35Mz94D5LPqRnRlAoHuAzmkOR161MAUW470+ZhuZoQeQZjcENZW63egooUp2xV8zrFlFAMFdbcG+MiNCVp/SEfWNOt0ABxX3t5mBOt2sUUJThL6Oae8icblBAMWoKy40SDLfrFVCUrL2X17NoqGJtQaUhbk+GUnNf+QvvkaZgXeu3jb812jtCNfeX50Tao3geIkXqWs3BXG5tKiCAVWufH9MkWlE0boBb+wooINZqFGmfrh2hIrSGUJMdgkfepICiru/9jvi1BGIetz4VEMD2JonsnVYShnnc+lZAAJ+fAEobhTmGMAWLUjEYzzxu4yjAA156LrR3OaSCCBSRedzGU+DxTVL6G8KbY7ym2DJSTJSeE+bozmr8dpDuWDtgiwKKoNImEUvhu2IUhUsJ34Xd696jgKLsI85MDaICsdyep4CCckmTTK1LJoUEKQ5zuD1XAR7ykibRlqUrJSctk3Nslykw5DlSyDds5192NLzQqkBJkzC2KVOg8eZoaku6ByOFZ6qpJvHm6P48NkmgtEm0lFWN/38Qgvg0ApkR97cxdoQw2ZAIn+dgLbwPph9xq2BpPV8UiOdr5s0dpiha8va4A/MdNQVFOaZllGjGHLoMXB5hCpZWzajXbWYFzTi5DfU1hcmPm1OiUUosayiGYIxsJVrKHcIoiqZsYMyHsSOagFTJRsa0yp3TEYUFJ8HI1WL1n+7QZC2ee9U7wJ5cU5Cfm5CrxZn+CjyjmYKQVTPGXmaKSlagl4G8oJCgxoRh1eKKOAW+kUxBxqqbXCFECUDGjmIKItaNuiOOeEexCUQsGjLudFNUsIBj3AgmIGHdIItuNWN0hA0AB8Gw6sLY00yR2QrsNFAXJi7hb9XtjDi5ULOzSk1IbNGGcaeZBRBj9DRE1yUmByv/FuPIp2cTgLfqytjqpshoBVQdzMUJS7hbNbsijrx6NgV4i07TGaSZ1AKGJHo2BXgL715iyK9ns55LqUlakcyy4Yzr2RTgLbx7iyHPXk0A3KL3lEI49R8rKpJ9piTc+Nz6D8U2WCyPFP4Mm5H0Fwavoc3hA+5leV6vH8HcslTt0vNe8bCLQYkqnBWFeVByB+N6Noqey/mdP3NxCEYNUyTheFfPMk98vZoA+G2c1VgcYd2aArlF8G0MD51gnGmK5Nu61mfm6tWotYW3lBK2FNXSojfHWziHMRPwy8UcFPVCDNb7q3HXkom4LZy5V2ZTRFqKmgs2EGjlvOrE+DtNUXzFYrlOd4IvrE3sFs7mspZiaq52f6AAgoXzGqP3U3ghII4Vk+Uqryz9/SDuy/iqsRjjejUFcIvAjGFsS6YAY+UytUQkEwux5/I28VVDIcb0bLnCrv7aKGniWjHmXqVRTkewiDuXK/2zzVJEs6u0E0DsI3KejLwEcb2ahbPkkFU4Ww5LTo3WfC18GdODWbhNPRB7g5HYczln8bUU0Ddge5gWgMwVlP6K0YMpQFr4SQ/kIhiJ+1S+pyaPELp7So2C3o07p/5k4Cg5BRrzPY2vgqilQRrTJwuORUzq1JMJwObuK3Xp1QTAi/n+rxL7fyrluSuNGAqrIcZD2lZAAI9j13K7jv49mwB8LmftlPBk4Nop1RdsC18JCW/fID8WQ8ed+3lnrYcl6QHkjRh71sfyyeYz1LpGg/wKEz7kXjvlaTkwnVJ9wZ5LwW8b5MOQsBiEoWbNEAvnmvU917kKzJnpBf4cL9s2iCzzOZc5x3kA36fx7X3Lij7hhA0iBiVGeGXn8i4S3KCxh5QpMBvCv7+HlDaIoXZzIRYBmyPhgN4qULS/YYO8rbCzoDtrvtSeAtIepEsQzZlVBP4cP+wLT7njR4JOHySTd6c0X7A1kyvPwwimIJF7tmVLPDcBi45iE4ik8NfOCadw3Pp0TvkFX/Bzy+voWV+Ryw/B9Shgu65L7AgXAYktv+2zdk6U+Lecjp6nzjmH8I+4btdf3NfvIBJmSryfE/16cCOXvzF4jRnXNLYw+NxIf2I3W/bqL0vQEmMqWFDv7FDy4ZBl4PJ6nnnTuQnwf3bO4Wr41Ozb+DrZvmKOnr+D/aZ5BSz7y/0fyRRkjs70dv2b/3bh6Hn6jvSb1hVQADzaz9g640YyAZkYz705Wb+D5Aox0mfTXO49+SvAfvYEuFWse10UW6Pwbm0roIAX27uUualtamZ0KdxDH+UbRMzlPLBVBRTAPgvA+SeEf8X74EUxwq5JuRfEuLWpgAJWyh6+85napFUFFbm94x2bn6zfQeYqcD1JbQUUCT8Lk/5TGD9UeMnfgwwlxABk+NtRCnmwOebCHMOFKxjFXi97c8OJ0DEhAXY2x95+pawpcoxuCoIpWnz7WN4g8+gqdsRPgfWzEl7mctsowO8gH5s5f+xDAQXMWs3xdx+Ur0dpeYNcj9IrbhWYMCHbSeOzf+84EI5if2UM+rvdo4CgbM5eHfnqPTRuqyqofKTJj3XrH/PexvDBhRXcp4r8+eZgTrcdBfwj1o44DS0psHxWxMPvHHPFfMOm8jdI+1srgOjNcdM+eYPcJHxiWYFfrY9VM3L9icGrW6IC3iCJQt3gJqhZqzn4fYMfq55ukiuAN0iuYtf4cyNrNodeA3u8Kv4lvc09rfWdw7+MF+6v5Q0ihTU9fF8BxbLsuxyuzvDw5jiUKc1B4faVOdIyu5dFgdy92PqrpehDYqjNVq/dZ8sb5CFa3kKTG1hi/DKuJQk89ncFKOhuF0XWf8/iM6UKCBLk7kPor6UAHhA/ZWr8+i8KZ4MwYojxkH0FSjT1N8e+tkWr3JjwN1HKPWPc6imgSJWie8yHsW5pCsT025tTfgeZ03L/8JIfT/5QqsCHMYG/OYzC5YbtdVFsbcot4P67CsQ0TpnbTeqLPxQQPKVoGvq83iDMMvOH2y0KqLEq3x5u6QpIuuu35+x/zPutxW03H4bK/tHKIJohZF5jJtyEr5aU+zXWr2UKpGi99Smr+MzoCbS3Oh49/7G+QSyva3mmzlVZqyGbZa8MZR4fMlOBtUEsaoglyGN+KPDx48kfzlRAMpP/2vofvW6269M2gT9nK7DVNOU5u4gH/CHQIEXb0EepW/gGmTmRYZLh666/K2DRzz9e/a5jyoxF61fesEFSCm19zIW3ifzZFThRgQ9Dbt3GCCbCV0zKPWPcbAoowlI0Dn1slTwq1DD1/qVa6Rvk07V3BRpXQAz4vj/Khg0yGxJZihvKeIgrYFZAzJGRwAlzqa+g1a8qgAimUadytaa/W74CuTrzXL81wQodcgYBuOUrQN1c53zdciNyNF59v2uEH7G+J/2mSQV++4urJlG2BUoNcL6/fzB22yAz5jhyTODM4eYKPEKB3Fc/X0vyCGXqkqRm6ys95Vq3+jOypei69TlURuCxDTp6ng6zukNMAep2pC3XNRbsc7sKULMUbUOfaTdjsBgGpd5LEO+3aQpQsyN9kzctreRjvKjbkbbbdU1Vx5KcMW42BRRh283iM+fdbArE9DyaS64k8DxKFltPLuCOUQUUs7IMXNyMCijiYudzb44xWbaX7N2aZFVwZ1fgHAXenc+9ec2FMiFgL2FsjTFursCdCiiKx87m0Vw2ZjEWYpybK3CXAkeNEFvXd2C3f1EY+s144Mi1z9wA93cFKimglfJ8p9lrEDpZ/nmDII7DzRXoRQEtARp7JR3NTSUFPdYVMCigiDk6l7F1xhUZD3ss8dGcFFX1YFcgTwGF+9GZjK3nVYl4i7HwFMnlU67AGQoIksYO/9Gc1gLDw35ULLZeq77ncQX2FFAsxs7f0dxezqw1uRtAFlp3fpICCrJHjRBbZ1xVm5AtVmhvriqAByQTcORwS1dg7/ztrWl6iTRPJtwrGFtLy+xeU0RbzqlLs6sA9Ymdu6M5xlW32CYeAakOYrCEAj5HuupgnGvSOTp/79ZP0fRoI7dg6O+2r0CqprKf5pGrCtbbM5fyzLhTLKV46KOnoBgnKfUJ9Tq6H4d5OZNc7UJtGXuKhUVS7vUUFOMknUAlRcfVR8ahXsxk1ST3qrmVj/4t1ppP1hu/VlMgV9Nc/2pAG0ukBXiyY89skLmAiIe6AjEFFJOfsYWEuR//e1cJ/lkuCu/c11lWgQc6T5ma6gM1CikLHnLPYOgf5kq+T32DJCd0x2QFcv9TAk3OPKbjZwGtU98exJX7246d63asQKquepxqaA/y55myDMaebrnAuPFuxwoIXI601eM0Q3uQ/5FGe+uXiLMHILZGUm7pCihctzpOmBOMJ5uA/FaXnGe9SrwcUPS9DNhVAlxUR1BnHReVbLpM7rkL/fUqZoJCYeGU+8vAXSWC17lcgQkVU87aO58qgFP+FEsMlWZDjIe4AqsCbA5ZHwzX0//UKsSkeHjXpe/mw3i/dwVyFFA4vztXKfOMv9QU1VKAhT6XAvRiwyigYBKeo9x7xl9uEyrmAKW/myuQq4AiIOecxXxza1bxjwHZm5uqVPUkT1JAQXbvTKWsMcctlgIu9NFbUHrRXhXgeQnPj+WeOW4xQdVcwHoLUi/aowITQOeer62/3klcDAQY4+YKHCnQfXOQoGJsO/boWRDj5grsKVCjOZjjdlMgOGqI7frtoB1AswoIkG3Pi+V5aoUhgeQSaAW742hLAQWc3LMU8+eZbMYIJgby3VxT4JtR0YHknqN354vz0pKce0Bja9oSeMdyuwICBBNG7KxY5pivKcsloU2hdzB3KsCzkHt+9vzlTjKx2gS0Bzi2prFEPvc4BSYwjp0PyxxzSYsKKkDlEmqSSIviDoqJ+597Zvb82RzNmgLZHvjYWrNkHNipCgiy8zDHzoR1jvmaNgW6XHJNE3JwpyigyJp7To78mbN5YwcfEQnX6e/2HAUEVMP9r3WvLUn4V0tgCrFIEM/7j+WZ97T1P8PU15P/sCogCPzE4LW2cY+0dtKz8k1InPNbgf5nm6AAh2Kw3jpycNKX8W55CgjcqXeu1in+zMv8XVmuGPQvNUGCdSjumTMXxxdiUgdrcLi9V0CwdOYeMHeXZhFFDphyfR2Ke9aw1PlCXO1BPG7/KaC4ra3xNh9rdGsTkG8JpTwr4tbBHOtIiW3Bh9ifagLi3K+z94E1WKtrE6A/W6iW83MTFWN0ExAk16v2grWGMAGLq0TroY5CD2oygglI8KByXKk96w5lVwt45WaV1FLsMkcvJgDKcdd+KmoPaQJWJQfpCbE8dLoMwbUFE4DguKsh1n1nfeLo1v5MQN49yQSOZ7jMSPprScx7jpomSzJeP5Z7XiS4v/P2bxSf7wRQo3ZKgwgKsUnc6iowb9KtzRROhwd/nZf1ptHrP8CljWI7DRYJf/lwDXbOAH+JCsZjTcG8tybhpvWGuTe81FgwhrSUj1ghccXDZzhx8/0c1OdHlPV5va7Luty0hH3F1ut1BnB+nOLVLVBAcM/fGl8XDdbiUAwJBm6zTRChGFdhH7EO9XNLUEDhU+MA8PCvgzllGbicaorsNfA/IQf3RzAeZ7kfsWICCSY5PpYrLj9sDp72PgYFbpfe6lLt89Kq7RebF4j+Mar9vboMoaISxxPeCu84TuAvGG6uwK4CilWOdwdppHlvCmy0m10BQahi8CCN0BhrQwj4uO0oUOM7yE76YZd0YfaBqyz3LV9mgON3Cdr8+uk/khTwBkmSKclJ4MVBu6Nx5lflf3/8wmV9Xq//rvjPLAW8QbLkMjkLoji2xiYKTcKH5X6OzHGKDUCbXz//uy6PfqmlwP8B1Ty3SCy2PO4AAAAASUVORK5CYII=;" parent="1" vertex="1">
          <mxGeometry x="118" y="284" width="35" height="35" as="geometry" />
        </mxCell>
        <mxCell id="ami44mtzP3b5byjjy8G6-12" value="" style="shape=image;verticalLabelPosition=bottom;labelBackgroundColor=default;verticalAlign=top;aspect=fixed;imageAspect=0;image=data:image/png,iVBORw0KGgoAAAANSUhEUgAAAMgAAADICAYAAACtWK6eAAAAAXNSR0IArs4c6QAAAERlWElmTU0AKgAAAAgAAYdpAAQAAAABAAAAGgAAAAAAA6ABAAMAAAABAAEAAKACAAQAAAABAAAAyKADAAQAAAABAAAAyAAAAACbWz2VAAAIpElEQVR4Ae3cDXabOBDA8XZf75XJyTw9GcrJsjMNbomNjSQj0Mdf7xFskMToN4ztrLv58YOGAAIIIIAAAggggAACCCCAAAIIIIAAAggggAACCCCAAAIIIIAAAggggAACCCCAAAIIIIAAAggggAACCCCAAAIIIIAAAggggAACCCCAAAIIIIAAAggggAACCCCAAAIIIIAAAggggAACCCCAAAIIIIAAAggggAACCCCAAAIIIIAAAggggAACCCCAAAIIIIAAAggggAACCCCAAAIIIIAAAggggAACCCCAAAII1Cvws97QqolMqomkTCChzLR9zEqBfOVRbHdZpNSfj9jCvOiPea/zftjdqAUic8a9KK6P50PsbgR+z8/15jhPOxQQW9Nk2ydbloGam2+0zgTE1kNh7PfCoObpprTGBcTipzD2K4zbd15t/P4YOnxP3m1CeV7GxK1pDQmoxUoxHGvg5rQGBCaLkeI4x0AbuD+GDVFs5RTHOYWxfEHyHHguumg9fQ/iSaLVI9DFvfWrHs+XIvFXrT1amCf5sP318Xyo650sVvdmj5fPF6eSHnpO3pNG0LmIgNqs/u6Ru3kiZd5sR5sF1PZuk+vq43wO2okCatfOTaAnX2yjPRdQO+1Wuc4+nnaCgNo1c5MmJ8Tb+iXVFoB3Q1nMSdZk65OG1lhjqG6Yau9jaAcKqF0rNUk+hraPgNo0qf6yz6WZJUYgNTkaMyl9kgTcNCUPU9LsdM4WUBuZkhjvTysj4Dc9uShjmz1rSkI8gbSyAqlFUjaawWdXW39KgQzOdcjyJTEn3p9WSCDl1UoLxcC09wIpefG+tEICvHsUgn1xWrHx5OZFxFeHa0ISvC/tWIGUdxE5NrQxrqa2zNhXqTFE6lqlJOTHi4m2s0BscYC/M3zCdG4fk6dmcvRfwuJb6er/VJ1Wt4BYeL5V31opEEmQDAl96bqvwO99pzt/tl7+h6mlZFg+2fGx7DjXWVOFwhcuPX/h8O+nb6VA5D70Q474dS+2+b6X5q/yYd56WdPw61ATOPqXv9hrxsRVYx8x0xJtsklj1qslLr73nK38DrL3umPmu8R0ariP38i0DQEKZB1I1w93d3SUdWYnjgJZp3tbP9zd0VHWmZ04CiSbrouBfGe0kUYKZAOI02MLUCDr+e/uC6/1ZfJ3qx64/D1Mgfyl+PYg2LPei6T39X1LaO4TCuSxnNqpd9t6u5HCvC61PW1DoJVv0jeWUex0sJl9U9vEttZbaH0BR8dPgcSLc3PFW3XTk49Y3aSShZQQoEBKqDJnNwIUSDepZCElBCiQEqrM2Y0ABdJNKllICQEKpIQqc3YjQIF0k0oWUkKAAimhypzdCFAg3aSShZQQoEBKqDJnNwIUSDepZCElBCiQEqrM2Y0ABdJNKllICQEKpIQqc3YjQIF0k0oWUkKAAtlW9T+w5ttnoU1tXrGNVqEABfI4KWKnvCh871updrGJvQC11AWYN1+AAnls5zftkc0LRY68INfaFqBA1o10/XDxo14ktIoEKJD1ZLytH+boaAIUSF0Zl7rCIRoKpK57INQVDtFQIOv3wFl/LO5jPZymjkpT0W4ES4GsAwU7fHSR+PXUNhoCyQJqIz4jtil55ucDNOKaMXFt9fHr9NK21no9Ly0smL+s+DxLaqd9E9tKtVBq4hPm1ROuWfSSFEgcb4jrRq8EgSZM+R0kIaN03RS4bPb46hAi+53ejQI5PQXdBKAJK2nmv9ZRIAlZpetuAmG3mQpPRIEUBh5kerV1xn68cpLgP1poFEgLWao/xreEEI/+fikhtPuuFMi9CUfSBNS6S9oQeu8toDbh9QumZ/tp7wsz31MBtbPP8nF7zvs31XgHaSpdVQUrFs2lqogKBEOBFEAdZMrU4mjy35pRIIPczTsuU2wu/+jk++4bBdJ9inddoNpsU8aMTb57ZKzztCFqV/ZXra0tJ3mnLaqhC4vF6rZb/o/ON7TU76HyjxW/e/Dsu4DY04ttvs9t77kDaxhHgdSQhbpiEAvHi8Kb/PmZ/8M/WoX84eePpEDScyDzkOs+fYa6RrwtwtlzTV383kGBLO6OlYd+w+z1aroyfbeHuigOzw4Fcn+Pynzo1c/e9zOPcaSb4vB0USD/blqxhxTFP4+cR10VhwNQIF+/iFIYOeXwb0ywh14cvu+qjV4gatm8/o7RVWIPXEywa70feL1DLzXqN+liypNtFEf+7RZsqBdGt8XhNCO+g4it24uDlicQbFiXH6fWOEZ7B1FDoDjW7oTtY8G6XN8x/PEQbaR3ELWM8pEq/rYOc9dh3i3WaEYpELXFlyiOsIba6LGPOe7rmq77RpezT9gjFIga1R7FEWwefzX1Fv785AcClQioxfEZsU038caOezS3zyc3c/IUgeoE1CJ6dBMvj/sNfW1qD5bnUh77PGIbDYEmBNSijLnB/cb2prbF9F/r42NpCDQloBbt2s18e2yyfrF9b8f6cx9LQ6A5AbWI127oPY9JcyoEXFxgtC8KH4H6F2Dh0UmOjytAgXx9O0xxjFsDT1c+eoHwzvH09uDkyAVCcXD/bwqMWiAUx+atQYeWBMSC3eu/WGlLCydWBGIExDrtUSAaczH6INCiwGRBv1Ik2uKiiRmBWAGxjrkForEXoR8CLQuIBZ9aJNrygokdgVQBtQGxReJ9aQgMKaC26keFMtk5sY2GwEsCP18aXc9gWYQSFo95iAACCCCAAAIIIIAAAggggAACCCCAAAIIIIAAAggggAACCCCAAAIIIIAAAggggAACCCCAAAIIIIAAAggggAACCCCAAAIIIIAAAggggAACCCCAAAIIIIAAAggggAACCCCAAAIIIIAAAggggAACCCCAAAIIIIAAAggggAACCCCAAAIIIIAAAggggAACCCCAAAIIIIAAAggggAACCCCAAAIIIIAAAggggAACCCCAQLcC/wNCw9vovgXADwAAAABJRU5ErkJggg==;" parent="1" vertex="1">
          <mxGeometry x="96.5" y="689" width="47" height="47" as="geometry" />
        </mxCell>
        <mxCell id="ami44mtzP3b5byjjy8G6-13" value="" style="shape=image;verticalLabelPosition=bottom;labelBackgroundColor=default;verticalAlign=top;aspect=fixed;imageAspect=0;image=data:image/png,iVBORw0KGgoAAAANSUhEUgAAAMgAAADICAYAAACtWK6eAAAAAXNSR0IArs4c6QAAAERlWElmTU0AKgAAAAgAAYdpAAQAAAABAAAAGgAAAAAAA6ABAAMAAAABAAEAAKACAAQAAAABAAAAyKADAAQAAAABAAAAyAAAAACbWz2VAAAVQUlEQVR4Ae1dz48cxRXuNuECFw5wQCZij5hgHIEEOSRx7zk5AFej2EggFOUvQEjszCHyNadwcCSz0XIFcsh5Z5UcsCVIMAomp6wlnCjCkcgBX1C201/P1G5Pb1V1dfWrrlc9r6Td7q6uH6++rm9evfqZZeIEAUFAEBAEBAFBQBAQBAQBQUAQEAQEAUFAEBAEBAFBQBAQBAQBQUAQEAQEAUFAEBAEBAFBQBAQBAQBQUAQEAQEAUFAEAiIQB4wbUnahsCPXi3q10dZkeXlxVNBy8rf5PJscfyqzA+O79XNmer9x3snYZS/XHsjIATpDZlHBJBBEcFW8T2StkYBkRSBhDRWqEwvhSAmZHz9lWYoy506iTEJ4SJzkzQ392YuUTY5jBCE4us3ScGNEJ3ly+d1ECGLFikhiBYWB89YzSYH0fyDVGSRptgafEKQNTgcHkAMNJ+S0xQOZVsLUpFFtEomBFmrFJaHQMQonjt3nGnx/PL+YsPv+GXj5uDT242nLFt8cvK8aL1bC+j1sNlNMCFIV6V54dVZlq0M7q6wlveKCDtvvFKHUs+WKN6vQBJFIpCHhjSbSRQhiKkaDiQGCACNAG0Qkgwm8dv+TdLMrn3Qft3jebOaXkKQdtUY0JQCEcbQEG2RfZ7nv1uSxJ8sm0EUIYiqXZ7ESIkUqqjt6zCyTJsoQhDUFo/mlCIGh+ZTu8IPefYnyzSJstkE6ak1QAZOdsUQInTF9SPK9EjyQBdQk30PrVGW16vybbmUcVb1Pl1/583a4N56/DGXKEmHqX8Mqh+EfPUTevivey7lKbKzF/Ls7q2FS+AUwmyeBumpNUCMndeXXbMpfNBQMkKj9DPop6FNNosgIMdRue9SiaZqY7iU3RamH1HSJ8nmEMTREBdi2Ohx8s6ZKJg9fOP97ZOYad1thg3iSA5lZ2yCjTG0muKHBPaJwyj9VvbEs0V29/PdoXnGiD99DeJIjv1332Yx4h2jEgzN00mbJKpJpq1BHMiBX8J/fPSbTLSGP00ctUmSmmS6BHEgh2pS+VcNiakQmCpJptnEciSHdN+q6k173f7lr+22SULNrekRxIEcYm/QEkKX2lRIMi2CCDl0dTWa3xRIMh0bRMgRjQimjK/8/Kf1wi3LNJUt7lNTpqFBHEbIpVllqsbh/Ts1yZl8m+tGd2fCwzNCDh3TR4QcI3wDSxad+OP74UeOoUufIHXTyowsunLRBSkuLgIgidWpjfasgcZ/mbYN0mF3yEzc8SuULUespdn9459MQVjaI+kSZDltHes5tE7IoYUlqidmK3TM3yqy7184yL66dRhV0Ebm6TaxLCoZTSoZBGx8ZUa3+C7WJq/lu8YoRpq9WB1Nq/LGXgwsJc8eCOQvvmoJzWcdSaIaxLyRG5pW4vgjYDfazd937JKlZ4Mse60KHVBid+hQ4enXaY8wWdueVhNLmlY8a/sAqaxNrZvvR6+fiTaxTn8RaVqdxiQFH+t3W7YWohYjOkOdS2/RHtK0ckaRZUCrFok8DWUyGoTllxehnBCwGuyRu33TIIhoD6eKlmogjItYx0YiFux7EfOeZNZfHt7PvrzzbXYb18Nv18r41NbD2bmth7KXLk5/Z8a1gjs8YFf8RbUSkZtLo5v37HntZm+cbA8Q49of/pl9dPB1RYz72b1vvjv1reGHdwiDKRcgjLglAuj2xaE/p9eO5LsxtzLlT5BlT0ahq0iY/MZBNaPSX9091JJCJzf8hCinkcECKzVXC9/18N//2c5u7L13OuR4Pvx7sV64VOrgAIBW404XKYAftMGHi68Hpfxy8Zg0u/QIbud5vtC/GseXt5Fu6QeH9ojtKMiBMoBg0CjiTiGwc8pnZA/eBLGAwWG27lDN0Szeh5UmEscPAea9WPpJa9bR15EwhvagdOjxurp7hzJJp7TQqwbHtGetqIWL+I8vQZZjHxGhsWdNqT1UTu1uYeUf8qryRHk42kJlWRYx7ZAkm1ixm1dTtRdAEmrNSEDuqHYIX4Lk5UUduByaVxgInKpjSpJocPMlSJkV0VDZ8IyZkSRqPeBJEEv3buzmFbiDaSRTd5xIAjskFt48CWJAg8OouUG0SXpzIkksgJkSRN+9y2FwEB9KdY3G+mhj5suEJMWYZW7mxZQgTRH53T/15GZNMmRAEm2HzRg1gx9BLHu0crA/8FGeWg2ujfGBuOTBgCRRoOBHkCgw9M90E6eqRyRJ0f8L0cTgN5J+lGnB4Gagv1wterraWhA19JO8dXlrFO2kpuf7yAuSoBfvrctP+kQ3xoFMzfloaoRfLTK7Mvu8eG92fmFMINALfutBzlZnamenSYIFNVgvwMU9+siD9doFqlF1TPP48Q8fGaV4kP1ctVjrz59945VfvfDrzv3sJwTyAj+10Azpqj8lmFpkVmb5lQvFr/Lqr/hs8duFeh/6yo8gT5zH1IKtdsFBDm5aBL9uWOAzlCQx5kApktz777JStvHueqYgCaa1gBxIy9EVVbgCRBmLJPxskMRG0DELFhXc18Ugh5IVnQ1oKvnaU0NmIGPmMpprnm7nF7O/zTzj9orGjyAG8S9WKwi5Oh+SoFLGJEcTy6EkuTz/opcWheZQNkZTjp73o5CE35JbwxJbLK/l1sTSfVB8fN2OJipsTYxK63DsKsav+pCK69LJAHwGaA4F4/H1THa0HdJ4F4IcQ01/07ZNOJKiXeqhFbiruTaEgG1Z8Zxn+WJ39vS27h2FH79uXopSMUkjBUK0oVIrC31/5akJ0Jav/VxmZRGyCzgZGySF5lX746X67GNTxSxrmT2Ans8gjhdBLNNMgpReEjUikBpJjAUZ+IIXQQYWRqLTIpAKSdDMoi35SWpCkBMs5E6DQCok0YhO4sWLIIZ5WCQllUS8EdhkkvAiiOETioFuAGZE700lCS+CGHYy4bKScMT6yDIrxiSZhwKMD0GwUUNi87BCfRTO6TImSRDYeIyko3v3qNw3lbC8sWd6Jf4RERg66k4l+u9nPwhWj3mMpFvIwWGjOKoPObV0oE3w155SYysnFkURj7YHa16hHPEJ8uKl/appZXScZ/Eahd6wF32m1Lyc0a3EXM3DmoWEOy5BarvDPMgD7cGlBwu/kurswea2P9jhpE8Fof6Y6tdbJxt+3bk5YIVp/r5zvZrlCTlJUeUTrO2mMjBel7u3G+fQgByxdzFB5XNpEmAG69iHc7rKphZzcSPLEPsFmiPP/jcPOc1d1ds4BOkwyjmQw+cDjrXWw2fdBpfFWari4QqS42zHPi709Pa2LHHWpJ89f70SZKstDJ7RpLr+zpu6V6P5+ZADwmFtNTZCCHWCLSoU1nD7GLmI+yXRRgtUHwLr4kFc4IVNJCCjyYEY1eKo13Znz8xNYUL4j69BOppWsVcO+pKj/XFcVte143Q9Y2nrUActR71lz1CZmvGXRF4eL6F2sFzZeFEO9BxXg3SQA02rKz+Lt7UPFTnwwbFbCMW2OKryQDbbL6wK13WFlgul4brydnkPrQIS4w/3+IOrTpl6zSU+dZhxNciyS7fQFYKD3UHxC90uGz40XLPnqx2m69m2xr0rrul9CA1nyovCvyLIuHV1JfR4mXZoj9ij5ZTag6JChE6De1OrVf5FxY/tlt8ojyPOxdIfaYBSQnvEdptwKE4TYx9Dvxl/5PuDkfM7zm4cgtTa4zjPtRsOTSsIlFiFWcPQ94HCpvHNO5V44xAkM2uP2IOB+FCbWlFSOYy0al7NYhEqPEE6tEesgjfzTaWiNGWmuE+kWbmgKKtvGmEJ0mGYc9AeAE71t/uCmGq8IT1rI5Y5mv2BMoYliAVFDoa5RTx5xQeBRUxRAhOEt+0RE3jJ2w2Byv5YuIUMEyocQRKwPRSkmMqgBvSU3yZcuc3w1WA+1/iN6hWOIMx7rtooJ9Ieb4vt/aymwXsnMELEmL1XqnhhFkwtjXOVx9qVq+2BX1OKRTzNwqISunYAdPWkUcvWlJPpfXTtAVzCECQx7aEqCCo0ZUXs04TpWpVIOR8L5ewjm8KH0xU7ujflCbV4ip4gCWoPBbSqNBQkoW7CYIo6xWRK2FqqnKrcHK+65hVIgZ3csRfvUUvo6kg2+NRap9rlZNZ67f2Ye8c0RbSMfcSekGgSue0/dOJiqJmyGPHvuwKvWTaQA8dXd2mrZpxI9/MmQVbnERqXZ7dlxOKqikQHFEShXw9y9vx+W2A8w/bgsgGDTr6mHyoSJlf7TEEJRQ7Ip1bgYWVgj5Nh66KhTNBCan1Fs7zc7itybCuZ+pJjFW+rupKchkurQSzaI/ZKQQV436uLNonxywy54LqagzFk64txK/yx9rg8+2Kf4GiD+RBNMgpBoDlAkJSdqpDN+UvoGuaw7Y/qAWvKhqYUXALNqbVqUWmPuk56ao61tNTDkIM+aY10bD5dKrFOrlPYfFoZti9dPCkXh7vlIOdDtSjcZPPAZ444lORAeqsj2ha47+uINcglDT2WIkGLgCjYKTEVW6QvmFMLD61J2b0cGR+vphatBrEgsPj0doY/5RRh8MxlVq+SbdOv6Jxw2TAvJZyqni0v3U+rQSybMriAqUbZRcu4oBUmzNCu5DBS0aTqY4vQapA8n2elea/drmLOrn2wFqSpZYQ0a9AEeZgyOXwBo9UgkMLS1esrZDOe0jLSLGuiMvx+Q8jR2w6hHyi8e2uR3f18np29APIVwz/degrKlkFnoBj769j4Pm0IOQDPwWeL3y764BRuuvvNvVl28/08O4NR0arpVf/1Ec0ett0cs4eWtyYENogcJgis/rQ2iC6rj/cWlTf+4Gb1/7oZVt0tx02K2s/jH7SJaBEP4FZRhBzd2IUniE4GaJemq49DUM0x8zLdZhS5H4bAJpLDZ8pJHIK0v21ALdPOSp79zuVIHTfM8PUpAw+C6CRXWgbaxdB1LM0rHXB2v6GaA5MfKd3fD+8v2ukRTFBsJ1lNNykPTnk6ePAliIPwEqQfAkPJEWAlonZTaiyMOsrO7PcrnTk0tEd1nuHMHML8JlwvljlPeRMBAYbkAAraX3Usn8WoNxVMOM/QNy0hiC9yCcVjSg4rgqs15t4Vu5H4oMM+hSANJKd4y5wcCxvmq14nb5JAC/n0XDVlEoI00ZjYPXNyOKGNCr5qbjkTBTZHFS+n2Okkd5IyZiDLkdGpbAIRA74UyKFWD/bBB4upMHW93dMFUihbg4IYSibpxVJIEF9RQdVSWJX0WMtzUyCHwqTvdWiTqW9+QpC+iFnCo2LaFxotN1oI0F16LFVC5FgcC834RghC9HFcdj9RWWEnEvxREyUhcgCKA4UH56sQhODrXN2943XGodqyR20IMUSUxMgxpKijxpVerIFw+5JDZQuSII0hTsgxBD17XNEgdnysb9GsojgdF2kgLR9NwpEckAkO9hgcyoc5XOqIiVU5F/VL5v/4EwQzfV+4pIUx5noQVALVRNIK19NTpeV6XIJKfshevSFsIFMnBUiifkxWZS2qMixUObhe+ROEKXLtLlwKMZcVZ/mrS5GeLQ1qcvTppFjJtVONaexU973XidvKRf1ObBBPRNUvvmf0qNGoyQEbagAeIMosKiCWzIUgFnBMr/BrmaqjJgeRHcaWJEKQVGu6h9whyDFAc7RLsNM+NaodIMZzGgTJ+RtzMT5enzypyYG8CclRF2W1yXSfYgUPmwZBDDAcNPb6NQQJ4t08ZiBIBsSJhiBHiGYmJiBy0yJJE4S4Hjknp/rznSNEDBiCHChOqB8JblpECOJRefuOVXhkQRIlFDkgnBrTIBGUcSJpEKTMtRPbFp+cHKfAGOMoooUlx3KkPETB2us8QuTRJ800CNKnRCOEXZ7q9PAIOfXPAlM6cJCoz7SV/rmFicHJDkljJP1M1Yt1lGHUlY3DGYBXq+kTlK45X8kn3bEWZPnI1icO5YrAPvnqwqZBEJ3klV/zxCpDkGDeSotQtcVDNomCgbABCUsTa8BHxrnjVC6lJlHIk3OxtpwKU4p00iDIcu9ebXljahEIhPb+UEeRxlAZ+san3oJU5e+7RaiKT31NgyDUpSZMD7+muztP1+sd+iaLSraMuzzGuW/8mOHVOezUMoy9KUOX/OkQxDDdJNZoehtYNLdgR7g41dNE2URzyZcyjLLBKNOs0poTpzc4uaSN9MGlJ04AdgT+sJgK60Xao80YgZ9KTxOgo+7J46Y9UMbkCYLBwp3XURQ+bvnr+lBFFj4yhZAE5YTWpJi0SLlZNWVZ02liGUbTKcGQtPojAI3p2rQ0pQ5ycBr7aMqZDkEwWKhxsXuxNCJtnBdI4tMThy5dzuTAh6Q/BjpU9Xji2a3qmKAruuSL589lW4+7Gci6+OI3HIFHH3mw1iQ4nrs6nTW79813xkRXxHhtd/bM/K+Ldw+NARm8qIvDQA43EV64VOoC7r/7tpx2qwMmsl97zciqg0J7qlRkUY3Zp2Wko6u3zIp2adDVK+cVtlGJ/4ymV+ouHRvEgrRMe7eAI68GIZAWQaQna9DHlsj9EUiriWWY9h6yJ0uXthq9v/jcOWna9a9zScVIiyCe25C2K7mq4PhSuuZZO3zXF5298Uo1WPlKVzB5nyACafViAeAXL+3rDHW8UoZ63wqOuEOdkMQZQenFcoaKOGAMYqgizK59UN+KJlGITOOalpEOzPOc3YxPVRVAkpgkVXLIlQ6B9AgCO8Qw9Z0OFv+U5itN4p+CxOSEQHoEAXqxtYiFoNAgokU4VfFhsqRnpKvy4vz0stwxGewqmPbaruDt8ZX2xEjdkl/L+e3oLMD0F3FaBJIy0tMliMK+rqhZoR7rq0sFX4vg+WDpUZP5YUZMkyJIWuMgOsyXv+4L3avgfmjqlWURPB/JIBoCadog0eBqZWzpMBBjvYVVoo9CkKEfztBhIIb6UGB5xBeCBPwOQpKA4I6UtBBkKNCWZlZzztfQbCR+HASEIAFx102EDJidJB0AASEIBahih1CgyDINIUjgzyJ2SGCAAycvBKEAWDfSTpGupBEdASEI1SdoT1+hSlfSiYqAECQw/NKTFRjgwMkLQQIDLD1ZgQEOnLwQhArg9oxgqnQlnagIpD9ZMSp8jcxNO6785faiCsV2FWSjBHKrQUAIogGF1KvSLHnO69w90vJNPLF0Nq/m/iG+unWYnb2A9TXFiajVdPibe7OTZ7kTBASBLMMiLvyJEwQEAUFAEBAEBAFBQBAQBAQBQUAQEAQEAUFAEBAEBAFBQBAQBAQBQUAQEAQEAUFAEBAEBAFBQBAQBAQBQUAQEAQEgez/F4S5qkDsY2kAAAAASUVORK5CYII=;" parent="1" vertex="1">
          <mxGeometry x="225" y="693" width="38" height="38" as="geometry" />
        </mxCell>
        <mxCell id="ami44mtzP3b5byjjy8G6-14" value="" style="shape=image;verticalLabelPosition=bottom;labelBackgroundColor=default;verticalAlign=top;aspect=fixed;imageAspect=0;image=data:image/png,iVBORw0KGgoAAAANSUhEUgAAAMgAAADICAYAAACtWK6eAAAAAXNSR0IArs4c6QAAAERlWElmTU0AKgAAAAgAAYdpAAQAAAABAAAAGgAAAAAAA6ABAAMAAAABAAEAAKACAAQAAAABAAAAyKADAAQAAAABAAAAyAAAAACbWz2VAAAQIUlEQVR4Ae1cC5akOA6c3jf3Ku3JSn0yqJP1RORADU2TgGUDNoTecxnb+oTCUpI11bs//pIcyYANzseZy49hbzrZdDE89wt7X7M96nBIDmLgx0F+n+bWhoQ5jw0w7g1Hh0/9EGFsonE9zsOxphQG1CApbP2ra4PJJ+bxediqdvo5IOsxc0h2MqAG2UeUQY0NQbHXz7Z/qGHavr/L0RsQdMP4hfnuw5Ejh0QMvGXAcPKkpnjX9A4eyIVEDLwYMPxkY7wrmKfukxPHkDyQAUPOaor9HwoOvjgkN2fAkZ8aY39jLL09yaHkZgw48lm6bO3FeSGnksYZcOBXExzLATmWNMaAA68a41wOyPnt5G5/KHTc0GcDt9QvYPxa2OPWx8K+LezVssU/QnotYHJx3KVBDESwMTjXIP0AgkU/Po/zcFRkMnjhoIyNZK/VtT/YJP0wrkXy8OiG/DuMXxcOxncMGwamy8WAwIdxJTfEILmIAUfcKy6fDcFhGK2IAagP4wrOGFtyEgOGOCzQMy+6tYbYugpy6BjiECTcSRzJnHWpd2uKd3VATjnO4pWxJIUZMPhjwR59iU9pinfX4zjgOJpnxpAUYsDh5+gLe3pjLF3VGbwzhiSDAYftkc1B/5J1BhzHuoN1jk4/NUTkp/pRF+PwLUljwKF+1H3wrg1DsoMBg85RF+E74ktlnQFyqPtZ5+iw06PIp19JWQYc7o5oFPqVLDDg2CtNeAefhiE5jgGH69L3Rp+SCQOO55IkqzEm5J7wWPr+WAv0KQEDLOaSzeFi9TIGyH3Ju2RtPFpKNgd92aPZrCN53oHuNfMuSpPomXhkXp4B3smvgsPg6xFiyFLEPeKqi/+zFdbO7aVUc/A1LmmDAQfMUvfeRsZBlCzqEkR5ML7MrmOAd1bi7llDt5RSzWG3ZOcZSTnSVJMs3HUJYthgtuBbW20xwDtUk0zuzAsQwuaQ3IsB3mluozRfFy4S7lXVhbMp0SSssSbFgfrxnxBN3ty5oEvUCX00JQa0uc3hTWUssDkM8K5z68VyAJxtm5usnw1Y8S5ngHeeWzeXJ7EHQG6itJc8kwFH2jlN0tVO2+0TrP0CboCPRZ7TJKzBKsWAKiex6ru/StbvCSq3SViL1UluUtUlJECXMpBbT3Yp+llwx/pXxjDYSsTAnIGcJqFtFeJAoeao4ipuB8LuUFs5zeG3u1IlVJoB1khOjZXGk+QvBzxtJWJgDwMOpWiTdHsCHKUTBU07iRhIYYCFHq03SwlUStfhKAqYthIxkMKAQTlab2yuU8URLQqWthIxEGHAYNRE3TUBMnIDsqmeAQfCaP3ZGdnlADwDn2Lcn4Fog3RnUBMF52eAU4xHMGDIMlqHtD1MHJ4jwE7p3MOyluMaGWBNVVeLEUC08RoZFqamGTCgj9YjbYuLw2MEEO0kYuAIBhxOIzXZHQEmAoQ2EjFwJAMs9khtWklQHgRBO4kYOJIBg/NIg7CxisnlAIplIkd3ZIDFHqlRK0GGB4PTTiIGzmDAECTSIGysbIkEpo1EDJzJAIs9UqtZGD0YlHYSMXAmA4ZgkQahXVgiAWkjEQNXMNAhaGrN0iYkBqvUYNR3DIkYuIIBQ9BIzdIuWRwWkWDJgWQgBgoy0MFXat3SJllSg1Dfk6PIQAyUZcDgLlK7SSj8jCBJiKQsBvYzEGkQW3L/v6XN4N7PoJ3MxEBpBvqAw88Um0gHekoA6YqBAxkw+I7UMO02xaERcb7pWApi4EQGOsRKrWOb4yv1FUtfr+bMan01A18BAJ97bFK7jvq2x7F0xMCJDBhiRWp5FWLEabfqUYdi4DoGWJupTWJTuPOvWL8dThVXniOvshV3OhIDxRiIfPW3teiRjlvzpzMxcCUDhuCpbxD2wFtJdUZ9iRiomQEWfGpdf+cz/Ypl37v7HyKvsP3epSkGrmHAxrC5DTL60SwGamUg8iH+OSYzbZCPcTNh9gRdqYqBphlI/Z5GfYkYaIGBDiBT6/uV1/gGsUCWkVdXIIxMxMAlDBij5jTIJagVVAwEGAh/mI8NEoip/3FUhDTZNMOAEWlOgzSTqYA+noE+wMAHbcYGeS0SnPQJulIVAzUw0EdAjA1iicZfifpSFwOtMWAEPDZIa+CFVwykMhD5UDc2iKVGkr4YaJCBPoI52iChYBGAshEDVzIQ/YrVXwlascVAgIE+YGN/B4xqNrEZuH62rnlpM3D9bF3z0mbg+tm66WXqv1Ohfk1iALOWg+Oco0YxgNrCTp0axQBqC3ttuH8BUMpwJrCW5JIz6tciDiBLGJf2qFuTOMAs4Vzao25N0gHMEs6lPa8IeApu5kL9ZhvEgX3pQtb2Xgkz6YvFEX8N59IZbWoQcriEb23PawAODKnYqR8zujhhR/y1C1k7eyV9If4c7LS9UhzB17hdO6Pt1cK7X8M4P6N+kw0yTyR1bUz8IknFOte3i3A74s6xpK4vgv4dtkvMoYv8Z97IXyS/ERZ48AI+Pgv4iLhoGXsJzkrkH+E9yyb1U+DqJFM/Bd7lZ1msxYzfYUndj0WPWxlMUzEu6XdxCEUsPTWPyBukCNIMJ5Zhe6VpSdwlfe3hpFS8Un72YC6i02KDFEkcTqyUI/lJYqAp3ltrkKbITSqbNGXxkMZXWDvSIB/haPmGfb6LW3g4m4eS8Ur6Ovwy2SBNAS6I9+y8S8Yr6QuUnib9aZHKBOojb5AyoeNewv8PFbOQ/Wx9xrJEzFL5p+RL3CWwX/0nguRvPy02SImLuqLIUGN/lYhbIn9iSZUS2D016NX6LTYIOcu5LNo6nVwgPWLmYqePK6RHUI6o5OQdjVnEzuFl6Y86a3tFAmc6ieDuMmOWMo9gp00NQg7XamPpzGsADgyp2Kn/+jRdSmptr5J8k7C/kq0FeCLvXhFuQiGetfqYnlG3Fpni2vPcEbhj7FGe6tCuJnGAmeKbPnc4M4xaxQFsinf6XDN24m4N+5TbPc/+A0kaBi8iRf4P5T7F4CRdm8XpZ+ualzYD18/WNS9tBq6frWtZsilS5OffKdoN6PYNYHwHUdjfMVNm33Lc7HndTHVS3zg52GQrBkow4HAyreE9z9bqf+YtQZh8iIEtBr7/kt5vaepcDDyRgegbxJ5IlnJumoGPRPT9VN+w2POdbKpDG4kYaIWBae3ueXYmFn2DtEKKcIoBMmBRGnIa5DMaVHZi4GQGrES8Pa+duU6JuPIhBo5mwBFgXrtb6z8wdQEn9ocXbYiB+hjYaoal81cW069Yzf5z5PruQ4gqYsACWL57YdogAT9/fUaMZCMGTmTAcmJNG6QPOMoKHognEzFwBgP9uyD6PeQdM9pvlYGl3y+29r5znb5BuPn93etbY/vBtlWkIQYuYcADUfupzbxBpmd7nz/2KkpPDDTAwNcWRn3N2mJI560wsPVVaunctpKLNAhtJGKgJgYcYJYaYGvvtxyWvmLp95DfKNLiQQzsrv2tLls6twcRqVTrZ2CpRrf2dtdwh/y3nM3PaSMRAzUw4AAxr8896z+wL33FotLuV83Eo02e9SgGWmMgueb5RtjTdVMdb40V4b0dA6zBaU3ufbYlJt69Qaj7tWSwsfe5ca5jMVArA30qMIPB3u6b6tFOIgauYmBai3ufPQq2g+HeIKMebSRi4AoGHEHHOkyZw1gtGJB2EjFwNgMpTTHq+hrItd9BaNevGa+cfa6c6UgMHMGAH+F0j08GHrstZbY9zqUjBgoxkFKbo64Xih1qkK5UcPkRAxsMOM7Hok+ZaVdEWOwpgUddKxJdTsTAewYMR2O9pc7vvSaeVAEiEbPUn8GAI83UxqA+7YpKB29VACmalZy1zIADfKQmaVNcDB6jYGgrEQOlGYjWo5cGMvrr8BABRTuJGCjJgMNZpBZpc5gYPEdB0VYiBkowYHASrUMvAWDNBwNEwa351ZkY2MtAB8VIDfreALl6EXC0YWISMZDDgMM4Wn+WEzjFloGiID0lkHTFwIQBx3Mzdce3QRSswVYiBlIZiNYb7U4XQ8Qo4O50tArYOgOOBKL1RttLhIXeHOhLmFLQHAYcxtE6Y41eJobIUeC0o71EDKwx4Dhsusas9QSAX1InAwZYOc3htaTVZSRCW4kYWGLgFs0xJpaTjJpkZFHzyABrIqemRj/VzJaZkFeTiYBczQBrIac5aF+lOFDdMrEq2b4nqNvXUO6r0e5578pqBwMOnZwPWNpWLwaEOUmywSTPY8CRck7d0NYwmhAHypxkaS95DgOOVHPqhbb00ZQ40OYkbU1lK7BRBhyGOXXSZHOMZOUk341ONN+WgZz6GJuKPpoWFvqYTOpsTWcu8GsM5NTFWEe+FqClszGh1JkkSu7FgCEd3mtqLcz1b1UbJGWe4N41bSX3YMCRxt5739Kze1DyXxaOx62kl87tPxd6apgBB/al+43sWcM8rELvAiTRRtI2Aw74kUZYsrG2qdhGv5T01t7tSdmmrUkN3luHsXW/e8/p7/YSIcxuz8r9EnSktLfwt/RYM4bxCDFkuUXI/Jw2kjYYMMBkQc/vMLqmr8eIIdMIebST1M+AA2K0EZbsHtMcBuIijTGSRuIl9TJggJZzv+M9T2f6u7UYsnOMadLRZ/qR1MkACzl6r+/svM5U81EZXHCUJg0uJZUx4MDzrsBz9un3NmLIhIMNUbopRpIdviX1MGCActRd03fTYkDPcRRBY1NMZ0c8yfUMGCAcde/0S//NigP5UeRMm2H+zLiSaxkwhD/y7um7WTEgP5KceUPM180SdwPgjhzm91F6zRhNS2lCUvx508y1Cd4Au8NIuaeILmMwVtPiQB9JPtfmFuQ1dPMGrBzkPffu9tg74txC9iRbWqe7BXNtJGGASb5L3+E7f4zFmLcQQxbvEj1i/1bkVVoBvFMOcn3EHa75dMRsUv6uBPUXcNiApR9mTXkM2GD+iXl8HrZOm3pE+onBuUn58Qa1YZ+fNFdKj+BsnFF6PHBI/mTAhi3OHxicr5QewZtujJG8dw3Cc74ya5V+ADZvIG6PZ4PKbSabZMJnNgLFXj/r+cHG8Hrg5CFZaxAm+Znn/lLrfhJ92kjcnp5Nn3l2ttgk4Pg8Fj+Pxj0+1yy3aoyR6LUGoU6HYXx4kPQZuU4bcVrkc5c232h43QM7m4PzI8WR9S8NcTCrgUd8eG69QcDJS3yYP4dZ03MZ4NvCn5v+euaGY8fQG+VZHDzibYG6LioObxxqlvtyoMZAgZcQhxMONUv7HKgpUMhHisG5Y5BoNUwbHKgpUKxLsveX9CXbvXs+KH5gtuFZ0/UM9IDAX7gp/eunfvzBwBkN8kdQbPiwqaZZYueYvR5u1RCJ3F7VIEswDZscFDYOxV4/9SOVgX4wUEOkMjfTr6lBZtB+WxpWHKOogf5loh8I+cI8Po/zcKQph4FWGmQrRxsUxpnLsYn4bPzRmPQTvGwASv/6+d88LDUdxcBdGiSFHxuUx3m0nTbUuDed5/rTMz73843JeizwydbrsZ9vYL20t6CmrTMY+AeAsUbFW2gLEwAAAABJRU5ErkJggg==;" parent="1" vertex="1">
          <mxGeometry x="139.41" y="852" width="36" height="36" as="geometry" />
        </mxCell>
        <mxCell id="ami44mtzP3b5byjjy8G6-16" value="&lt;font style=&quot;font-size: 16px;&quot;&gt;用户&lt;/font&gt;" style="text;html=1;align=center;verticalAlign=middle;whiteSpace=wrap;rounded=0;" parent="1" vertex="1">
          <mxGeometry x="51.63" y="319" width="60" height="30" as="geometry" />
        </mxCell>
        <mxCell id="ami44mtzP3b5byjjy8G6-17" value="&lt;font style=&quot;font-size: 16px;&quot;&gt;提问&lt;/font&gt;" style="text;html=1;align=center;verticalAlign=middle;whiteSpace=wrap;rounded=0;" parent="1" vertex="1">
          <mxGeometry x="105" y="320" width="60" height="30" as="geometry" />
        </mxCell>
        <mxCell id="ami44mtzP3b5byjjy8G6-20" value="&lt;font style=&quot;font-size: 20px;&quot;&gt;检索&lt;/font&gt;" style="text;html=1;align=center;verticalAlign=middle;whiteSpace=wrap;rounded=0;" parent="1" vertex="1">
          <mxGeometry x="166.5" y="546.06" width="82" height="38" as="geometry" />
        </mxCell>
        <mxCell id="ami44mtzP3b5byjjy8G6-22" value="" style="shape=image;verticalLabelPosition=bottom;labelBackgroundColor=default;verticalAlign=top;aspect=fixed;imageAspect=0;image=data:image/png,iVBORw0KGgoAAAANSUhEUgAAAMgAAADICAYAAACtWK6eAAAAAXNSR0IArs4c6QAAAERlWElmTU0AKgAAAAgAAYdpAAQAAAABAAAAGgAAAAAAA6ABAAMAAAABAAEAAKACAAQAAAABAAAAyKADAAQAAAABAAAAyAAAAACbWz2VAAAL0klEQVR4Ae2dDVLjPAyGt8zeC7jIwk1Kb0K5CHAx+lmd5MM1LZETx5biZ2d2areOLT/SW/8lZfen8L9///6dCldJdUoCu93u43Q6fb69vb0oL/lR7Pn5+SHUsZcPwutDiTp/NOLojV1pWxFIaaKz6zvkCiX47iW0dhZH2mqvQrlLQZDfDIG9jAba3gxlr4pD6pDRJLzsBxHJW138QyAbdvM4VdJ08evr60FTLpTpSiQIRBkVHRS7OXpc6fv+6enpPWeEulKHi7cQiAs3zTNymBbNu3jiKqk7jDrvW59yIZCJQPD8sSysK9i/6SkXAqkQQa2aCN/yn5Xa3qxIEEilCGrQTPY270IbNykSBLIwKqxdLtOqu7u7x9wzkEL9OC/eC9Vlopq/rawIDix+SNmqL7T7TUAW77LDFYR6eH19/fj+xGeKEcSn30xbPe5wbWEbGIGYDjXfxm1hGxiB+I5BD9a7XrwjEA8h5t9GtyJBIP6Dr3YPDjMbdCkSBDLT271eNmwfdyMSBNJrpC/ot4hEzlpmVuHqrASBzPRy75fJGcdckYxnJR4YIhAPXjJqo4hEDnzn3BQpIpGnT62flSAQo8Hnyazj8SjTrVnrEjkrsSwSBOIpEg3bumTxbvlAEYEYDjpvpi0RSeiryW1gBOItCo3buzWRIBDjAefRvC2JBIF4jEAHNm9FJAjEQbB5NVFEMvesJPTZxJoEgXiNPid2LzlQtCASBOIk0DybueRAUUQiTyi26j8CaUW+w3blQHHuqXsrkSCQDgO1ZZfnnrq3ujUFgbSMlk7bXrLDVfvWFATSaZC27rYXkSCQ1pHScftLRVLjd4ERSMcBaqHrS0QS7F/9rASBWIiSzm2wLBIE0nlwWum+iMTiqTsCsRIh2PFn6an7Gg9eIRAC0xSBJSIJZyU5fyVL1W8EosJEoZoEFt6aUtTUZr/uXrQXVFaNgPzQQq3GwoiQ1ZSctmddoCjMCKKARJF+CSCQfn1PzxUEEIgCEkX6JYBA+vU9PVcQQCAKSBTplwAC6df39FxBAIEoIFGkXwIIpF/f03MFAQSigESRfglwkt6v7y96Hu6m3V28YSxT8wQ/7jojSEyDNAQSAggkAUIWAjEBBBLTIA2BhAACSYCQhUBMAIHENEhDICGAQBIgZCEQE0AgMQ3SEEgIIJAECFkIxAQQSEyDNAQSAggkAUIWAjEBBBLTIA2BhAACSYCQhUBMAIHENEhDICGAQBIgZCEQE0AgMQ3SEEgIIJAECFkIxAQQSEyDNAQSAggkAUIWAjEBBBLTIA2BhAACSYCQhUBMAIHENEhDICGAQBIgZCEQE0AgMQ3SEEgIIJAECFkIxAQQSEyDNAQSAggkAUIWAjEBBBLTIA2BhAACSYCQhUBMAIHENEhDICGAQBIgZCEQE0AgMQ3SEEgIIJAECFkIxAQQSEyDNAQSAggkAUIWAjEBBBLTIA2BhAACSYCQhUBMAIHENEhDICGAQBIgZCEQE0AgMQ3SEEgI7Fr9/enEDrIQMEmAEcSkWzDKCgEEYsUT2GGSAAIx6RaMskIAgVjxBHaYJIBATLoFo6wQQCBWPIEdJgkgEJNuwSgrBBCIFU9gh0kCCMSkWzDKCgEEYsUT2GGSAAIx6RaMskIAgVjxBHaYJPC3lVW73e7jeDw+rtH+8/Pzw1jv19fXOR3auz+dTv+/P35e6vXt7W23tC6xe7RX6hKb5XVNu6X+a//u7u4eX19fP6591uK9VjfVNhPImpATx144OQrC/Zo2zKl7sPvC3rGeECAvQ9qc3aONW3zdpEB+c1QUhC9D0LkIuDBCvQz9cmX3b77w8FnXaxAJumFqdPDgrNHG2G6Zqo7v81qeQNcCGXEO386uRCK2i93DOs6d7SN7668IZPDQ+K3s8RvZq8Cti0PsQyCJl4JAXH4bi0hk5ynpDtmFBBBIAlAW8V4DTWwPQgkaZ12SuHV21vwu1rAt+57TQwmQcHbwKdeEYP8Ydq7UVUj5sMMlI0nRHa6pvsSBLfbPsV06Geo51Do7aXU+oXbmwoKbHEGG4JDg3oeDt3dx4rClq8YlU5Y4YNUXLigodo//l9guAvc6Ci7At8qlmxTIDVL7XJHIN/GNumq/LbZniVxEUlvgtaHUaK8ngQjP/dPTk3q6ljs1q+CwLPtlCxiRLPNKbwI539eUM5JYCzCZguWIPNhvZRRcFqmNru5OIAPnvSyYNcwtBliOSJhqabx8u0yvApGRRLVDZXCadfamiMSzyG+HpK1PuhWILTfMs0Z26DRXWhW5xvbWZboViHwDa+FbW4fEdmeMIh/xdaR1BLoViODRBpcOZZtS2qmixbVUG2J5rXYtkDxUNktr1yIs1uf5D4HM42bqqvgxXVOGbcCYrgWiXbzmrFdaxESYPt1r2mWapaF0WaZbgVheeF+6aDpnXcDTPbBboluBhKA63+075RovC3kvdk7xtvZ5twIZnsKb9MeW5vfaKeUklI4K9CoQ9f1J2vl9RzHTVVfNPzC1gjcO2tFD2t7a/F7WXiX7JE8wruCjc5Vyi/9adWvr7UYgEhi5v+SYc9evFjjlfBHYpEDGHSpZiMtjq+KSmfNv1Q2NFlw+rJXOfbVgz1ZsMC+QIbBXG8ZvOZLR4xaZvt7vdZH+q5cHcbgZPX7tDB8uIoBAEnyIIwHSeRaBRAHgWRzjWivqDskCBMyvQQr0cbIKOYUOC/p9ye3PyUYbFeihjyXRdi2QURhbOi0vGRyausKo2/ysQmPn3DLdCWS8Z0lGjC0JQ7ONLX0PfZ4bK11e50IgY1DP9ZAIQW4ZkekFATKXYp/XmRfI8K33vtQ9QRxLqzB7/XgwOmXglkbMqb6W+pxdrFIkG9YTxK+6db+hiW6bRiBuXfdtuHaLV6aZ31eR0hBAIBpKxstoFujSBVmDGe+KOfMQiDmXZBukerZlOATNrrz3CxCI8wjIeLZl77yrTcxHIE2wF2uU0aMYyusVIZDrXDy8m/VkpIcOWbQRgVj0yoRNcu6RMbWS2pheTTC99TECuUXG6PsijpxHh3P+2I7RLjc1C4E0xZ/d+CFHHLJzxdZuNuOLCxDIBQ6bGRk15K/W5kyrPD/bYskL5u/FsgSrli0iCGkrvB60h4BXbGPdcQVK7lsIJJfYgvK1foCCQ8EFTkouRSAJEM9ZufM5rDn2rDvKeRGBlGPZtKZSjwU07YTBxlmkG3RKrkkypQrPerznXkf5aQKMINOMzJZgSrW+axDI+oyLtzAKgycEi6P9USEC+YHE5hujKGQBznP19XyEQOqxnmxJRDAWktEhnIPcx/kxzWs9AruwwDvVa46WIOCLALtYvvyFtZUJIJDKwGnOFwEE4stfWFuZAAKpDJzmfBFAIL78hbWVCSCQysBpzhcBBOLLX1hbmQACqQyc5nwRQCC+/IW1lQkgkMrAac4XAQTiy19YW5kAAqkMnOZ8EUAgvvyFtZUJIJDKwGnOF4FdaXO1t8+HH0Er3nbpvlCfHQKt4qr4CDL+6NkU2vjhoKmyfA6BVgSKC6RVR2gXAmsQQCBrUKXOzRAoLpDwowKfGjqhHL8dqwFFmaYEigtE+yeJ+XnMpn6ncSWB4gLJ+TVy+UVApZ0Ug0ATAsUFIr3Q7mSFont2s5r4nUaVBNYSiOqvr4qNrEWUnqJYEwKrCCSnJ7IWYaqVQ4yyNQmsIhBZh2RMs6S/e0RS0+20pSWwikCk8SAQ9TRrMBaRaL1GuWoEVhPIsJuFSKq5kobWILCaQMTYnL/KGnVORpITU66ICMlmBGr8uruMInNOzUUoe1nLhIX853gAmXPO0owqDW+GwK5GT4bRYI5IaphHGxsiUPoxilWnWCP3YaqVux4ZL+cVAs0IVBGI9E5Ekrn12wwKDUNgJFBNINLg8Xh8DC+MJCN9Xs0TqCoQocF0y3xMYGBEoLpApG1EEnmApGkCVXaxfiPADtdvdPgsl0D48i0a00Ury+1MXB6hxDRIzyWwWYGMQAahSJZzkxEKr2oCmxdITCISi9z8eC+f8ahuTIh0SqC0QP4DAThuQfWnphUAAAAASUVORK5CYII=;" parent="1" vertex="1">
          <mxGeometry x="249" y="289" width="28" height="28" as="geometry" />
        </mxCell>
        <mxCell id="ami44mtzP3b5byjjy8G6-23" value="" style="shape=image;verticalLabelPosition=bottom;labelBackgroundColor=default;verticalAlign=top;aspect=fixed;imageAspect=0;image=data:image/png,iVBORw0KGgoAAAANSUhEUgAAAMgAAADICAYAAACtWK6eAAAAAXNSR0IArs4c6QAAAERlWElmTU0AKgAAAAgAAYdpAAQAAAABAAAAGgAAAAAAA6ABAAMAAAABAAEAAKACAAQAAAABAAAAyKADAAQAAAABAAAAyAAAAACbWz2VAAAL3klEQVR4Ae2dbXaWPBCGW+u+rJvR4ypsV9FTN2NdWO2bVPIeoJkhhAkZ4PIPD5CPyTVzk0xUuLnhDwQgAAEIQAACEIAABCAAAQhAAAIQgAAEIAABCEAAAhCAAAQgAAEIQAACEIAABCAAAQhAAAIQgAAEIAABCEAAAhCAAAQgAAEIQAAC5ydw22uIT09P9736pl87Aj9+/Hixa81fS7sJJAri7u7uZ0Tw9vZ27w8FFlUSePz+/ftDZV331ZoLJAkDUbiPhS0GnlYkTQXy/Pz8EKi/zxpb6FP3EAROKZJmAkEchwhqayNPJ5ImAkEc1nF3qPZOJRJzgSCOQwVzK2NPI5LPrQhJ7d7e3r68vr4+xvtn3yKUGBztesVD72eoc3OG3S1TgRSAfPz27dvD0QIEe6sInEIkn6qGXlfpNNNu3fAvWSuK5OHII7cWiLSliziOHCWC7XG5/Pfv36/C7XT50CKxFkiCwvEiBGIeeWaRmAlE+7dVAeDLReLlksM8s0jMBKJFBrtVGp1z3DurSHYRyDlCgFEsETijSBDIkte5v4rA2USCQFa5n8IlBM4kEgRS4nHKrCZwFpEgkNWup0IpgTOIBIGUeptyVQSOLhIEUuV2Kq0hcGSRIJA1nqZsNYGjigSBVLucimsJHFEkCGStlym/icDRRIJANrmbyjUEjiQSBFLjYepsJnAUkSCQza6mgVoCRxAJAqn1LvVMCHgXCQIxcTONbCHgWSQIZItnqWtGwKtIEIiZi2loKwGPIkEgW71KfVMC3kSCQEzdS2MWBDyJBIFYeJQ2zAl4EQkCMXctDVoR8CASBGLlTdppQqC3SBBIE7deo9H41TDtfWhWFHqKBIFYefGi7aTvTrYefi+RmL7dvTUk2vdHIM4i4QXVb/E9vTtZ97LwvcufYVZ7iYKysAeBWFA8eRvx1bGfPn2SXkz+PvqFoD0sIZZYh3XdfoZbPY33s9iuJwRix/LsLb1/Fezsg5yPD4HMiXCeJRA/p7ZjnpG1ocdFBNKD+kH7DJ/Pix/LudRMQpJ+0GDtZfbwYc6H+PcfIXG/72XH0K+6cWBhGwKxoHjBNobE/aXn0MP2cnOBsMTq6WH6dk8Agbh3EQb2JIBAetKnb/cEEIh7F2FgTwIIpCd9+nZPAIG4dxEG9iSAQHrSp2/3BBCIexdhYE8CCKQnffp2TwCBuHcRBvYkgEB60qdv9wQQiHsXYWBPAgikJ336dk8Agbh3EQb2JIBAetKnb/cEEIh7F2FgTwIIpCd9+nZPAIG4dxEG9iSAQHrSp2/3BPg/6cFFSy9gbvniNK99txyze1WMDEQgA4zwho7fIy7//xzeBfXy/wXDH+GlAw+hOfXFA6HM4/AmEcOe/zUljTneDcL9ikhublhiLYRdy3fOBvF9Wej+pqTMUhs19xHHP2oIJHBYCoalZVBNAMY6JeIrKVPT/zB7SVUv9XI4CUK8jkAGOtprNVu8IG0hQCc+ayXQSSecZAkgkAHL6+ur+NTstcxJHmv0kRox92mV86TxHOmIQAq81WiZIwZogUkU2YkAAhlAxzxEW2b1XOZEgVr2v7C8E2fSnWLSVTcIpIM7lAB91ETawdTLd4lARiGg5SGN8oBR7/pP4/7F5R35x9QPCGTEY2m7d1R0689sgMbglETaKA+ajIPZa4Lj/QSBzJhIQWKVB0jLq9SvJlKLPETqP2IIY/wzw3H5UwTiJATGwZnEMjfNeJk1b/4mfs32w8WLX0AgswCQljixmFGAZpdXYzPGYhlft/gdxPdFakebvaQ6Z7+OQGYe7hUk4+RYepJbLPNiG7Mhp1O2dxOJ0RGBjGCkn9ISRwmuVFU9Kuv/SXC2EqnSv2r3lW8ikIz3tWWWRaKc6fLDJUmkRsu8D/2NZ7APNy98AYGsdP7Gf7iYzT9ySypJpFtmMSn/kMS4Es0piyOQjFu1JY4UZJlmJpe0mUfrb9LIcKK1lSufrkniCtfZ3k2QZkcEMgOSTqWnqhRkqZ50VGaeSf6R6kfRSDbULLPIPxLZdUcEIvCSljixeM0TvHbmEcwzvUz+IeNEIDIb0zvSzKMFpyTS2NZakUoClWYp08EfuDEEIjjPcokjLW+WgnNtbiIM5f2yJNBwnfxDAYdAFDjSLSnYpPLS9ZLglES0Jg/RZpvcDppk7xWvIxDF69ISJ1bRgi7TZPH27ryuZMMakSobBIsvrJjbc7VzBKJ43GKJowlpa/ta2+NhSflHKJPdQRvXvfpvBLIQAVuXOMrTuyg4NRGVLrPWzDYLOC53G4E0drny9C7uWRJpSQPaLKPtoJW0fYUyCGTBy1tzAOnpvSY4NRs0AcShSTPYFtEtIDvVbQSy4E5tibMUnLXbu3OTNBvmZefn0gxWsoM2b+uK5wikwOvS07Y0B5h3UROctTZIMxjbu3Ov5M8RSJ7L5GpNQA8NZLd3J403PNFmuC2zUkOT3TWNQApcIj1tpadzbFILzjX5RzKvJg+R8o/QZtEOWur7ykcEUuB97WkrCcE6ODUbpCFI+YdUnusfCSCQj0yyV6QcQBJCi+CUbJByIWmGk2bE7MAvfhGBFAaAtMSRhNAiOCUbckOQZrZYtmY2yvVxhWsIZKOXc0KQtndjVy2CM9owF4Q0swUTyD9W+ByBFMKKgS0tcebBqTS5KTg1G5Q+ubWBAALZAE+puvv2biYPydpQs4OmjPP0txDIChdLOYCynJm0bhGckg3jjqQZTZoBx3X5PSWAQKY8qs7GibqUf1gFp5TDjHMhSbChzJ+qAV64EgJZ4XwpBxgHp9ScZXBKYpNmjmQT27uJRPkRgZSzUkum4BzPJuMKlsFZILZs/iHNPmM7+T0lgECmPBbPlnIAaTaxDE5JbNLSahjUph20RTAnLYBAVjpWCvS4iyTlH6EL0+CUbIizl2LDypFSPBJAIBVxIOUAFU1VV1lrg8UOWrWxB66IQCqcl8sB4tJKyj9aBGduqafZUDFMqgQCCKQiDKQcIJd/rH3SV5gzqZKzIRQwXeJNOjz5CQKpcLCUA+SaCgHb5O8eog17iy83vrNfQyCVHi4NTmm2qey2qlqLJV6VIQeshEAqnZbLAXJNrZltcvW1ayU2lApZ6+fK9xBIW+83XfuXiK/VEq8tNj+tI5BKX5QEZ2XTq6otzRAelnirBuSsMALZ4JCl4Nxj7b+0zPIi5A2Yu1b93LX3g3cegzP8844mu1Qr0WSXcsweKylmiiOQDJTSS8PT+aW0fItyHmxoMS4vbbLE8uIJ7HBJAIG4dAtGeSGAQLx4AjtcEkAgLt2CUV4IIBAvnsAOlwQQiEu3YJQXAgjEiyewwyUBBOLSLRjlhQAC8eIJ7HBJAIG4dAtGeSGAQLx4AjtcEkAgLt2CUV4IIBAvnsAOlwQQiEu3YJQXAgjEiyewwyUBBOLSLRjlhQAC8eIJ7HBJAIG4dAtGeSGAQLx4AjtcEkAgLt2CUV4IIBAvnsAOlwQQiEu3YJQXAgjEiyewwyUBBOLSLRjlhQAC8eIJ7HBJAIG4dAtGeSGAQLx4AjtcEkAgLt2CUV4IIBAvnsAOlwQQiEu3YJQXArsI5Onp6d7LgLEDAmsImAmELxmtwU7ZrQSen58fpDYsY9FMIJKx8frd3d1P7T73IOCVgKlApG/2hS+t3rPM8hoCx7NrmD2kh272c3S1ozQViPZByfAtv9/atFg7AOpdi8DwoJXEYQ7j1rrFX79+/Y4zhtLuu8L3+AKsYgO3DkQgrT7iUn0ptqzjyvwjnsOXX+8V/u/qD7PJbk8BxRZuHYhAEMfu1pousaL1ww6C6Tpwdyp0eEQCj9azR4RgvsRKZBcSqVSMIwQsCDQRRzSsmUBi44gkUuBPYwLNxBHtbiqQ2MFo54qcIwLhjwmB+FcKMd+1/EvBnGHNBZI6RSiJBMctBPYSRrJxN4GkDtMxbd2lc44Q0Ai0nim0vrkHAQhAAAIQgAAEIAABCEAAAhCAAAQgAAEIQAACEIAABCAAAQhAAAIQgAAEIAABCEAAAhCAAAQgAAEIQAACEIAABCAAAQhAAAIQgMDZCfwHMP4MwEMGmPYAAAAASUVORK5CYII=;" parent="1" vertex="1">
          <mxGeometry x="277" y="288.25" width="31.75" height="31.75" as="geometry" />
        </mxCell>
        <mxCell id="ami44mtzP3b5byjjy8G6-32" style="edgeStyle=orthogonalEdgeStyle;rounded=0;orthogonalLoop=1;jettySize=auto;html=1;exitX=0.5;exitY=1;exitDx=0;exitDy=0;strokeColor=#3399FF;strokeWidth=2;" parent="1" source="ami44mtzP3b5byjjy8G6-25" edge="1">
          <mxGeometry relative="1" as="geometry">
            <mxPoint x="262" y="397" as="targetPoint" />
          </mxGeometry>
        </mxCell>
        <mxCell id="ami44mtzP3b5byjjy8G6-25" value="文档" style="text;html=1;align=center;verticalAlign=middle;whiteSpace=wrap;rounded=0;fontSize=16;" parent="1" vertex="1">
          <mxGeometry x="237.5" y="315.75" width="49" height="30.25" as="geometry" />
        </mxCell>
        <mxCell id="ami44mtzP3b5byjjy8G6-28" value="&lt;font style=&quot;font-size: 16px;&quot;&gt;分块+索引&lt;/font&gt;" style="text;html=1;align=center;verticalAlign=middle;whiteSpace=wrap;rounded=0;" parent="1" vertex="1">
          <mxGeometry x="263" y="356" width="90" height="30" as="geometry" />
        </mxCell>
        <mxCell id="ami44mtzP3b5byjjy8G6-31" value="&lt;font style=&quot;font-size: 16px;&quot;&gt;向量数据库&lt;/font&gt;" style="text;html=1;align=center;verticalAlign=middle;whiteSpace=wrap;rounded=0;" parent="1" vertex="1">
          <mxGeometry x="220.12" y="445" width="83.75" height="30" as="geometry" />
        </mxCell>
        <mxCell id="ami44mtzP3b5byjjy8G6-34" style="edgeStyle=orthogonalEdgeStyle;rounded=0;orthogonalLoop=1;jettySize=auto;html=1;exitX=0.75;exitY=1;exitDx=0;exitDy=0;entryX=0.201;entryY=-0.006;entryDx=0;entryDy=0;entryPerimeter=0;strokeColor=#007FFF;curved=0;strokeWidth=2;" parent="1" source="ami44mtzP3b5byjjy8G6-16" target="ami44mtzP3b5byjjy8G6-19" edge="1">
          <mxGeometry relative="1" as="geometry" />
        </mxCell>
        <mxCell id="ami44mtzP3b5byjjy8G6-35" style="edgeStyle=orthogonalEdgeStyle;rounded=0;orthogonalLoop=1;jettySize=auto;html=1;exitX=0.5;exitY=1;exitDx=0;exitDy=0;entryX=0.806;entryY=-0.028;entryDx=0;entryDy=0;entryPerimeter=0;strokeColor=#007FFF;strokeWidth=2;" parent="1" source="ami44mtzP3b5byjjy8G6-31" target="ami44mtzP3b5byjjy8G6-19" edge="1">
          <mxGeometry relative="1" as="geometry" />
        </mxCell>
        <mxCell id="ami44mtzP3b5byjjy8G6-36" value="&lt;font style=&quot;font-size: 16px;&quot;&gt;提示词&lt;/font&gt;" style="text;html=1;align=center;verticalAlign=middle;whiteSpace=wrap;rounded=0;" parent="1" vertex="1">
          <mxGeometry x="90" y="723" width="60" height="30" as="geometry" />
        </mxCell>
        <mxCell id="ami44mtzP3b5byjjy8G6-37" value="&lt;font style=&quot;font-size: 16px;&quot;&gt;LLM&lt;/font&gt;" style="text;html=1;align=center;verticalAlign=middle;whiteSpace=wrap;rounded=0;" parent="1" vertex="1">
          <mxGeometry x="217" y="723" width="60" height="30" as="geometry" />
        </mxCell>
        <mxCell id="ami44mtzP3b5byjjy8G6-39" style="rounded=0;orthogonalLoop=1;jettySize=auto;html=1;strokeColor=#CCCCCC;" parent="1" edge="1">
          <mxGeometry relative="1" as="geometry">
            <mxPoint x="145" y="718.62" as="sourcePoint" />
            <mxPoint x="217" y="718.62" as="targetPoint" />
          </mxGeometry>
        </mxCell>
        <mxCell id="ami44mtzP3b5byjjy8G6-42" value="&lt;font style=&quot;font-size: 18px;&quot;&gt;输出&lt;/font&gt;" style="text;html=1;align=center;verticalAlign=middle;whiteSpace=wrap;rounded=0;" parent="1" vertex="1">
          <mxGeometry x="173" y="858" width="60" height="30" as="geometry" />
        </mxCell>
        <mxCell id="ami44mtzP3b5byjjy8G6-45" value="&lt;h2&gt;&lt;font face=&quot;Times New Roman&quot; style=&quot;color: rgb(0, 127, 255); font-size: 24px;&quot;&gt;朴素RAG&lt;/font&gt;&lt;/h2&gt;" style="text;html=1;align=center;verticalAlign=middle;whiteSpace=wrap;rounded=0;" parent="1" vertex="1">
          <mxGeometry x="108.5" y="925" width="139" height="59" as="geometry" />
        </mxCell>
        <mxCell id="ami44mtzP3b5byjjy8G6-48" value="" style="rounded=1;whiteSpace=wrap;html=1;strokeColor=#007FFF;strokeWidth=2;" parent="1" vertex="1">
          <mxGeometry x="509" y="861" width="272" height="60" as="geometry" />
        </mxCell>
        <mxCell id="ami44mtzP3b5byjjy8G6-115" style="edgeStyle=orthogonalEdgeStyle;rounded=0;orthogonalLoop=1;jettySize=auto;html=1;exitX=0.5;exitY=1;exitDx=0;exitDy=0;strokeWidth=2;strokeColor=#007FFF;" parent="1" source="ami44mtzP3b5byjjy8G6-50" edge="1">
          <mxGeometry relative="1" as="geometry">
            <mxPoint x="645" y="861" as="targetPoint" />
          </mxGeometry>
        </mxCell>
        <mxCell id="ami44mtzP3b5byjjy8G6-50" value="" style="rounded=1;whiteSpace=wrap;html=1;strokeColor=#007FFF;strokeWidth=2;" parent="1" vertex="1">
          <mxGeometry x="507" y="766" width="272" height="60" as="geometry" />
        </mxCell>
        <mxCell id="ami44mtzP3b5byjjy8G6-51" value="" style="rounded=1;whiteSpace=wrap;html=1;strokeColor=#007FFF;strokeWidth=2;" parent="1" vertex="1">
          <mxGeometry x="678.75" y="403" width="97" height="70" as="geometry" />
        </mxCell>
        <mxCell id="ami44mtzP3b5byjjy8G6-52" value="" style="rounded=1;whiteSpace=wrap;html=1;strokeColor=#007FFF;strokeWidth=2;" parent="1" vertex="1">
          <mxGeometry x="678" y="281.25" width="101" height="67.75" as="geometry" />
        </mxCell>
        <mxCell id="ami44mtzP3b5byjjy8G6-108" style="edgeStyle=orthogonalEdgeStyle;rounded=0;orthogonalLoop=1;jettySize=auto;html=1;exitX=0.5;exitY=1;exitDx=0;exitDy=0;entryX=0.5;entryY=0;entryDx=0;entryDy=0;strokeWidth=2;strokeColor=#FFB570;" parent="1" source="ami44mtzP3b5byjjy8G6-54" target="ami44mtzP3b5byjjy8G6-98" edge="1">
          <mxGeometry relative="1" as="geometry" />
        </mxCell>
        <mxCell id="ami44mtzP3b5byjjy8G6-54" value="" style="rounded=1;whiteSpace=wrap;html=1;strokeColor=#007FFF;strokeWidth=2;" parent="1" vertex="1">
          <mxGeometry x="509" y="536" width="272" height="60" as="geometry" />
        </mxCell>
        <mxCell id="ami44mtzP3b5byjjy8G6-55" value="" style="rounded=1;whiteSpace=wrap;html=1;strokeColor=#007FFF;strokeWidth=2;" parent="1" vertex="1">
          <mxGeometry x="515" y="281" width="112" height="70" as="geometry" />
        </mxCell>
        <mxCell id="ami44mtzP3b5byjjy8G6-56" value="" style="shape=image;verticalLabelPosition=bottom;labelBackgroundColor=default;verticalAlign=top;aspect=fixed;imageAspect=0;image=data:image/png,iVBORw0KGgoAAAANSUhEUgAAAMgAAADICAYAAACtWK6eAAAAAXNSR0IArs4c6QAAAERlWElmTU0AKgAAAAgAAYdpAAQAAAABAAAAGgAAAAAAA6ABAAMAAAABAAEAAKACAAQAAAABAAAAyKADAAQAAAABAAAAyAAAAACbWz2VAAAPWElEQVR4Ae2dS5LcNhKGi20fpGc9bmvR47WrTyFHyAut5LlFt25haaNwhBVhncKlvbXRaPaeizSHWWgIIJtVjQRAPDL/WhQfBYDID/iZAAiwdjt8QAAEQAAEQAAEQAAEQAAEQAAEQAAEQAAEQAAEQAAEQAAEQAAEQAAEQAAEQAAEQAAEQAAEQAAEQAAEQAAEQAAEQAAEQAAEQAAEeiIw9JTZXvP608//3ru833/dH8fhR3d+/HrenBsO9rdhGD/afbO9OP72x++/Hrfz33CUkwAEkpPmQ1okiHEcb83hsuLnvuBwsAL64/e3d7lT154eBJJYA6x3KCeIpzIMwTxFiPM7BMKh5YV1XmJrD+FdNGJ3GHavKRq8SwS8KQoEwuTWizCWZkEoSyJhxxBIGKddr8JYM4/EAo+yRubxOQjkMZPZmZ9+fnU3jruHDvfsp+4PIJSnixACOcFIksc4YeLxNERyjg76IKt0jDju/1z9UehJCGW9YL9ZP633rGlSje8UEthfPbsevnz+dFBo+0mT0cR6QKOlSXWyJjz8AE8yJwSBTDzqNKncVJJ5kZw6Kvu8ZRgubjCVZbf79lRxaDm/rTiMCMxUkDzzpyi/pmzMnK6tRtjG8dgHU38DVQ/g+Ytfps54zrszTfUYXlMlLnkHpr4TXTOvYIbDh/dvbihdrR/VAsn3jKOOKE5V2nx2TcOcyh8qqhVInkpkhFHSU5wSxdr5XF5Fs0hUCiSHOHrqxOaxV+f0FHUCSa8s/bbLU23v6aaw5lFjzl3EROo5TkonlpoaPXdaaYIi2RBbfm7NS2wK/cVTJRC6g8YWkbl79r9iz4jk4iaOw7h3w8xxKfQWS5VAYr2HtKYFDSqQTTGVVZsXUSOQWO8hTRxWFPEi0eVF1AgkxnuY4U25bw4xIuH3STR5ERUCifEeWsb+zcpC/rwwLX0RFQKJ8R6alqSakTmeSLR4EfECifUetq2uZWvnj4Xbq6MvIl4g4QVuQw4HTd7DWm2my8CLWB52K14g3OaVfUuhBaRpy/ci8umIFkhMR1Kj97DVnO9Fci4TsLloaytaILude1F0CPaUaRgh6fcQhutBY25CPXCweRQuEGtm2Faz93CEzMpHd3x+T/polmiB8PofvA7q+WrT76/8Zla/tobkXKxAuK6f27QIgasjjOzhXrEC4fY/dFTmMCsxmuU4iRXI/N+bnMGn9tD/cGRMM8sdP73HGwx5Or12QogVSDuI5eeEezPqiQgEciwtdNAfV1owISaCBRL+EAsd9MfywBlDQLBAUMQpBHg3jfCbUUqeasSFQGpQ7+KavAeGXZgUkUmRAuE+A5lamocIdoiigIBIgSgot+ZM5N+UmjNhNUMQyCoWnAQBQ0CoQOQ+uELFLUtAqEDQpyhbjeReTahA5BYYLCtLAAIpyxtX64wABNJZgSG7ZQlAIGV5d3Q1DHRQYUEgHVVZZLU8AQjkyBx3y/JVr48rQiB9lBNyWYmASIHwV8RVoi/oslKZixQIt95JXhHHZYHwcwIQyJwHjh4I4KZhQAgWCJaMQu3pBAQLhANH7oo4DoV5WA4TuTcjCGReK3AEAjMCYgXCW1O920ld8DMr7cADLgsu68BsNBFMrECwjLaJ+tV9JgQLpPuyqWgAZhZY+BDIAwnpr/G3Bb7NVu4CNbECkfpkd5sKPk+V+wxEMmuxAjFFzhl+5AxrziuUvCOwsGUqXCDWzLAtd/QmLFXpoTg3of5YiBYI/ueCXyG5/ysveYiX6IkWCLd6oKPOJSY/vGiBSO48blU1+R30t3db5aWFdEULxADmtJFl/99eWIVDB93npEAgvrnYP0eA3//YvT6XnoTfxAuE21FHP0RCtc5ng3iB8FHpbWbx/ld+t9Pwx6fiBWI66px+CF9SEmJwm1cSbA6xQbxACAKaWSFVgRdmGOT3P4iICoHwip5C62tmcZtXfKZ9xlAhkLhmlp4p3zHNKw39D5K0CoGQofxm1u6W4mn4cL2HluYVlb0agcRU9Jg7a8x1asaJs1Hu+o9lWagRSEwzi3tnXcLt4Zg7tYRs0jSFR41AqGC5zSyKE3eHpZjtf4xtvKklmppXVIKqBBJz59PgRThS1tI5t0xUCYSMjrkDPn/xy58WmJQteQ+u+GPY9c5r6N2AmPw/f/Fq5MYbhoubGA/EvU6J8LRychzv2aL/8P6tuvqizoNQBYy5E8ZUqBKVPeYaMRMyY5jF5K21OOruCLYAYrzIJK3Dh/dvbmwaPW5jmlZkp0bvQXar9CBkOFX244b1RVNQXt2xojQUOFYcWr0HFZ1aD0LGx3kR00TrbTQntt9BnLR6D7JdsQehin4R1Vyi0Z+ePEmKODR7DxLIN/Sl9fPl819/f/f9v/aT/ZcRDPZXz66HL58/HSLiFouSKo7ePGVusKqbWBZmbFOL4tMdttVKlCIOsk1z04rsp4/qJpZBEN/UovitNrdSxaG9aWXrhuomloWQ2NSiZJpqbpnRqvGdtY+7bdkrcm1JDY8mlkfQTCnhTd7zoh93a1Yu4zXGW1oRucxX+HH/z3rCbX06JDyIx+i///n0W0Kn3aZUxZt4XuPSZiRmO/U7/hETT2oc9EEWJRszJX6RRPF+SewDwGW+0e9YElE+zPsYx25H/ZGrZz98nJopL9d+Z5wr4klyiqPV0TgG8+xB4UFWkNKs3diHiH5yMav1/Pil9mv2m0rZGHsd9EFOkDOe5JoGMfYngoScviRvRGmFBI4J88+ra/a0df86EIdP4/E+PMhjJl/PUJPDeJKYiY1fk9lsh0atUhI3a1xk/31BCh+KC4E8QZCaWzTFPb4D2+L7tYZjE1LKArAnijDp52+TYiuKTN5k6hAfR6j6NhvPOTjlBw/CoGWaXP2+k5a8YO8LvhjFlSUoBMLG2PNL03rOO7ugskSAQLJgRCJSCUAgUksWdmUhgE76CYxuCPV+ekXO8KMJNk779yditH+a3swyrX2ZMkqjWOM0W4A+FweMZhkSa98QyETFisG9DmcphHGNXcfnyL7d3hhwf2tEQ0dOOJh2YuioFIgRhPUMSzEYMH18537G4oQziWaaNm9WTBoWOj2NCoHMPYQvCGmeIb+s3etJjaexD0y1eBixAiFR2CbT1Pbe5686OlO0gpl7GLneRZRAnCh8L1G7Il8ctssBpX1/bAptd43zKRvByPUuNFu1648vihYN2fLNIMZ2/kuoS3AyTbH+PUu3AmldGFQJqZJs3VbPsY5+S8H03mfpqolFopiaFDREedvH84gtm1emWtMS4amvNXFp8+P3WUrcMHJT6MKD9OAtlgVj1lr8elie3+K45abWmr09CaV5gbTehHAVwCyqojt6rSfTtD6d8mPv2i5vbe71IJRmBZLrZQR5q4YVAU3TcM2nWoIIsc02SymsP2UmJG6pMC0LpTmBtNOcstMu+h+JOVXRrXiMcOr3Y1oUSlMCqec1rGcYXlNlatkjnKrsuc67ZhpN0CwvmtZE0oRAynsNJwjNYggRVS0vU3KQ4xyH6gIp5zWoyQQPca4yhPzmPMxu8yf4LXiTqgLZXhxGFPASIVWfH6aEWGqLpJpAthMHRMGv6ukxTHlu02+pKZIqAtlGHBBGejVPT8H1WfI2wWqJpLhAcoujFrj0qiQ/hfxlfXFTurlcVCBmtCrP7FMIox+B5RRK6dGtoi+vnl60/G4q1suUoiVhTFPIb1r/d9kUG6XFpbKa/pzoNf0r8GTbPtG+S/qjo8Q0gqMX8yDpdxG8MjO4VBsPmFoXSnqRYu/FSplAZ7zGm5vGyx3ZCySQ+gpXu5Q68HJJwYp4kPg7Bkamkkq3g8ixs7VLeZFiHoRfVqZJVXrUgp9PxEghYF6mbab+cNIp5UWKCITfvEJ/g1NZeg8bK5ISdhcRCNcQvKKfS6z/8HaeXLglZWYaby4Q82Q13GzqkIeHRkgpBExTmt/U2tr+zQWytQFIXw4B90LtMJu4N9+wVOehIJA5DxyBwIwABDLDgYOeCJQY4dxcIFwj3IsFeioq5DUHgRbLfnOB8MGVGZ3g5wsxtifQXtkXEghvdKJE52v7wsYVOARotgUnfKnRziIC4Y5OlHpKyikQhN2WAP9h8rb5sakXEYj/kjV74fPbcc+9o5xPD7+2TCCurN2L+7a0rchkRTJg+sOVkWtIqQlp3HwhfD4CsRNZt/xbCd+6Qh6ELsnrh1AM+ldW9EeIhMwPlW1M06pU/4OoFxMIf66NqRQQiWRxxC2/3vo/V3zixQSSMtfGiOTVnZ9x7PdLwHiOOHGU9B5EuOia9KtnP/xvaji9jCzaPa1pxlr0SHqNRDN9jpHeTRD1ofcRREWMjFRUIF8+//V34sL9/XffX99BKJGlXTEaeY2Hl3a8jM0GeY/SN8hio1g+lNhlln4atE/ASrZHl9fH8dMETHNqnN7jm/qUvM4iumJ9EB9lbIfdT4P2aQSEho/jxtGXqeE4JwESBt0Iqf+YLg66GZoXj+fMY0haVTwIZSylo3bKMNuBg1c5RWjb8/m8xTyfNZ+HVRMIIYh9SDTHt34EsaxzyX12K1HYfNZuRlcVCEHYUiQWMj2ktPPB4F0clZg9JwiKndqvOJ+D2uKg3FUXCGWijEjoSu5jPQzNE+OuWXGpyN0jIRjr6H/p6W8N6LOtIMw1zHfNZtUsH/5BzX13ZypXCI/tdZ7G/CZfPLWFsF4G9f5Ke5mfJjyIn6ka3sS//vl9M5/MNtdcWDeztLY3chXe5u5+b/dqeAJ77ZBtC02qZT6bEwhlsA1vskSVcsyfqBl2tZreNiyHYaHafcVskwKxUNv2JjaX2MYTaFcY1qamBWIzCaFYElK27QvDku5CIDazEIol0eu2H2FYwl0JxGaahEL7MYttbBrYliTQnzAsnS4FYjNPW+NVtvn7Yf862OcS6FcUvqXdC8Q3Bp7Fp1FjX4YofHKiBOIbZp4H2KfAUoZDfQtb2CdBjB8lz0YQK5Bl9bGCofPmgRlEs2R0/tg+JDXTzms/ED2f13y/qhHIGrLHoqFQ2oVjhWA8AxHRIgaydflRLZAlDP/YFw+db32ahp/38/vuqb5tHlF4zSI4xwsCOUfnid+MiGwgN+fJnqGtE5Z/dm1/6blcRV4L7Z87NzeMwqHy+7SwDwIgAAIgAAIgAAIgAAIgAAIgAAIgAAIgAAIgAAIgAAIgAAIgAAIgAAIgAAIgAAIgAAIgAAIgAAIgAAIgAAIgAAIgAAIgAAIgIJnA/wGpCwtRgxuI8wAAAABJRU5ErkJggg==;" parent="1" vertex="1">
          <mxGeometry x="530" y="286.24" width="37.26" height="37.26" as="geometry" />
        </mxCell>
        <mxCell id="ami44mtzP3b5byjjy8G6-57" value="" style="shape=image;verticalLabelPosition=bottom;labelBackgroundColor=default;verticalAlign=top;aspect=fixed;imageAspect=0;image=data:image/png,iVBORw0KGgoAAAANSUhEUgAAAMwAAADICAYAAACksw7kAAAAAXNSR0IArs4c6QAAAERlWElmTU0AKgAAAAgAAYdpAAQAAAABAAAAGgAAAAAAA6ABAAMAAAABAAEAAKACAAQAAAABAAAAzKADAAQAAAABAAAAyAAAAADoUxpaAAAN9UlEQVR4Ae2dTXobNxKG2crcIMkqs8jK0gkc70yfTNJR5iRWdrFPIGk1i8nOuQJ7UFC3TFI0GwUUwAbw8nlsimyggHqBr/Hb4LDJ8Lq5+bD1Zne7l/cMaWCycgJXVw+Pj3891ObFYJFhEcg4jrfe1jhuLWxioxMCw/AwjOOf4u3j89e7tXudLJibd+/vxs3mRSxr95b8rZqAq4z3axdNtGBeWxValFVXwhozt2bhRAvm+t1717DwgkAeAsPV1ac1jnGuYtyVblhMPOJAIJTA65g4NEKhcD9p02HMoiVG+EgCv//682/Dt3/+foiMnyWauoVhgJ+lHDB6gsAa65pKMK/rKyec4ysI5CCwtjqnEsyGhcgcdQKb5wisrM7pBHPOMa5BIAOBcRg+ZjAbbfJfmpiqPqVbwdXYJmxnBCpdv1MJRlOkwzDcr3EeXeMDYfMQmBa9t0HWVyYsumRBpUYgCLwQQDDUBAgoCCAYBSyCQgDBUAcgoCCAYBSwCAoBBEMdgICCAIJRwCIoBBAMdQACCgIIRgGLoBBAMNQBCCgIIBgFLIJCAMFQByCgIIBgFLAICgEEQx2AgIIAglHAIigEEAx1AAIKAghGAYugEEAw1AEIKAggGAUsgkIAwVAHIKAggGAUsAgKgWynxuREy2HoOel+t73232r5ntNyf1UpGNX5aOVYtpjSXYtOpfhElyyFHnG7I4BguityHE4hgGBS6BG3OwIIprsix+EUAggmhR5xuyOAYLorchxOIYBgUugRtzsCCKa7IsfhFAIIJoUecbsjgGC6K3IcTiFQ5daYp+evQ4rTxIVALAFamFhyxOuSAILpsthxOpYAgoklR7wuCSCYLosdp2MJIJhYcsTrkgCC6bLYcTqWAIKJJUe8LgkgmC6LHadjCSCYWHLE65IAgumy2HE6lkB1W2PkiKVxGD7GOky8MALDOP7JMUtvWVUnGO/COG7fusI3lgTcTcnSXDO26JI1U5Q4UoIAgilBmTSaIYBgmilKHClBAMGUoEwazRBAMM0UJY6UIIBgSlAmjWYIIJhmihJHShBAMCUok0YzBBBMM0WJIyUI1LfSf3X1MOx2Jdj0ncYwPPQN4LT31Qnm8fEvKUj5xwsCxQnQJSuOnARrJoBgai498l6cAIIpjpwEayaAYGouPfJenACCKY6cBGsmgGBqLj3yXpwAgimOnARrJoBgai498l6cAIIpjpwEayZQ3Ur/zc2Hba3Ap10KRbMvvC6RblEnCyZWnWA2u9123GxuCzJKT8rtyxqG4T7d0FsL/gbimMiVg+OnppN1Rrfv7vrd+5eI0/4wOULp5YuX/zlOaZ/G+b/rE8x5f9Z31VXSp6cvnywzJiIZx/F240Qhgnh9je5Wcu41i2iz2e4Hc4K6dYcqeUEjnn0yb/9GMG+ZmH0jlfDx6ctdqsG5G3pSJKnGp/hzqy3i2UiLKK2Q2xlOd+4QMII55GHzaeqCpVa2uSVxrcjWJmOBVqTlklZot7t1J43eI5zv3BDMdxY2fxl0wS4mlBMEfMszCYfu2mbDtPKJShL7lXTBUscr/uzo3e6zjE9i85EjngjHdddGyV8O+7XYRDBWJeValpQ7sFREqZDzWMIqW9Z2ehcOgjGqUSkti29VKpsqF+H02NogGAPBDFdXn2LNXF//8XntrcqPfPOtjcv/j663+D2CSSxVP3X8cs6AypIM7EUsaxurqJyQwG6s5cc2Fe/A0PiMYDS0jsJ6sTx/vTv6evGj74KtcGC/mPEzAdzU9+ceumjVTStPA+u7M2W36kvZxitu0kEcf9324hYd5fPBa289x2+jMZ6Jm8Y1m5TJj4P8rvBDdYJZIcPgLJmLZVoglQwELpI+HGd2bhWsxlGtiwbBHNegTJ/9YqRbAEw2P4kkUCCLye21BndWgvaiufnQ5LYaxjCLVcomgPTxUy3NC6NWYjnOj4jn6fmr/Lrl/fE17WcLf7VplgiPYApQnrs9sUl5obiKvNcaxJoKimclHD8LGJRiPYEQTOaySu3myBpPKaEco5B0/RrTNKFwfH3xs5tUSL1ZLKZROACCyQg8SSyukkr3KFf3K9RtSV92McR206bxzDY0vbWHQzAZS0gqS4x53wUzfugsJh/7cXxrEzm2aWk8g2D2a4Xh37FdERHLpbpgS+6niCaWx1KeSl9HMJmIx7QuaxbLjClWNDE85jTX9I5gMpRG1N3UjVnW2rIcI/L5jJgIiOJynPiFP7ubWvhLNtmFhvazOxGbEkPsXwK8pjJrOM3+ygB//ruW95jNoznrRQlu1a30m62YK+hKVyk0uIg5+K4yGfVTt6EJrCicHB3lDubYarLkD/Ko+Bfk6JJpSjsgrLavLmK89NRxgFsng0i+NTcTb0QpsJMJX/BLBBMC/9TO3xPxYrqKmq7eiSQv/lVM/qWXcPGMR2YAwQSAy9UCqO/OAXm9RBCtH1O37BJZTU4TwSwhVMwGabtjMXfnpexe4rraj4q7ZQhmoYa9PpC1EE7bzdDelReSv/hl7cSFltfFHZwygGCsSmLvacYgk4HjoiBbFQaqtVuGYIwqm7o7lmmNysgdtRk/zlN0X2s9/APBqKvG2wja7kVr3bGZSGj3dQ6v5TbHu+Q7glmi33nXaQnPwfUOWFW30u8LSNP0H5Ropg/K8Yt6VilTtq3NSrfMbZd5CO5uvXB7sM5HTnvVCWZaE6kK8kEBrk3sB5njwxIBumRLhLiejcDBTwxmS8XWMIKx5bloTTswXjS4sgCt+4dgDCpcjXdKA7e7NIFguiz2jE5rZsoq3CKDYCzqjqbgNRXKIm/YMCWAYCxwama+lFPQFtkraqNx/xBM0dpEYgcENDeag4iX+4BgCrNngqAwcOPkEIwB0NanUjWINDeEGrkhGE1tIGz3BBCMRRXQzHxpZtQs8lbaRuP+IZjSFcqlV+O29hBMMYeAhNhdUxgEY1Aa2kMyan3a0ADVgYkad20jmIMiTPigmSJttNuieupUwyuhWKyjIhgjonIKpMZUa90yrT81zpBJ+SIYTS03DNtct0y7wq+ZKDHknmoKwaQSnOLHHAKhvSsbZTWLGVV3zOVAO+7LkukIowgmAppVlFZaGe3sWM2HgCAYq9rv7GjHMfLse+2tzPRrBbeGGFdtCsEYFo+6W+bSbqWV0WCscTp59g/BzCSM3qNaGfebMkbJFzUT07rU3B0TuAjGuIpFtTLu15a14wDjbKvNxYhFEqm5dZH8IxihYPxStzIufZllqmU8I/nUzooJ4tpbF/EBwQgF41dMKyNZqGU8E5vP2lsXKSMEIxQyvGJaGZk18z+0miE/ViZjfghW0m6hdRE/EIxQyPCKbWW8aNyvVa+teyb5SRFLC62LVBMEk0Ess8moVmaKPO52n9cyEeDHLC4/IubZN817K2IRnxGMpuSVYaWV0f4y134SfiLgwlPOfjZMxBL5aqUrNruPYGYSmd69aNxPi8eaF9FcSxetsHDmLljMbNjsq4ilpdZF/EIwc+lmfJdKk3qn9cK5/iN7N+1VKAldMI/SPe/SmljEr+p+7iJjvc5qWiqPGzR/jB0H+My5MYQTzta1Nv6jZYX045RxvHVjp21WEJUbdze+8Jd0DUJDS9/dzxSFRugknIZhEBJ3J/cPY7nnSzS8RSBi36+pRA7mF/Pn8vb09OXTYriKAiCYwoXl7+QJg+ig7E6P/+4/1XhwXlgugZzKXGOiQTCnCrnAd7FrGgWyZp9EQ6Jh0G9fPYIsSlfF3a3ugwLXHsi1aP4GUbsfLv8I5oKFaDF7dsHs65JuRDQIRlfs5qERjTnSrAYRTFa8YcZFNE/PX4dqumjTpEKYd0ehpKVZ4V65o1z+8COC+SGa8hdWLxwnFFku8OMv955CyO+Vm6a2U+yUjotgShMPSG/upq2mxdkTyrzW47f8dCgaVybhL82iGwuX4VzPhfSbH4chbYfAuQTOXROhuBM9Z5GcCmqxrlRTXUEwp2rBSr+bN2CmbIhcdG0anywJ5dhO6rpSLaJBMMclX8lnM/HsCURcP9eaLKHpQTQIZqkWVHJ93hu22ds8ebAdxvmxv1VmM51tnCKQU2haFw2COVXqfJdEoGXRMEuWVDWIfIqA36E8dfVOXV/6bs1TzghmqfS4HkWgVdEgmKjqQKQQAi2KBsGElDxhogm0JhoEE10ViBhKoCXRIJjQUidcEoFWRINgkqoBkTUEWhANgtGUOGGTCdQuGgSTXAUwoCVQs2jyrfTL8+qV/rS0tgJYh7fermKdPyt7Ne4I0AnGnbyYdBCdFenG7dSyc9eiGGoTDV0yi1LHRjSB5O6ZO60zOvGIiCrBpPx8Q0TeiNIJgSTRuDMC5kcdSuBSCaZEhkijTwIpojl+jCEnQZVg/GA0YRdqTkewXT+BaNG4VqaU9yrBSKbolpUqmj7TiRJNwZu4WjDSyriptfs+ixOvSxAQ0Wjq2MGTpJkz+FOM/W///P3wyy//3rq4v8fEJ855Aq4V/8+3b//77/lQbV+VOvbrz7853Wy2S566QxA/LYWxuq5uYeaEtXeBOR7vEAglMJ/Pdi68piU6Zyf0WrRgJAHvkBzmVrAPGeoY4dog8EPRuDrnF3jdMbslPZUmz+TlTy2ZTizJem6WSW7XbaSnlX5tSUg962XrkJYN4SEAAQhAAAIQgAAEIAABCEAAAhCAAAQgAAEIQAACEIAABCAAAQhAAAIQgAAEIAABCEAAAhCAAAQgAAEIQAACEIAABCAAAQhAAAIQgAAEIACB1RH4P20owQ5Q/aRSAAAAAElFTkSuQmCC;" parent="1" vertex="1">
          <mxGeometry x="604" y="548.06" width="40.81" height="40" as="geometry" />
        </mxCell>
        <mxCell id="ami44mtzP3b5byjjy8G6-58" value="" style="shape=image;verticalLabelPosition=bottom;labelBackgroundColor=default;verticalAlign=top;imageAspect=0;image=data:image/png,iVBORw0KGgoAAAANSUhEUgAAAMgAAADICAYAAACtWK6eAAAAAXNSR0IArs4c6QAAAERlWElmTU0AKgAAAAgAAYdpAAQAAAABAAAAGgAAAAAAA6ABAAMAAAABAAEAAKACAAQAAAABAAAAyKADAAQAAAABAAAAyAAAAACbWz2VAAAKU0lEQVR4Ae2djXEcNw+G5S8pJJ2YLiWVCK4kXydHdZJOFCCjnZEvJx65y1/wwQx9t0sSBB7wPd5KHvvlBYMABCAAAQhAAAIQgAAEIAABCEAAAhCAwOwEvs0eoMYXPpqF+t3+wJYm8HYXvdxdc5lBIOiYm7Z32hYMROtsDXtCQLQfUezNwPYAdkcg6DUnxt7CuP9glLs9MuTytyGr/rqo6OVf2v7QhkHgIBD0jT0jR23DbLRARDN/HZY9C89OIGiAw0UyCpLowvfHKtcwebQHbqM26agTxMTxOipp1l2OwB8a8ZCTZIRARJNFHAoBKyIQdHR3kdiCvc2OUAwCZwl03bP/OxvlyXlych7TIHAQkONNj9euatSEOD16VNX/Gt327e8dWUqltWIlP7gZQyBUWPamPn5U8DOVCzs9zjbRuUEb5oeAaCpn94MJxJ2dgWEggjsSJHQQsNpajc/sDZvrxkQzOQPBDQAS+ZJA0J4ze8PmNbfeP8UqSehnyWDGLksgauRnav26bMYPAr/pvdJPiQduuOWYQOn+sD3V3GY9QWLzzFlgNgJT1ryXQEJhNd4KxzN8PwKhR8q9BNIjF9ZYm8CUH4oIZO1NRfSNCSCQxoBxvzYBBLJ2/Yi+MQEE0hgw7tcmgEDWrh/RNyaAQBoDxv3aBBDI2vUj+sYEEEhjwLhfmwACWbt+RN+YAAJpDBj3axNAIGvXj+gbE0AgjQHjfm0CCGTt+hF9YwIIpDFg3K9NAIGsXT+ib0wAgTQGjPu1CSCQtetH9I0JIJDGgHG/NgEEsnb9iL4xAQTSGDDu1yaAQNauH9E3JoBAGgPG/doEEMja9SP6xgR6/v8gjVP5xX3Qq9ePO/Yea0vg+Ld1pe0y/b17FIgV6RBHf6J7rviZt/F3Y96+YolW5nOx3BRqkUSMvSwSa1aYngRihUEcWWVvOshqEJqu0NG5J4F0xMZSTwi4+aDyJBA3RXmy+ejuSMCTQDpiY6knBMKT/mW6PQkkLkPdf6BuauFJIFP+/xL+tfAwQze18CQQ0VLFh+XiZm8C0nvBVut5EogxOn6j24oXfp8TcFUDbwKJWr9v2lwV6fmenGJE1Ch+aBNtbszjXzWx4oi2qC1ow9oSiB/uj9e2q3X27lUghjF+NHuPQeAUAW9fsU5BYBIEviKAQL4iw30IKAEEwjaAQIIAAknAoQsCCIQ9AIEEAQSSgEMXBBAIewACCQIIJAGHLgggEPYABBIEEEgCDl0QQCDsAQgkCCCQBBy6IIBA2AMQSBBAIAk4dEEAgbAHIJAggEAScOiCAAJhD0AgQQCBJODQBQEEwh6AQIIAAknAoQsCCIQ9AIEEAQSSgEMXBBAIewACCQIIJAGHLgggEPYABBIEEEgCDl0QQCDsAQgkCCCQBBy6IIBA2AMQSBDw/K+7W9ohkTtddQjEOm7m9OJVIKK4+W+h++45+0+LjLsr8/gV66YVQhz9t6kxN/ah/9LtVvR2goiiCu1w4fkJgYN9fDJumW5PJ4godU6O8VsvaAjWXJgngXx3UREfSbj5oPIkkOBjb7nIwk0tPAnExc4iibkIeBJInAvt1tG4qYUngdjP4bE5CLzNEcb1KDwJJCoOa9hYAq5+YehJILYtrDjR3mBDCERdVYas3GhRbwKJyumHNhMK1peAMTf2rszbb9KP4oi+sWYW/v2TP1oSiC2dj/TtVSCfmbot3ucked+GgLevWG0o4XVbAghk29KTeA4BBJJDiTHbEkAg25aexHMIIJAcSozZlgAC2bb0JJ5DAIHkUGLMtgQQyLalJ/EcAggkhxJjtiWAQLYtPYnnEEAgOZQYsy0BBLJt6Uk8hwACyaHEmG0JIJBtS0/iOQQQSA4lxmxLAIFsW3oSzyGAQHIoMWZbAghk29KTeA4BBJJDiTHbEkAg25aexHMIIJAcSozZlgAC2bb0JJ5DAIHkUGLMtgQQyLalJ/EcAggkhxJjtiWAQLYtPYnnEEAgOZQYsy0BBLJt6Uk8hwACyaHEmG0JeP7X3cNHVY9XD0WOmoQ1zBmBd82npMmF/IPOvWkrWW+1saL5eTPRhErr0JyBtxPEIL82pzZ+gSNHyxdrSMDbM8ixcRoim8a15SrTROM0EE8C2XGz7PSBMESCngTyfQjB8YuG8SH4jcDTM8iuG8Xyjtp6W+i94Ij1PAkkKsAwAuIGax5c7Svd8X6DtF9ePAlki4I9SDI+uFfrVlBH24miFrwSP+86uKRJifOPsUFfS9bwMFY+cq/9EtThTdvsjGrnPcxfKWg5GanNK11r5fEnMSWnrcQwmchKnaWb0Ip01kQnlq632vib5hi01TZRhyuxqJ3/f/x5fAaxIh/2erxx8ho1jzdtoq22iTr0xqs2o2b+Sj+VrFhYPwKiS5XWaIbxzQl5+kVhc1hOFxDNi5Pji+IikC/AbHQbcSSKjUAScDbokg1yvJQiArmEb/nJnB5PSohAngBy3C2Oc6uWmscf81aD49zRldMjKhv7cbO9njVbP5ydrPPihbnZUxFINipXA8OFbH7o3Hhhvk0VbUHbFTOBNjcE0hzxlAuEk1F9Oznv8zTRiyun12dfbt6/ayYlTdxkPmcit8J6WO2kQipn1n20b8yPK3uUZOqeuMp+vmRsg6X4P+q7kkU4sd6jGI575s+VHYnlvoqr7OdLJrcOx7gr9bC5h58ar0H9dTN+zNsN9ZYLiWb9WinzqH5q/ICgKBwe0otwMbiAgOjY2uIoWL7OUE6QOhzx8iuBm17WEsdP9WUnxxBDIEOwu100aGbv2uy1hpk4pIajsz74inWWHPPuCYjeqHVqmO/uzxu26L1xgtwT4foMAdFJtcQR1dcU4tA4XjhBjAJ2hYDo5NriuBJP1bmcIFVxbufsphnXEoc9b9jJMZUhkKnKsUwwQSN912avNczEITUc1fbBV6zaRP37E02x1qlhtKZ53rBg7o0T5J4I1ykCop21xBHV19Ti0Ph4SDcIWBYB0VG1xZG18A6D7PtqSbvtAGVgjiW1qD1WBuY97dK24UtA23isHYGSWtQcK+1SWtuzbfhS0GtnPHf0pbWoMT7MjeRxdDM/pMvjkLm7GIGo8U7/MD6aadAAznwK2TysPoEztTgz51Y/dJ8eg6Z1FrDNxeoSOFOL0jlSN2T/3uzTpBTyMR7YdffHwbXVq5t6favLPentpr0hOSKvM+YNY1SCQEj0Xe3ieeMCwVafWPg9fzrXYlfrA/DC9qo/9bf6LpMe7cQKyRF0rkggatB2cvytDbtIoNYnFn7GnxpWA7m4H6ae3vsEMRicIlNviaLgfupoKZqx2OARAonKCJEstlEehGtfqf7/4D63KhGwhzq+Jq3HwOoWKu0B3DwhINqPSNZhYOLYykZ8xfoMOOoFX7c+E5n3vT1v/DlveL4jE02Pk2ReBlYfbAICojEglLkYhAn2BSHcERC9toZYxjGw542gbWuz7/+zm9wF+P3umss6BN4+uYn63hoGAQhAAAIQgAAEIAABCEAAAhCAAAQgAAEITE/gHwzzU/wMweI0AAAAAElFTkSuQmCC;aspect=fixed;" parent="1" vertex="1">
          <mxGeometry x="684" y="290.5" width="31.5" height="31.5" as="geometry" />
        </mxCell>
        <mxCell id="ami44mtzP3b5byjjy8G6-59" value="" style="shape=image;verticalLabelPosition=bottom;labelBackgroundColor=default;verticalAlign=top;aspect=fixed;imageAspect=0;image=data:image/png,iVBORw0KGgoAAAANSUhEUgAAAMgAAADICAYAAACtWK6eAAAAAXNSR0IArs4c6QAAAERlWElmTU0AKgAAAAgAAYdpAAQAAAABAAAAGgAAAAAAA6ABAAMAAAABAAEAAKACAAQAAAABAAAAyKADAAQAAAABAAAAyAAAAACbWz2VAAARbElEQVR4Ae2dC3bkKBJF23VqXxm1soxaWeKV5bznElNYJSGBECAUcU4kiE98LoSV9kx3//efiREwAkbACBgBI2AEjIARMAJGwAgYASNgBIyAETACRsAIGAEjYASMgBEwAkbACBgBI2AEjIARMAJGwAgcJfBx1IDtXyUgqzPxCRefttmaBKxA9tOWYCn7j+CZXZk9l3p0gaHPoO/HfRtMWbcUASuQ7yRlemTrC8CPTVPdNm6KzBcRn/3YNGVNKoE7F4hMsJ5T65+nx2Eah0ysaDKP804FImBE5ZuB7Z3FIXlfNHpnEFu5j1wgMiXPN4TvT0PWzAg4PLNg2FJNJgKjFYggr9G/MtW4vL8nJ1rDWc8+RigQAWArivNumRXLeWxPsyywTH1B36bVGChYC9SkUwKCuKwo2v9Q4Bko1KQTAoI4rDDaF8bS21o7uSO3DEOQtRVGn4UxLxa95Q1tlLTArxXGNQpj6ELp7a9YLIwnlO0VxAVBfgb9cDwY3t2V2crH9Dwfny3r6pF//dKuIsoIpqcCIUwWR0/ipmB4+X2fQ2Gfzy1E4JTqhUUk/qGTdogiac2Sh/qCvhsrY6DKpGguK4LIddLWXOmfsZhkEFDsaXGALASqTIpmeFFkSGXerZgLfJvsJFD7oO5WEFvHoFhArV0s9GkSISCYq3Uovigi4dgUCAhUoeRV42zoy2SBgGLs7AOwolgAnzhU45zowyQgoOifVRxWFAHogl2eGfWsc6NtExBQ6BmQrTDqXa+zzpB2by2K7EsXB22atCGgcGvnWZB9SZg8HJM+CCjCsLM9eBavQhBpRw7GYtvPIaAwW6pQ5JwQ+7SqCKsEOOkzPYtqRkDxfPS8+YPwFqLI0mDd4qi/JVni3GljeFFkeKRAuN/kmgQEYR85e+6ljWFFkdkRQDIsmXsl9jpwD7h3WDkCRoalcs/E7C7Mzp0X/J2p3GsyHoHcIuG+5vKjcASSaY//YI3L3Gvb+ibAszWZCOT8tFCjNzwBnnHONwsZjUwOhNEYWD7LBHJ+eMqyqWuOMpnUAtFrpmpRZxAQ7Em9HyyqplLydxBpmok5752A6z3ApfhKFsiS/a0x3Vpg80MRcFfLpnWBXI2XxVuXgNR196+3kgXy+Nd8dMRFZ21yRAL894tdSkoWSGrikrrB1huBKxPgXxxS/0ohV07YYk8mkHo/uL6ptHyDMPFn0+zNeU0CWtNZKV+tC0RKJWJ2jEDvBF4IMOcVqr0nZvEdJsAzzrkb3DOM5BYIIcgwFCyRJQK5xdG8QFp/xfIwWVziH6wdioAOlc2BZHjJj/yk4F454N+29kdAEdLRO9FfVpkRlSgQK5JM+B1uU8R0tDi4fxgpVSCEosNQuV8igpRL3oVhCJaEYkVyzWvB4uDZldRrkliIunSBEDJtyoIvG+qPgCKkkoXhbfWXaWZEvMw+qdKtZsZk284nIHBR+rxDe+dnUMnD62RQhKaVcjE32wQES2qc+XYkF1lRAxaLxAql7YUQuK951m2zLei9JjQrlIIHt9OUYF2LM94ZXv/LWsALC4UHaFKWgMActeXZwv0Y0hKiLxS2OgbOplkIvPdynk1BlHTeC1BfLIxHSyY4uC1Bfr2dIc9yGOkRLgFTGZtCBWryh4CgofZ8bjy7YSQVtL+0hFBbvW8Zhv52IsyVytxr86Y/+s3xjW1jSGryXE9R6LuxMhbGQRXo1UWQAJV5UVvzVcRAUWhqLNw3hKQeBNeHonhIhXf2esbIuKgC7U0EAVEVylipZzNJsc94BOpF0UnZz7VN5WdT79+d6/T4/D7c9EngnUqZx+W+Rv/7b/7vevLj0/Tu/6yD+A1BG449VsaD4a66/M8eaFcRNQ7mBf/vBOX6NVFMpNiytf3w4rkKdEkUg6lntWSn2tiPap7SHCmWf0D5U8jkGgQcwvw1KftDSK8F4uEqOlYonkafrUNYwxWGR93T7yA+pqVWMeiV809+mDQj4OD5E8qWarKDAL97pny/5Pojotic4s/WHufFMxNorig2pp5Drq8i+67yBllKVjHolfNPfpgUJ+Bg8bZviysXiL8JOnXY+r4VywQls3HY93vay75JAQJ8/fb0+hTEoxkxpeYwynqen0DPFIXxVF5nxrNp+2Nzxf4FOYB/wbzb7+LQSp12P9DK1L9r46bEa78lWBypUvKOpvouup4FQgApyj2tROBYoTlxp+TYw1rmSJVJ0VQXhcccFtUDDR2O8DtImE9K32ExNRTBA5XygAo7FxI3xfqJ1vd9O01Zk0Kg5OvL/4RK8c+1fM0rOx2LTLH5lo8sIIp8fZ7/4QIXLACK+/r8206P3TWCiHg/cqTkHU32X9J5boEw6F9Qx87FRTbiX5p3kT2xuci27qbeByIqeUcPhHF8KwuEIHKUe03GJKBIK+dO+D3DUOEl90nltNxvMhYBRTo5dyHcMwwRXvAwsZw+bZiMQUCRRs4dmO8Zgway4OWeJ5f7LMNQuWciJe/CMARLQmFh6TBk7pOIINXS92AYeqXBWJFc62oowuWZldZrUYhEe0aBeNga8WtTbQkI3J959m2zK+j9TEgsFNrXgvGaqWMEBNvPPnOe+zBSAxaB6aTDgLNE+iXws9/QViN7zmZ09myPRqBLArXeIHyLzFW7JGJBGYGAQMsC8QWjiIdqYgS6I9BDgfhCYauTdgfKArongd4KxIrlnvew26xzCiRnT3jxc/sKilQTI1CNQOpl53qKQnMveql9jIEqUBMjcAqB3AJhMAJN3V+qONbsMB6dVNCa3JBAyX9aixdKEhg6rOU/SRiK4uEZDnTad4jrcxYbxyju6zPvQ7Htkbc1e9f8DLINRTbybtQUno3WdLjHFyG8EzQGTRPspPhsuTaWL9L9EsVn7Rj/eD73s3ZOe1jvyvjHrlX1FylcfkB/13dtHo3AXwK9FoiPUNGxQvE0rK1OoPcC8UAUHSsUT8PaagSuUiAeiKLjC8W+fnkq1p5G4GoF4kEoOlRfLOiaGIHyBH6WN1ndosIjVSZ9TC2a4cRdNKMz4parseCf1lL/nHdmjgrj1NSYzlpPPluiWBDzv7X/TvPkucZqD+tdrFp/xZJdUeYtUmyj8mvYLyh/Z3FQEyOwm8AIX7H2JOuwiOpF0KFSnn8a+zQC/xJoXSC8nO7fsE4foU8qRb8+//4Ow8cHVNgxuTeB1gUiwK+TomkqDt6pc5FpwLd8ZAFR5OvTPoYl0LpACNa/RVynlH1cvl0KUxYG52NuYY0NdU6ghwIhIl8kneNaDc8tzCyNLSyzoZ4JtP4rlmcj6Lz8g7VGoBcCvRQIeQhUoSZGoBsCPRUIofCrlr1JurkeFkhvBcITEegbqlATI9CUQI8F4oHwbaL+wVoj0IJAL3/FWsudRfKAfkIVarKfgGIp2W1J7f8LzmsjoNrxbIRTbpqJv09ULRdqt5aYY4xhSuCyYcv74bpaonDk/a61sjOYV8QW54pIz1+x5gk+MUCoOp+w50UCbnH030Fy7UlcT8FcqUA8NysUT2K7ddtLqq54bHjj16uu5IoF4gGGhaJ+0NpvBPi725bI1oKC8zV9FQn7ygXiAbBQwmLx49Yu/58vl7jI0mDhsT0+tLDPw+ZGKJAQgi+UFwY1nLhp3+3Mm9zOFjnbwRn2RysQz4iHMS8Wjt1RXCdJPzbi6O73j414k6f5U/t9AVXESBVob6IIKMYwJ17ZsOn95dhO2eP9rLWMM0VeWLxmi3PdSSzgpUR8EopMluZrjTEOxkBtLYoAYnnnxhez6eck1/iOfYo13s9au8PMtyWviE3OFZGfRawcM6LT9ucxM9m7BTupFB+DQ9//BYh96pXFIXjZSIC5u401Z00P//WK4Fi17wTl+rkoBlJstFjLuBmnV0HfK7qHRLE7llOucdmw631y3Rni7a+1muH0hT1r9jhXRHp4g4SJaPDwDPo9dQXBUL1sxemmhXwj6dS/U7Mn5z1rmjDrrUAIYQ5r6wI2AZfgVBLWnrXUwTBVoDEhaxdbcMJc11+veiwQfwbqO1N79UKZpVP9kRdRNrxynuqgpWTr3LSUozPs9FwgPt85wC3gfp+13wm474+rTyXfIrrq5c9E128PhvhjI4GephXBUD+g3YNFjD2K2xGUYA21hFz+h9mVCiQ8MMWDLxQrlpBMvL+XVYmLzTPaEt1a0Hr+qgXiuREw1YoFEHaI27GGS2RS9nNlq8j2Fmuu/+72KSJ6J+pZSQgMKzQ1njPXvxDPligWxGLY2r9nfstH6F/2GFxYs8fHwrakIfIMYw37nCsiV3+DrEFwmFAo3yy/oPxpdbufWMh5SdzS4MrYc2U8NqyY3Np3y7MQgAmreE+fe1qIwin1Bd0TZ4k19LUligUxX1v7984zlpifcE73Gp3WhXvX+okmF5e/MLpmn3NF5GcRK/lGntjq8rdn79TZTsEzlfKACjsDC3+Cy878eEYU/fqMf+y5mLd8e3hsb3RSVfzmDlvGpoHyAlBTc+R67tsSxYKY7a39KfOMJ+ZrPqcR44K5vfYiZpKmYv44V0RKv0EcopLEyJjMR+KeWssdHFFjIsFk2A+G///v9grHWvdT3iKM9Tkp9zmoF46Lf9hob/32IBuBvjOURWLy520V41eaEbnH/JWc08LBx2LnXLeSC1W7zaheYGQQ41c6EtnwF4slda507K9I7JwrIj+KWPluxH1/3P30xErdvdoWliDgYKTG154aPkrwqGJD4CX1p0u4XqtE2acT5h6ymPfPivq14XceR8ozczpDYjFzrmtRRJcCcb62+wRPor/F7SS32b87zs9t/sx8zhLekbk//8y57iWWgE9kq9XusywbIPONMSnr7bs12fAdi2tp7vXdfPEn2l/yy7GzfRdJRiIJrCW2NK5FormGEea6xMCPnZ3Fln8fx1b7OjtQ2KePtThq+C+SokaSWEtubZy2RhdFgmv5c7yGCJzEYtia0xpBwscrEifnLiOxRLZgL83rZTJPD5S5LeXsx9It5u/YisXH5NsXXEm+u+Sd9Od9z1vOXUpiycyT2/uslyKwL1jmFMt/n5WyqxgTdS2uF+YEWlvoNxZT7XgO+4sltJbonnFFZHI4uj4MKMKI5dxDlIIgvLaMJ3afOHdJiSUVuxh75mhbL0nlb9CMP5br35XW43mvseJcEflRxMp+I7+w1O1fnrRSsPoJJTSdFI2JEbgeAUXIa9Vfepy+qFcQRZCx/K+QQ60YXxFWnLu8KDKIXYYz5giOfqk9iiKoWN49xtwqJp7lGivODSGCLGKJrgEoNU7fOqmgbS2KAGK5tY6vJ/88uzVWnBtKFNmsJVt7nHAZD1WgNUXhLJZvzVh698VzWmPFuSLys4iV40YUJrw+j5s7ZEGwm0oJY3FfI3//uyF89GO+5ZjJQAR6KRCPVKdOeDH9XOtWpgB8y8elOB0nFuQTY7owbkNGIIuAYtd7IH3toLCV8w4Tt1lCnmv3Yw/rXaBq/+8gu4KaFinaD6j902gTEGvqE+i5QDwNRccXivOD1hqBGgR6+x0klrNOk759xhbbnBEoQeAKb5B5nooBqr1VAMHkXAJXeoMskdBgkP0HVKAmRqAIgasXSAhBgwfft69hARTrphMYqUDC7HV6YOv79naZoFizn8CoBRIS0PABfZnUCmYGxh7/JXCHApln7TBA9SLoUClWNH842OdE4I4FMj98hwHqXAQDVC9WPJ7EjVorkPXDdpiirokEE2GfwyymuXzOBzKe3xl7trbwz+Vnyxlxnx3zl30rkHzMLtga9oNh616dwI+rJ2DxG4EzCViBnEnXbF+egBXI5Y/QEjiTgBXImXTN9uUJWIFc/ggtgTMJ2F+xzqSbbtulb7nEjt+VoxyVY2WM5s4IGAEjYASMgBEwAkbACBgBI2AEjIARMAJGwAgYASNgBIyAETACRsAIGAEjYASMgBEwAkbACBgBI1CGwP8Au+Y1lX+U0nYAAAAASUVORK5CYII=;" parent="1" vertex="1">
          <mxGeometry x="704.75" y="407" width="45" height="45" as="geometry" />
        </mxCell>
        <mxCell id="ami44mtzP3b5byjjy8G6-60" value="" style="shape=image;verticalLabelPosition=bottom;labelBackgroundColor=default;verticalAlign=top;aspect=fixed;imageAspect=0;image=data:image/png,iVBORw0KGgoAAAANSUhEUgAAAMgAAADICAYAAACtWK6eAAAAAXNSR0IArs4c6QAAAERlWElmTU0AKgAAAAgAAYdpAAQAAAABAAAAGgAAAAAAA6ABAAMAAAABAAEAAKACAAQAAAABAAAAyKADAAQAAAABAAAAyAAAAACbWz2VAAAStklEQVR4Ae1dC5akNhK09/lenT5Zp08Gc7LeiDK01YwKpJQASWS+pwak/ESElE3VzHj3zz/czlRAguTr/UcwF96u6+HcHD7g/tfmeV1fr5tlfyxV4M/SBB7/UkAWHXhdG2CdW5YuucyosjYR7zncChTwBrGJJwj7XEJ537r9swCcceVwS1TAGyRNKIFbTw1xxMob5kghX99VQLDKMWF8PWAoOHK4uQK7CghWn9IU7xpfoQF1cHMFXgoIfj69KfaaxY/JAxXwpsj76MhfIPrAc/I4ygLG/rbIa47t20Ufd2oeQFjA0RujrDG8UQZsFG+Muk2xbRI+64DnZnhKAob+xji/OcKG0RFP1Wh/UcjG+MTgtVWb3wD7FZn/iMxJZK6lKf4lpLYEqATLKA0iEKGlxpiXTeGhX+/X67JUfJElw3plM633y9Ktl6Ea5VYlC4sr4r9uHBNqc8gycLndBAh0GXdqQwyC4XaDAoKaPJhXHwDW5BCMXkwAVJdxtV6sx9puFykgqMMDeuVGsx7rjmICIopxpYasxZpuJyogyH3Vpo7WFO+2RbHAcZWurOV2ggKKnGdv4toUcgL+HlIqQHJcpTNKuZUqIEjAg3vmpq2NUYp1pHg9WXPuJ2u4FSigiPXGKBCwQujZe8D8bgYFFDFnNYe/MfI35Mz94D5LPqRnRlAoHuAzmkOR161MAUW470+ZhuZoQeQZjcENZW63egooUp2xV8zrFlFAMFdbcG+MiNCVp/SEfWNOt0ABxX3t5mBOt2sUUJThL6Oae8icblBAMWoKy40SDLfrFVCUrL2X17NoqGJtQaUhbk+GUnNf+QvvkaZgXeu3jb812jtCNfeX50Tao3geIkXqWs3BXG5tKiCAVWufH9MkWlE0boBb+wooINZqFGmfrh2hIrSGUJMdgkfepICiru/9jvi1BGIetz4VEMD2JonsnVYShnnc+lZAAJ+fAEobhTmGMAWLUjEYzzxu4yjAA156LrR3OaSCCBSRedzGU+DxTVL6G8KbY7ym2DJSTJSeE+bozmr8dpDuWDtgiwKKoNImEUvhu2IUhUsJ34Xd696jgKLsI85MDaICsdyep4CCckmTTK1LJoUEKQ5zuD1XAR7ykibRlqUrJSctk3Nslykw5DlSyDds5192NLzQqkBJkzC2KVOg8eZoaku6ByOFZ6qpJvHm6P48NkmgtEm0lFWN/38Qgvg0ApkR97cxdoQw2ZAIn+dgLbwPph9xq2BpPV8UiOdr5s0dpiha8va4A/MdNQVFOaZllGjGHLoMXB5hCpZWzajXbWYFzTi5DfU1hcmPm1OiUUosayiGYIxsJVrKHcIoiqZsYMyHsSOagFTJRsa0yp3TEYUFJ8HI1WL1n+7QZC2ee9U7wJ5cU5Cfm5CrxZn+CjyjmYKQVTPGXmaKSlagl4G8oJCgxoRh1eKKOAW+kUxBxqqbXCFECUDGjmIKItaNuiOOeEexCUQsGjLudFNUsIBj3AgmIGHdIItuNWN0hA0AB8Gw6sLY00yR2QrsNFAXJi7hb9XtjDi5ULOzSk1IbNGGcaeZBRBj9DRE1yUmByv/FuPIp2cTgLfqytjqpshoBVQdzMUJS7hbNbsijrx6NgV4i07TGaSZ1AKGJHo2BXgL715iyK9ns55LqUlakcyy4Yzr2RTgLbx7iyHPXk0A3KL3lEI49R8rKpJ9piTc+Nz6D8U2WCyPFP4Mm5H0Fwavoc3hA+5leV6vH8HcslTt0vNe8bCLQYkqnBWFeVByB+N6Noqey/mdP3NxCEYNUyTheFfPMk98vZoA+G2c1VgcYd2aArlF8G0MD51gnGmK5Nu61mfm6tWotYW3lBK2FNXSojfHWziHMRPwy8UcFPVCDNb7q3HXkom4LZy5V2ZTRFqKmgs2EGjlvOrE+DtNUXzFYrlOd4IvrE3sFs7mspZiaq52f6AAgoXzGqP3U3ghII4Vk+Uqryz9/SDuy/iqsRjjejUFcIvAjGFsS6YAY+UytUQkEwux5/I28VVDIcb0bLnCrv7aKGniWjHmXqVRTkewiDuXK/2zzVJEs6u0E0DsI3KejLwEcb2ahbPkkFU4Ww5LTo3WfC18GdODWbhNPRB7g5HYczln8bUU0Ddge5gWgMwVlP6K0YMpQFr4SQ/kIhiJ+1S+pyaPELp7So2C3o07p/5k4Cg5BRrzPY2vgqilQRrTJwuORUzq1JMJwObuK3Xp1QTAi/n+rxL7fyrluSuNGAqrIcZD2lZAAI9j13K7jv49mwB8LmftlPBk4Nop1RdsC18JCW/fID8WQ8ed+3lnrYcl6QHkjRh71sfyyeYz1LpGg/wKEz7kXjvlaTkwnVJ9wZ5LwW8b5MOQsBiEoWbNEAvnmvU917kKzJnpBf4cL9s2iCzzOZc5x3kA36fx7X3Lij7hhA0iBiVGeGXn8i4S3KCxh5QpMBvCv7+HlDaIoXZzIRYBmyPhgN4qULS/YYO8rbCzoDtrvtSeAtIepEsQzZlVBP4cP+wLT7njR4JOHySTd6c0X7A1kyvPwwimIJF7tmVLPDcBi45iE4ik8NfOCadw3Pp0TvkFX/Bzy+voWV+Ryw/B9Shgu65L7AgXAYktv+2zdk6U+Lecjp6nzjmH8I+4btdf3NfvIBJmSryfE/16cCOXvzF4jRnXNLYw+NxIf2I3W/bqL0vQEmMqWFDv7FDy4ZBl4PJ6nnnTuQnwf3bO4Wr41Ozb+DrZvmKOnr+D/aZ5BSz7y/0fyRRkjs70dv2b/3bh6Hn6jvSb1hVQADzaz9g640YyAZkYz705Wb+D5Aox0mfTXO49+SvAfvYEuFWse10UW6Pwbm0roIAX27uUualtamZ0KdxDH+UbRMzlPLBVBRTAPgvA+SeEf8X74EUxwq5JuRfEuLWpgAJWyh6+85napFUFFbm94x2bn6zfQeYqcD1JbQUUCT8Lk/5TGD9UeMnfgwwlxABk+NtRCnmwOebCHMOFKxjFXi97c8OJ0DEhAXY2x95+pawpcoxuCoIpWnz7WN4g8+gqdsRPgfWzEl7mctsowO8gH5s5f+xDAQXMWs3xdx+Ur0dpeYNcj9IrbhWYMCHbSeOzf+84EI5if2UM+rvdo4CgbM5eHfnqPTRuqyqofKTJj3XrH/PexvDBhRXcp4r8+eZgTrcdBfwj1o44DS0psHxWxMPvHHPFfMOm8jdI+1srgOjNcdM+eYPcJHxiWYFfrY9VM3L9icGrW6IC3iCJQt3gJqhZqzn4fYMfq55ukiuAN0iuYtf4cyNrNodeA3u8Kv4lvc09rfWdw7+MF+6v5Q0ihTU9fF8BxbLsuxyuzvDw5jiUKc1B4faVOdIyu5dFgdy92PqrpehDYqjNVq/dZ8sb5CFa3kKTG1hi/DKuJQk89ncFKOhuF0XWf8/iM6UKCBLk7kPor6UAHhA/ZWr8+i8KZ4MwYojxkH0FSjT1N8e+tkWr3JjwN1HKPWPc6imgSJWie8yHsW5pCsT025tTfgeZ03L/8JIfT/5QqsCHMYG/OYzC5YbtdVFsbcot4P67CsQ0TpnbTeqLPxQQPKVoGvq83iDMMvOH2y0KqLEq3x5u6QpIuuu35+x/zPutxW03H4bK/tHKIJohZF5jJtyEr5aU+zXWr2UKpGi99Smr+MzoCbS3Oh49/7G+QSyva3mmzlVZqyGbZa8MZR4fMlOBtUEsaoglyGN+KPDx48kfzlRAMpP/2vofvW6269M2gT9nK7DVNOU5u4gH/CHQIEXb0EepW/gGmTmRYZLh666/K2DRzz9e/a5jyoxF61fesEFSCm19zIW3ifzZFThRgQ9Dbt3GCCbCV0zKPWPcbAoowlI0Dn1slTwq1DD1/qVa6Rvk07V3BRpXQAz4vj/Khg0yGxJZihvKeIgrYFZAzJGRwAlzqa+g1a8qgAimUadytaa/W74CuTrzXL81wQodcgYBuOUrQN1c53zdciNyNF59v2uEH7G+J/2mSQV++4urJlG2BUoNcL6/fzB22yAz5jhyTODM4eYKPEKB3Fc/X0vyCGXqkqRm6ys95Vq3+jOypei69TlURuCxDTp6ng6zukNMAep2pC3XNRbsc7sKULMUbUOfaTdjsBgGpd5LEO+3aQpQsyN9kzctreRjvKjbkbbbdU1Vx5KcMW42BRRh283iM+fdbArE9DyaS64k8DxKFltPLuCOUQUUs7IMXNyMCijiYudzb44xWbaX7N2aZFVwZ1fgHAXenc+9ec2FMiFgL2FsjTFursCdCiiKx87m0Vw2ZjEWYpybK3CXAkeNEFvXd2C3f1EY+s144Mi1z9wA93cFKimglfJ8p9lrEDpZ/nmDII7DzRXoRQEtARp7JR3NTSUFPdYVMCigiDk6l7F1xhUZD3ss8dGcFFX1YFcgTwGF+9GZjK3nVYl4i7HwFMnlU67AGQoIksYO/9Gc1gLDw35ULLZeq77ncQX2FFAsxs7f0dxezqw1uRtAFlp3fpICCrJHjRBbZ1xVm5AtVmhvriqAByQTcORwS1dg7/ztrWl6iTRPJtwrGFtLy+xeU0RbzqlLs6sA9Ymdu6M5xlW32CYeAakOYrCEAj5HuupgnGvSOTp/79ZP0fRoI7dg6O+2r0CqprKf5pGrCtbbM5fyzLhTLKV46KOnoBgnKfUJ9Tq6H4d5OZNc7UJtGXuKhUVS7vUUFOMknUAlRcfVR8ahXsxk1ST3qrmVj/4t1ppP1hu/VlMgV9Nc/2pAG0ukBXiyY89skLmAiIe6AjEFFJOfsYWEuR//e1cJ/lkuCu/c11lWgQc6T5ma6gM1CikLHnLPYOgf5kq+T32DJCd0x2QFcv9TAk3OPKbjZwGtU98exJX7246d63asQKquepxqaA/y55myDMaebrnAuPFuxwoIXI601eM0Q3uQ/5FGe+uXiLMHILZGUm7pCihctzpOmBOMJ5uA/FaXnGe9SrwcUPS9DNhVAlxUR1BnHReVbLpM7rkL/fUqZoJCYeGU+8vAXSWC17lcgQkVU87aO58qgFP+FEsMlWZDjIe4AqsCbA5ZHwzX0//UKsSkeHjXpe/mw3i/dwVyFFA4vztXKfOMv9QU1VKAhT6XAvRiwyigYBKeo9x7xl9uEyrmAKW/myuQq4AiIOecxXxza1bxjwHZm5uqVPUkT1JAQXbvTKWsMcctlgIu9NFbUHrRXhXgeQnPj+WeOW4xQdVcwHoLUi/aowITQOeer62/3klcDAQY4+YKHCnQfXOQoGJsO/boWRDj5grsKVCjOZjjdlMgOGqI7frtoB1AswoIkG3Pi+V5aoUhgeQSaAW742hLAQWc3LMU8+eZbMYIJgby3VxT4JtR0YHknqN354vz0pKce0Bja9oSeMdyuwICBBNG7KxY5pivKcsloU2hdzB3KsCzkHt+9vzlTjKx2gS0Bzi2prFEPvc4BSYwjp0PyxxzSYsKKkDlEmqSSIviDoqJ+597Zvb82RzNmgLZHvjYWrNkHNipCgiy8zDHzoR1jvmaNgW6XHJNE3JwpyigyJp7To78mbN5YwcfEQnX6e/2HAUEVMP9r3WvLUn4V0tgCrFIEM/7j+WZ97T1P8PU15P/sCogCPzE4LW2cY+0dtKz8k1InPNbgf5nm6AAh2Kw3jpycNKX8W55CgjcqXeu1in+zMv8XVmuGPQvNUGCdSjumTMXxxdiUgdrcLi9V0CwdOYeMHeXZhFFDphyfR2Ke9aw1PlCXO1BPG7/KaC4ra3xNh9rdGsTkG8JpTwr4tbBHOtIiW3Bh9ifagLi3K+z94E1WKtrE6A/W6iW83MTFWN0ExAk16v2grWGMAGLq0TroY5CD2oygglI8KByXKk96w5lVwt45WaV1FLsMkcvJgDKcdd+KmoPaQJWJQfpCbE8dLoMwbUFE4DguKsh1n1nfeLo1v5MQN49yQSOZ7jMSPprScx7jpomSzJeP5Z7XiS4v/P2bxSf7wRQo3ZKgwgKsUnc6iowb9KtzRROhwd/nZf1ptHrP8CljWI7DRYJf/lwDXbOAH+JCsZjTcG8tybhpvWGuTe81FgwhrSUj1ghccXDZzhx8/0c1OdHlPV5va7Luty0hH3F1ut1BnB+nOLVLVBAcM/fGl8XDdbiUAwJBm6zTRChGFdhH7EO9XNLUEDhU+MA8PCvgzllGbicaorsNfA/IQf3RzAeZ7kfsWICCSY5PpYrLj9sDp72PgYFbpfe6lLt89Kq7RebF4j+Mar9vboMoaISxxPeCu84TuAvGG6uwK4CilWOdwdppHlvCmy0m10BQahi8CCN0BhrQwj4uO0oUOM7yE76YZd0YfaBqyz3LV9mgON3Cdr8+uk/khTwBkmSKclJ4MVBu6Nx5lflf3/8wmV9Xq//rvjPLAW8QbLkMjkLoji2xiYKTcKH5X6OzHGKDUCbXz//uy6PfqmlwP8B1Ty3SCy2PO4AAAAASUVORK5CYII=;" parent="1" vertex="1">
          <mxGeometry x="585" y="287" width="35" height="35" as="geometry" />
        </mxCell>
        <mxCell id="ami44mtzP3b5byjjy8G6-61" value="" style="shape=image;verticalLabelPosition=bottom;labelBackgroundColor=default;verticalAlign=top;aspect=fixed;imageAspect=0;image=data:image/png,iVBORw0KGgoAAAANSUhEUgAAAMgAAADICAYAAACtWK6eAAAAAXNSR0IArs4c6QAAAERlWElmTU0AKgAAAAgAAYdpAAQAAAABAAAAGgAAAAAAA6ABAAMAAAABAAEAAKACAAQAAAABAAAAyKADAAQAAAABAAAAyAAAAACbWz2VAAAIpElEQVR4Ae3cDXabOBDA8XZf75XJyTw9GcrJsjMNbomNjSQj0Mdf7xFskMToN4ztrLv58YOGAAIIIIAAAggggAACCCCAAAIIIIAAAggggAACCCCAAAIIIIAAAggggAACCCCAAAIIIIAAAggggAACCCCAAAIIIIAAAggggAACCCCAAAIIIIAAAggggAACCCCAAAIIIIAAAggggAACCCCAAAIIIIAAAggggAACCCCAAAIIIIAAAggggAACCCCAAAIIIIAAAggggAACCCCAAAIIIIAAAggggAACCCCAAAII1Cvws97QqolMqomkTCChzLR9zEqBfOVRbHdZpNSfj9jCvOiPea/zftjdqAUic8a9KK6P50PsbgR+z8/15jhPOxQQW9Nk2ydbloGam2+0zgTE1kNh7PfCoObpprTGBcTipzD2K4zbd15t/P4YOnxP3m1CeV7GxK1pDQmoxUoxHGvg5rQGBCaLkeI4x0AbuD+GDVFs5RTHOYWxfEHyHHguumg9fQ/iSaLVI9DFvfWrHs+XIvFXrT1amCf5sP318Xyo650sVvdmj5fPF6eSHnpO3pNG0LmIgNqs/u6Ru3kiZd5sR5sF1PZuk+vq43wO2okCatfOTaAnX2yjPRdQO+1Wuc4+nnaCgNo1c5MmJ8Tb+iXVFoB3Q1nMSdZk65OG1lhjqG6Yau9jaAcKqF0rNUk+hraPgNo0qf6yz6WZJUYgNTkaMyl9kgTcNCUPU9LsdM4WUBuZkhjvTysj4Dc9uShjmz1rSkI8gbSyAqlFUjaawWdXW39KgQzOdcjyJTEn3p9WSCDl1UoLxcC09wIpefG+tEICvHsUgn1xWrHx5OZFxFeHa0ISvC/tWIGUdxE5NrQxrqa2zNhXqTFE6lqlJOTHi4m2s0BscYC/M3zCdG4fk6dmcvRfwuJb6er/VJ1Wt4BYeL5V31opEEmQDAl96bqvwO99pzt/tl7+h6mlZFg+2fGx7DjXWVOFwhcuPX/h8O+nb6VA5D70Q474dS+2+b6X5q/yYd56WdPw61ATOPqXv9hrxsRVYx8x0xJtsklj1qslLr73nK38DrL3umPmu8R0ariP38i0DQEKZB1I1w93d3SUdWYnjgJZp3tbP9zd0VHWmZ04CiSbrouBfGe0kUYKZAOI02MLUCDr+e/uC6/1ZfJ3qx64/D1Mgfyl+PYg2LPei6T39X1LaO4TCuSxnNqpd9t6u5HCvC61PW1DoJVv0jeWUex0sJl9U9vEttZbaH0BR8dPgcSLc3PFW3XTk49Y3aSShZQQoEBKqDJnNwIUSDepZCElBCiQEqrM2Y0ABdJNKllICQEKpIQqc3YjQIF0k0oWUkKAAimhypzdCFAg3aSShZQQoEBKqDJnNwIUSDepZCElBCiQEqrM2Y0ABdJNKllICQEKpIQqc3YjQIF0k0oWUkKAAtlW9T+w5ttnoU1tXrGNVqEABfI4KWKnvCh871updrGJvQC11AWYN1+AAnls5zftkc0LRY68INfaFqBA1o10/XDxo14ktIoEKJD1ZLytH+boaAIUSF0Zl7rCIRoKpK57INQVDtFQIOv3wFl/LO5jPZymjkpT0W4ES4GsAwU7fHSR+PXUNhoCyQJqIz4jtil55ucDNOKaMXFt9fHr9NK21no9Ly0smL+s+DxLaqd9E9tKtVBq4hPm1ROuWfSSFEgcb4jrRq8EgSZM+R0kIaN03RS4bPb46hAi+53ejQI5PQXdBKAJK2nmv9ZRIAlZpetuAmG3mQpPRIEUBh5kerV1xn68cpLgP1poFEgLWao/xreEEI/+fikhtPuuFMi9CUfSBNS6S9oQeu8toDbh9QumZ/tp7wsz31MBtbPP8nF7zvs31XgHaSpdVQUrFs2lqogKBEOBFEAdZMrU4mjy35pRIIPczTsuU2wu/+jk++4bBdJ9inddoNpsU8aMTb57ZKzztCFqV/ZXra0tJ3mnLaqhC4vF6rZb/o/ON7TU76HyjxW/e/Dsu4DY04ttvs9t77kDaxhHgdSQhbpiEAvHi8Kb/PmZ/8M/WoX84eePpEDScyDzkOs+fYa6RrwtwtlzTV383kGBLO6OlYd+w+z1aroyfbeHuigOzw4Fcn+Pynzo1c/e9zOPcaSb4vB0USD/blqxhxTFP4+cR10VhwNQIF+/iFIYOeXwb0ywh14cvu+qjV4gatm8/o7RVWIPXEywa70feL1DLzXqN+liypNtFEf+7RZsqBdGt8XhNCO+g4it24uDlicQbFiXH6fWOEZ7B1FDoDjW7oTtY8G6XN8x/PEQbaR3ELWM8pEq/rYOc9dh3i3WaEYpELXFlyiOsIba6LGPOe7rmq77RpezT9gjFIga1R7FEWwefzX1Fv785AcClQioxfEZsU038caOezS3zyc3c/IUgeoE1CJ6dBMvj/sNfW1qD5bnUh77PGIbDYEmBNSijLnB/cb2prbF9F/r42NpCDQloBbt2s18e2yyfrF9b8f6cx9LQ6A5AbWI127oPY9JcyoEXFxgtC8KH4H6F2Dh0UmOjytAgXx9O0xxjFsDT1c+eoHwzvH09uDkyAVCcXD/bwqMWiAUx+atQYeWBMSC3eu/WGlLCydWBGIExDrtUSAaczH6INCiwGRBv1Ik2uKiiRmBWAGxjrkForEXoR8CLQuIBZ9aJNrygokdgVQBtQGxReJ9aQgMKaC26keFMtk5sY2GwEsCP18aXc9gWYQSFo95iAACCCCAAAIIIIAAAggggAACCCCAAAIIIIAAAggggAACCCCAAAIIIIAAAggggAACCCCAAAIIIIAAAggggAACCCCAAAIIIIAAAggggAACCCCAAAIIIIAAAggggAACCCCAAAIIIIAAAggggAACCCCAAAIIIIAAAggggAACCCCAAAIIIIAAAggggAACCCCAAAIIIIAAAggggAACCCCAAAIIIIAAAggggAACCCCAQLcC/wNCw9vovgXADwAAAABJRU5ErkJggg==;" parent="1" vertex="1">
          <mxGeometry x="561.5" y="766" width="47" height="47" as="geometry" />
        </mxCell>
        <mxCell id="ami44mtzP3b5byjjy8G6-62" value="" style="shape=image;verticalLabelPosition=bottom;labelBackgroundColor=default;verticalAlign=top;aspect=fixed;imageAspect=0;image=data:image/png,iVBORw0KGgoAAAANSUhEUgAAAMgAAADICAYAAACtWK6eAAAAAXNSR0IArs4c6QAAAERlWElmTU0AKgAAAAgAAYdpAAQAAAABAAAAGgAAAAAAA6ABAAMAAAABAAEAAKACAAQAAAABAAAAyKADAAQAAAABAAAAyAAAAACbWz2VAAAVQUlEQVR4Ae1dz48cxRXuNuECFw5wQCZij5hgHIEEOSRx7zk5AFej2EggFOUvQEjszCHyNadwcCSz0XIFcsh5Z5UcsCVIMAomp6wlnCjCkcgBX1C201/P1G5Pb1V1dfWrrlc9r6Td7q6uH6++rm9evfqZZeIEAUFAEBAEBAFBQBAQBAQBQUAQEAQEAUFAEBAEBAFBQBAQBAQBQUAQEAQEAUFAEBAEBAFBQBAQBAQBQUAQEAQEAUFAEAiIQB4wbUnahsCPXi3q10dZkeXlxVNBy8rf5PJscfyqzA+O79XNmer9x3snYZS/XHsjIATpDZlHBJBBEcFW8T2StkYBkRSBhDRWqEwvhSAmZHz9lWYoy506iTEJ4SJzkzQ392YuUTY5jBCE4us3ScGNEJ3ly+d1ECGLFikhiBYWB89YzSYH0fyDVGSRptgafEKQNTgcHkAMNJ+S0xQOZVsLUpFFtEomBFmrFJaHQMQonjt3nGnx/PL+YsPv+GXj5uDT242nLFt8cvK8aL1bC+j1sNlNMCFIV6V54dVZlq0M7q6wlveKCDtvvFKHUs+WKN6vQBJFIpCHhjSbSRQhiKkaDiQGCACNAG0Qkgwm8dv+TdLMrn3Qft3jebOaXkKQdtUY0JQCEcbQEG2RfZ7nv1uSxJ8sm0EUIYiqXZ7ESIkUqqjt6zCyTJsoQhDUFo/mlCIGh+ZTu8IPefYnyzSJstkE6ak1QAZOdsUQInTF9SPK9EjyQBdQk30PrVGW16vybbmUcVb1Pl1/583a4N56/DGXKEmHqX8Mqh+EfPUTevivey7lKbKzF/Ls7q2FS+AUwmyeBumpNUCMndeXXbMpfNBQMkKj9DPop6FNNosgIMdRue9SiaZqY7iU3RamH1HSJ8nmEMTREBdi2Ohx8s6ZKJg9fOP97ZOYad1thg3iSA5lZ2yCjTG0muKHBPaJwyj9VvbEs0V29/PdoXnGiD99DeJIjv1332Yx4h2jEgzN00mbJKpJpq1BHMiBX8J/fPSbTLSGP00ctUmSmmS6BHEgh2pS+VcNiakQmCpJptnEciSHdN+q6k173f7lr+22SULNrekRxIEcYm/QEkKX2lRIMi2CCDl0dTWa3xRIMh0bRMgRjQimjK/8/Kf1wi3LNJUt7lNTpqFBHEbIpVllqsbh/Ts1yZl8m+tGd2fCwzNCDh3TR4QcI3wDSxad+OP74UeOoUufIHXTyowsunLRBSkuLgIgidWpjfasgcZ/mbYN0mF3yEzc8SuULUespdn9459MQVjaI+kSZDltHes5tE7IoYUlqidmK3TM3yqy7184yL66dRhV0Ebm6TaxLCoZTSoZBGx8ZUa3+C7WJq/lu8YoRpq9WB1Nq/LGXgwsJc8eCOQvvmoJzWcdSaIaxLyRG5pW4vgjYDfazd937JKlZ4Mse60KHVBid+hQ4enXaY8wWdueVhNLmlY8a/sAqaxNrZvvR6+fiTaxTn8RaVqdxiQFH+t3W7YWohYjOkOdS2/RHtK0ckaRZUCrFok8DWUyGoTllxehnBCwGuyRu33TIIhoD6eKlmogjItYx0YiFux7EfOeZNZfHt7PvrzzbXYb18Nv18r41NbD2bmth7KXLk5/Z8a1gjs8YFf8RbUSkZtLo5v37HntZm+cbA8Q49of/pl9dPB1RYz72b1vvjv1reGHdwiDKRcgjLglAuj2xaE/p9eO5LsxtzLlT5BlT0ahq0iY/MZBNaPSX9091JJCJzf8hCinkcECKzVXC9/18N//2c5u7L13OuR4Pvx7sV64VOrgAIBW404XKYAftMGHi68Hpfxy8Zg0u/QIbud5vtC/GseXt5Fu6QeH9ojtKMiBMoBg0CjiTiGwc8pnZA/eBLGAwWG27lDN0Szeh5UmEscPAea9WPpJa9bR15EwhvagdOjxurp7hzJJp7TQqwbHtGetqIWL+I8vQZZjHxGhsWdNqT1UTu1uYeUf8qryRHk42kJlWRYx7ZAkm1ixm1dTtRdAEmrNSEDuqHYIX4Lk5UUduByaVxgInKpjSpJocPMlSJkV0VDZ8IyZkSRqPeBJEEv3buzmFbiDaSRTd5xIAjskFt48CWJAg8OouUG0SXpzIkksgJkSRN+9y2FwEB9KdY3G+mhj5suEJMWYZW7mxZQgTRH53T/15GZNMmRAEm2HzRg1gx9BLHu0crA/8FGeWg2ujfGBuOTBgCRRoOBHkCgw9M90E6eqRyRJ0f8L0cTgN5J+lGnB4Gagv1wterraWhA19JO8dXlrFO2kpuf7yAuSoBfvrctP+kQ3xoFMzfloaoRfLTK7Mvu8eG92fmFMINALfutBzlZnamenSYIFNVgvwMU9+siD9doFqlF1TPP48Q8fGaV4kP1ctVjrz59945VfvfDrzv3sJwTyAj+10Azpqj8lmFpkVmb5lQvFr/Lqr/hs8duFeh/6yo8gT5zH1IKtdsFBDm5aBL9uWOAzlCQx5kApktz777JStvHueqYgCaa1gBxIy9EVVbgCRBmLJPxskMRG0DELFhXc18Ugh5IVnQ1oKvnaU0NmIGPmMpprnm7nF7O/zTzj9orGjyAG8S9WKwi5Oh+SoFLGJEcTy6EkuTz/opcWheZQNkZTjp73o5CE35JbwxJbLK/l1sTSfVB8fN2OJipsTYxK63DsKsav+pCK69LJAHwGaA4F4/H1THa0HdJ4F4IcQ01/07ZNOJKiXeqhFbiruTaEgG1Z8Zxn+WJ39vS27h2FH79uXopSMUkjBUK0oVIrC31/5akJ0Jav/VxmZRGyCzgZGySF5lX746X67GNTxSxrmT2Ans8gjhdBLNNMgpReEjUikBpJjAUZ+IIXQQYWRqLTIpAKSdDMoi35SWpCkBMs5E6DQCok0YhO4sWLIIZ5WCQllUS8EdhkkvAiiOETioFuAGZE700lCS+CGHYy4bKScMT6yDIrxiSZhwKMD0GwUUNi87BCfRTO6TImSRDYeIyko3v3qNw3lbC8sWd6Jf4RERg66k4l+u9nPwhWj3mMpFvIwWGjOKoPObV0oE3w155SYysnFkURj7YHa16hHPEJ8uKl/appZXScZ/Eahd6wF32m1Lyc0a3EXM3DmoWEOy5BarvDPMgD7cGlBwu/kurswea2P9jhpE8Fof6Y6tdbJxt+3bk5YIVp/r5zvZrlCTlJUeUTrO2mMjBel7u3G+fQgByxdzFB5XNpEmAG69iHc7rKphZzcSPLEPsFmiPP/jcPOc1d1ds4BOkwyjmQw+cDjrXWw2fdBpfFWari4QqS42zHPi709Pa2LHHWpJ89f70SZKstDJ7RpLr+zpu6V6P5+ZADwmFtNTZCCHWCLSoU1nD7GLmI+yXRRgtUHwLr4kFc4IVNJCCjyYEY1eKo13Znz8xNYUL4j69BOppWsVcO+pKj/XFcVte143Q9Y2nrUActR71lz1CZmvGXRF4eL6F2sFzZeFEO9BxXg3SQA02rKz+Lt7UPFTnwwbFbCMW2OKryQDbbL6wK13WFlgul4brydnkPrQIS4w/3+IOrTpl6zSU+dZhxNciyS7fQFYKD3UHxC90uGz40XLPnqx2m69m2xr0rrul9CA1nyovCvyLIuHV1JfR4mXZoj9ij5ZTag6JChE6De1OrVf5FxY/tlt8ojyPOxdIfaYBSQnvEdptwKE4TYx9Dvxl/5PuDkfM7zm4cgtTa4zjPtRsOTSsIlFiFWcPQ94HCpvHNO5V44xAkM2uP2IOB+FCbWlFSOYy0al7NYhEqPEE6tEesgjfzTaWiNGWmuE+kWbmgKKtvGmEJ0mGYc9AeAE71t/uCmGq8IT1rI5Y5mv2BMoYliAVFDoa5RTx5xQeBRUxRAhOEt+0RE3jJ2w2Byv5YuIUMEyocQRKwPRSkmMqgBvSU3yZcuc3w1WA+1/iN6hWOIMx7rtooJ9Ieb4vt/aymwXsnMELEmL1XqnhhFkwtjXOVx9qVq+2BX1OKRTzNwqISunYAdPWkUcvWlJPpfXTtAVzCECQx7aEqCCo0ZUXs04TpWpVIOR8L5ewjm8KH0xU7ujflCbV4ip4gCWoPBbSqNBQkoW7CYIo6xWRK2FqqnKrcHK+65hVIgZ3csRfvUUvo6kg2+NRap9rlZNZ67f2Ye8c0RbSMfcSekGgSue0/dOJiqJmyGPHvuwKvWTaQA8dXd2mrZpxI9/MmQVbnERqXZ7dlxOKqikQHFEShXw9y9vx+W2A8w/bgsgGDTr6mHyoSJlf7TEEJRQ7Ip1bgYWVgj5Nh66KhTNBCan1Fs7zc7itybCuZ+pJjFW+rupKchkurQSzaI/ZKQQV436uLNonxywy54LqagzFk64txK/yx9rg8+2Kf4GiD+RBNMgpBoDlAkJSdqpDN+UvoGuaw7Y/qAWvKhqYUXALNqbVqUWmPuk56ao61tNTDkIM+aY10bD5dKrFOrlPYfFoZti9dPCkXh7vlIOdDtSjcZPPAZ444lORAeqsj2ha47+uINcglDT2WIkGLgCjYKTEVW6QvmFMLD61J2b0cGR+vphatBrEgsPj0doY/5RRh8MxlVq+SbdOv6Jxw2TAvJZyqni0v3U+rQSybMriAqUbZRcu4oBUmzNCu5DBS0aTqY4vQapA8n2elea/drmLOrn2wFqSpZYQ0a9AEeZgyOXwBo9UgkMLS1esrZDOe0jLSLGuiMvx+Q8jR2w6hHyi8e2uR3f18np29APIVwz/degrKlkFnoBj769j4Pm0IOQDPwWeL3y764BRuuvvNvVl28/08O4NR0arpVf/1Ec0ett0cs4eWtyYENogcJgis/rQ2iC6rj/cWlTf+4Gb1/7oZVt0tx02K2s/jH7SJaBEP4FZRhBzd2IUniE4GaJemq49DUM0x8zLdZhS5H4bAJpLDZ8pJHIK0v21ALdPOSp79zuVIHTfM8PUpAw+C6CRXWgbaxdB1LM0rHXB2v6GaA5MfKd3fD+8v2ukRTFBsJ1lNNykPTnk6ePAliIPwEqQfAkPJEWAlonZTaiyMOsrO7PcrnTk0tEd1nuHMHML8JlwvljlPeRMBAYbkAAraX3Usn8WoNxVMOM/QNy0hiC9yCcVjSg4rgqs15t4Vu5H4oMM+hSANJKd4y5wcCxvmq14nb5JAC/n0XDVlEoI00ZjYPXNyOKGNCr5qbjkTBTZHFS+n2Okkd5IyZiDLkdGpbAIRA74UyKFWD/bBB4upMHW93dMFUihbg4IYSibpxVJIEF9RQdVSWJX0WMtzUyCHwqTvdWiTqW9+QpC+iFnCo2LaFxotN1oI0F16LFVC5FgcC834RghC9HFcdj9RWWEnEvxREyUhcgCKA4UH56sQhODrXN2943XGodqyR20IMUSUxMgxpKijxpVerIFw+5JDZQuSII0hTsgxBD17XNEgdnysb9GsojgdF2kgLR9NwpEckAkO9hgcyoc5XOqIiVU5F/VL5v/4EwQzfV+4pIUx5noQVALVRNIK19NTpeV6XIJKfshevSFsIFMnBUiifkxWZS2qMixUObhe+ROEKXLtLlwKMZcVZ/mrS5GeLQ1qcvTppFjJtVONaexU973XidvKRf1ObBBPRNUvvmf0qNGoyQEbagAeIMosKiCWzIUgFnBMr/BrmaqjJgeRHcaWJEKQVGu6h9whyDFAc7RLsNM+NaodIMZzGgTJ+RtzMT5enzypyYG8CclRF2W1yXSfYgUPmwZBDDAcNPb6NQQJ4t08ZiBIBsSJhiBHiGYmJiBy0yJJE4S4Hjknp/rznSNEDBiCHChOqB8JblpECOJRefuOVXhkQRIlFDkgnBrTIBGUcSJpEKTMtRPbFp+cHKfAGOMoooUlx3KkPETB2us8QuTRJ800CNKnRCOEXZ7q9PAIOfXPAlM6cJCoz7SV/rmFicHJDkljJP1M1Yt1lGHUlY3DGYBXq+kTlK45X8kn3bEWZPnI1icO5YrAPvnqwqZBEJ3klV/zxCpDkGDeSotQtcVDNomCgbABCUsTa8BHxrnjVC6lJlHIk3OxtpwKU4p00iDIcu9ebXljahEIhPb+UEeRxlAZ+san3oJU5e+7RaiKT31NgyDUpSZMD7+muztP1+sd+iaLSraMuzzGuW/8mOHVOezUMoy9KUOX/OkQxDDdJNZoehtYNLdgR7g41dNE2URzyZcyjLLBKNOs0poTpzc4uaSN9MGlJ04AdgT+sJgK60Xao80YgZ9KTxOgo+7J46Y9UMbkCYLBwp3XURQ+bvnr+lBFFj4yhZAE5YTWpJi0SLlZNWVZ02liGUbTKcGQtPojAI3p2rQ0pQ5ycBr7aMqZDkEwWKhxsXuxNCJtnBdI4tMThy5dzuTAh6Q/BjpU9Xji2a3qmKAruuSL589lW4+7Gci6+OI3HIFHH3mw1iQ4nrs6nTW79813xkRXxHhtd/bM/K+Ldw+NARm8qIvDQA43EV64VOoC7r/7tpx2qwMmsl97zciqg0J7qlRkUY3Zp2Wko6u3zIp2adDVK+cVtlGJ/4ymV+ouHRvEgrRMe7eAI68GIZAWQaQna9DHlsj9EUiriWWY9h6yJ0uXthq9v/jcOWna9a9zScVIiyCe25C2K7mq4PhSuuZZO3zXF5298Uo1WPlKVzB5nyACafViAeAXL+3rDHW8UoZ63wqOuEOdkMQZQenFcoaKOGAMYqgizK59UN+KJlGITOOalpEOzPOc3YxPVRVAkpgkVXLIlQ6B9AgCO8Qw9Z0OFv+U5itN4p+CxOSEQHoEAXqxtYiFoNAgokU4VfFhsqRnpKvy4vz0stwxGewqmPbaruDt8ZX2xEjdkl/L+e3oLMD0F3FaBJIy0tMliMK+rqhZoR7rq0sFX4vg+WDpUZP5YUZMkyJIWuMgOsyXv+4L3avgfmjqlWURPB/JIBoCadog0eBqZWzpMBBjvYVVoo9CkKEfztBhIIb6UGB5xBeCBPwOQpKA4I6UtBBkKNCWZlZzztfQbCR+HASEIAFx102EDJidJB0AASEIBahih1CgyDINIUjgzyJ2SGCAAycvBKEAWDfSTpGupBEdASEI1SdoT1+hSlfSiYqAECQw/NKTFRjgwMkLQQIDLD1ZgQEOnLwQhArg9oxgqnQlnagIpD9ZMSp8jcxNO6785faiCsV2FWSjBHKrQUAIogGF1KvSLHnO69w90vJNPLF0Nq/m/iG+unWYnb2A9TXFiajVdPibe7OTZ7kTBASBLMMiLvyJEwQEAUFAEBAEBAFBQBAQBAQBQUAQEAQEAUFAEBAEBAFBQBAQBAQBQUAQEAQEAUFAEBAEBAFBQBAQBAQBQUAQEAQEgez/F4S5qkDsY2kAAAAASUVORK5CYII=;" parent="1" vertex="1">
          <mxGeometry x="690" y="770" width="38" height="38" as="geometry" />
        </mxCell>
        <mxCell id="ami44mtzP3b5byjjy8G6-63" value="" style="shape=image;verticalLabelPosition=bottom;labelBackgroundColor=default;verticalAlign=top;aspect=fixed;imageAspect=0;image=data:image/png,iVBORw0KGgoAAAANSUhEUgAAAMgAAADICAYAAACtWK6eAAAAAXNSR0IArs4c6QAAAERlWElmTU0AKgAAAAgAAYdpAAQAAAABAAAAGgAAAAAAA6ABAAMAAAABAAEAAKACAAQAAAABAAAAyKADAAQAAAABAAAAyAAAAACbWz2VAAAQIUlEQVR4Ae1cC5akOA6c3jf3Ku3JSn0yqJP1RORADU2TgGUDNoTecxnb+oTCUpI11bs//pIcyYANzseZy49hbzrZdDE89wt7X7M96nBIDmLgx0F+n+bWhoQ5jw0w7g1Hh0/9EGFsonE9zsOxphQG1CApbP2ra4PJJ+bxediqdvo5IOsxc0h2MqAG2UeUQY0NQbHXz7Z/qGHavr/L0RsQdMP4hfnuw5Ejh0QMvGXAcPKkpnjX9A4eyIVEDLwYMPxkY7wrmKfukxPHkDyQAUPOaor9HwoOvjgkN2fAkZ8aY39jLL09yaHkZgw48lm6bO3FeSGnksYZcOBXExzLATmWNMaAA68a41wOyPnt5G5/KHTc0GcDt9QvYPxa2OPWx8K+LezVssU/QnotYHJx3KVBDESwMTjXIP0AgkU/Po/zcFRkMnjhoIyNZK/VtT/YJP0wrkXy8OiG/DuMXxcOxncMGwamy8WAwIdxJTfEILmIAUfcKy6fDcFhGK2IAagP4wrOGFtyEgOGOCzQMy+6tYbYugpy6BjiECTcSRzJnHWpd2uKd3VATjnO4pWxJIUZMPhjwR59iU9pinfX4zjgOJpnxpAUYsDh5+gLe3pjLF3VGbwzhiSDAYftkc1B/5J1BhzHuoN1jk4/NUTkp/pRF+PwLUljwKF+1H3wrg1DsoMBg85RF+E74ktlnQFyqPtZ5+iw06PIp19JWQYc7o5oFPqVLDDg2CtNeAefhiE5jgGH69L3Rp+SCQOO55IkqzEm5J7wWPr+WAv0KQEDLOaSzeFi9TIGyH3Ju2RtPFpKNgd92aPZrCN53oHuNfMuSpPomXhkXp4B3smvgsPg6xFiyFLEPeKqi/+zFdbO7aVUc/A1LmmDAQfMUvfeRsZBlCzqEkR5ML7MrmOAd1bi7llDt5RSzWG3ZOcZSTnSVJMs3HUJYthgtuBbW20xwDtUk0zuzAsQwuaQ3IsB3mluozRfFy4S7lXVhbMp0SSssSbFgfrxnxBN3ty5oEvUCX00JQa0uc3hTWUssDkM8K5z68VyAJxtm5usnw1Y8S5ngHeeWzeXJ7EHQG6itJc8kwFH2jlN0tVO2+0TrP0CboCPRZ7TJKzBKsWAKiex6ru/StbvCSq3SViL1UluUtUlJECXMpBbT3Yp+llwx/pXxjDYSsTAnIGcJqFtFeJAoeao4ipuB8LuUFs5zeG3u1IlVJoB1khOjZXGk+QvBzxtJWJgDwMOpWiTdHsCHKUTBU07iRhIYYCFHq03SwlUStfhKAqYthIxkMKAQTlab2yuU8URLQqWthIxEGHAYNRE3TUBMnIDsqmeAQfCaP3ZGdnlADwDn2Lcn4Fog3RnUBMF52eAU4xHMGDIMlqHtD1MHJ4jwE7p3MOyluMaGWBNVVeLEUC08RoZFqamGTCgj9YjbYuLw2MEEO0kYuAIBhxOIzXZHQEmAoQ2EjFwJAMs9khtWklQHgRBO4kYOJIBg/NIg7CxisnlAIplIkd3ZIDFHqlRK0GGB4PTTiIGzmDAECTSIGysbIkEpo1EDJzJAIs9UqtZGD0YlHYSMXAmA4ZgkQahXVgiAWkjEQNXMNAhaGrN0iYkBqvUYNR3DIkYuIIBQ9BIzdIuWRwWkWDJgWQgBgoy0MFXat3SJllSg1Dfk6PIQAyUZcDgLlK7SSj8jCBJiKQsBvYzEGkQW3L/v6XN4N7PoJ3MxEBpBvqAw88Um0gHekoA6YqBAxkw+I7UMO02xaERcb7pWApi4EQGOsRKrWOb4yv1FUtfr+bMan01A18BAJ97bFK7jvq2x7F0xMCJDBhiRWp5FWLEabfqUYdi4DoGWJupTWJTuPOvWL8dThVXniOvshV3OhIDxRiIfPW3teiRjlvzpzMxcCUDhuCpbxD2wFtJdUZ9iRiomQEWfGpdf+cz/Ypl37v7HyKvsP3epSkGrmHAxrC5DTL60SwGamUg8iH+OSYzbZCPcTNh9gRdqYqBphlI/Z5GfYkYaIGBDiBT6/uV1/gGsUCWkVdXIIxMxMAlDBij5jTIJagVVAwEGAh/mI8NEoip/3FUhDTZNMOAEWlOgzSTqYA+noE+wMAHbcYGeS0SnPQJulIVAzUw0EdAjA1iicZfifpSFwOtMWAEPDZIa+CFVwykMhD5UDc2iKVGkr4YaJCBPoI52iChYBGAshEDVzIQ/YrVXwlascVAgIE+YGN/B4xqNrEZuH62rnlpM3D9bF3z0mbg+tm66WXqv1Ohfk1iALOWg+Oco0YxgNrCTp0axQBqC3ttuH8BUMpwJrCW5JIz6tciDiBLGJf2qFuTOMAs4Vzao25N0gHMEs6lPa8IeApu5kL9ZhvEgX3pQtb2Xgkz6YvFEX8N59IZbWoQcriEb23PawAODKnYqR8zujhhR/y1C1k7eyV9If4c7LS9UhzB17hdO6Pt1cK7X8M4P6N+kw0yTyR1bUz8IknFOte3i3A74s6xpK4vgv4dtkvMoYv8Z97IXyS/ERZ48AI+Pgv4iLhoGXsJzkrkH+E9yyb1U+DqJFM/Bd7lZ1msxYzfYUndj0WPWxlMUzEu6XdxCEUsPTWPyBukCNIMJ5Zhe6VpSdwlfe3hpFS8Un72YC6i02KDFEkcTqyUI/lJYqAp3ltrkKbITSqbNGXxkMZXWDvSIB/haPmGfb6LW3g4m4eS8Ur6Ovwy2SBNAS6I9+y8S8Yr6QuUnib9aZHKBOojb5AyoeNewv8PFbOQ/Wx9xrJEzFL5p+RL3CWwX/0nguRvPy02SImLuqLIUGN/lYhbIn9iSZUS2D016NX6LTYIOcu5LNo6nVwgPWLmYqePK6RHUI6o5OQdjVnEzuFl6Y86a3tFAmc6ieDuMmOWMo9gp00NQg7XamPpzGsADgyp2Kn/+jRdSmptr5J8k7C/kq0FeCLvXhFuQiGetfqYnlG3Fpni2vPcEbhj7FGe6tCuJnGAmeKbPnc4M4xaxQFsinf6XDN24m4N+5TbPc/+A0kaBi8iRf4P5T7F4CRdm8XpZ+ualzYD18/WNS9tBq6frWtZsilS5OffKdoN6PYNYHwHUdjfMVNm33Lc7HndTHVS3zg52GQrBkow4HAyreE9z9bqf+YtQZh8iIEtBr7/kt5vaepcDDyRgegbxJ5IlnJumoGPRPT9VN+w2POdbKpDG4kYaIWBae3ueXYmFn2DtEKKcIoBMmBRGnIa5DMaVHZi4GQGrES8Pa+duU6JuPIhBo5mwBFgXrtb6z8wdQEn9ocXbYiB+hjYaoal81cW069Yzf5z5PruQ4gqYsACWL57YdogAT9/fUaMZCMGTmTAcmJNG6QPOMoKHognEzFwBgP9uyD6PeQdM9pvlYGl3y+29r5znb5BuPn93etbY/vBtlWkIQYuYcADUfupzbxBpmd7nz/2KkpPDDTAwNcWRn3N2mJI560wsPVVaunctpKLNAhtJGKgJgYcYJYaYGvvtxyWvmLp95DfKNLiQQzsrv2tLls6twcRqVTrZ2CpRrf2dtdwh/y3nM3PaSMRAzUw4AAxr8896z+wL33FotLuV83Eo02e9SgGWmMgueb5RtjTdVMdb40V4b0dA6zBaU3ufbYlJt69Qaj7tWSwsfe5ca5jMVArA30qMIPB3u6b6tFOIgauYmBai3ufPQq2g+HeIKMebSRi4AoGHEHHOkyZw1gtGJB2EjFwNgMpTTHq+hrItd9BaNevGa+cfa6c6UgMHMGAH+F0j08GHrstZbY9zqUjBgoxkFKbo64Xih1qkK5UcPkRAxsMOM7Hok+ZaVdEWOwpgUddKxJdTsTAewYMR2O9pc7vvSaeVAEiEbPUn8GAI83UxqA+7YpKB29VACmalZy1zIADfKQmaVNcDB6jYGgrEQOlGYjWo5cGMvrr8BABRTuJGCjJgMNZpBZpc5gYPEdB0VYiBkowYHASrUMvAWDNBwNEwa351ZkY2MtAB8VIDfreALl6EXC0YWISMZDDgMM4Wn+WEzjFloGiID0lkHTFwIQBx3Mzdce3QRSswVYiBlIZiNYb7U4XQ8Qo4O50tArYOgOOBKL1RttLhIXeHOhLmFLQHAYcxtE6Y41eJobIUeC0o71EDKwx4Dhsusas9QSAX1InAwZYOc3htaTVZSRCW4kYWGLgFs0xJpaTjJpkZFHzyABrIqemRj/VzJaZkFeTiYBczQBrIac5aF+lOFDdMrEq2b4nqNvXUO6r0e5578pqBwMOnZwPWNpWLwaEOUmywSTPY8CRck7d0NYwmhAHypxkaS95DgOOVHPqhbb00ZQ40OYkbU1lK7BRBhyGOXXSZHOMZOUk341ONN+WgZz6GJuKPpoWFvqYTOpsTWcu8GsM5NTFWEe+FqClszGh1JkkSu7FgCEd3mtqLcz1b1UbJGWe4N41bSX3YMCRxt5739Kze1DyXxaOx62kl87tPxd6apgBB/al+43sWcM8rELvAiTRRtI2Aw74kUZYsrG2qdhGv5T01t7tSdmmrUkN3luHsXW/e8/p7/YSIcxuz8r9EnSktLfwt/RYM4bxCDFkuUXI/Jw2kjYYMMBkQc/vMLqmr8eIIdMIebST1M+AA2K0EZbsHtMcBuIijTGSRuIl9TJggJZzv+M9T2f6u7UYsnOMadLRZ/qR1MkACzl6r+/svM5U81EZXHCUJg0uJZUx4MDzrsBz9un3NmLIhIMNUbopRpIdviX1MGCActRd03fTYkDPcRRBY1NMZ0c8yfUMGCAcde/0S//NigP5UeRMm2H+zLiSaxkwhD/y7um7WTEgP5KceUPM180SdwPgjhzm91F6zRhNS2lCUvx508y1Cd4Au8NIuaeILmMwVtPiQB9JPtfmFuQ1dPMGrBzkPffu9tg74txC9iRbWqe7BXNtJGGASb5L3+E7f4zFmLcQQxbvEj1i/1bkVVoBvFMOcn3EHa75dMRsUv6uBPUXcNiApR9mTXkM2GD+iXl8HrZOm3pE+onBuUn58Qa1YZ+fNFdKj+BsnFF6PHBI/mTAhi3OHxicr5QewZtujJG8dw3Cc74ya5V+ADZvIG6PZ4PKbSabZMJnNgLFXj/r+cHG8Hrg5CFZaxAm+Znn/lLrfhJ92kjcnp5Nn3l2ttgk4Pg8Fj+Pxj0+1yy3aoyR6LUGoU6HYXx4kPQZuU4bcVrkc5c232h43QM7m4PzI8WR9S8NcTCrgUd8eG69QcDJS3yYP4dZ03MZ4NvCn5v+euaGY8fQG+VZHDzibYG6LioObxxqlvtyoMZAgZcQhxMONUv7HKgpUMhHisG5Y5BoNUwbHKgpUKxLsveX9CXbvXs+KH5gtuFZ0/UM9IDAX7gp/eunfvzBwBkN8kdQbPiwqaZZYueYvR5u1RCJ3F7VIEswDZscFDYOxV4/9SOVgX4wUEOkMjfTr6lBZtB+WxpWHKOogf5loh8I+cI8Po/zcKQph4FWGmQrRxsUxpnLsYn4bPzRmPQTvGwASv/6+d88LDUdxcBdGiSFHxuUx3m0nTbUuDed5/rTMz73843JeizwydbrsZ9vYL20t6CmrTMY+AeAsUbFW2gLEwAAAABJRU5ErkJggg==;" parent="1" vertex="1">
          <mxGeometry x="606.41" y="873" width="36" height="36" as="geometry" />
        </mxCell>
        <mxCell id="ami44mtzP3b5byjjy8G6-64" value="&lt;font style=&quot;font-size: 16px;&quot;&gt;用户&lt;/font&gt;" style="text;html=1;align=center;verticalAlign=middle;whiteSpace=wrap;rounded=0;" parent="1" vertex="1">
          <mxGeometry x="518.63" y="322" width="60" height="30" as="geometry" />
        </mxCell>
        <mxCell id="ami44mtzP3b5byjjy8G6-95" style="edgeStyle=orthogonalEdgeStyle;rounded=0;orthogonalLoop=1;jettySize=auto;html=1;exitX=0;exitY=1;exitDx=0;exitDy=0;entryX=0.5;entryY=0;entryDx=0;entryDy=0;strokeColor=#FFB570;strokeWidth=2;" parent="1" source="ami44mtzP3b5byjjy8G6-65" target="ami44mtzP3b5byjjy8G6-81" edge="1">
          <mxGeometry relative="1" as="geometry" />
        </mxCell>
        <mxCell id="ami44mtzP3b5byjjy8G6-65" value="&lt;font style=&quot;font-size: 16px;&quot;&gt;提问&lt;/font&gt;" style="text;html=1;align=center;verticalAlign=middle;whiteSpace=wrap;rounded=0;" parent="1" vertex="1">
          <mxGeometry x="572" y="323" width="60" height="30" as="geometry" />
        </mxCell>
        <mxCell id="ami44mtzP3b5byjjy8G6-66" value="&lt;font style=&quot;font-size: 20px;&quot;&gt;检索&lt;/font&gt;" style="text;html=1;align=center;verticalAlign=middle;whiteSpace=wrap;rounded=0;" parent="1" vertex="1">
          <mxGeometry x="633.5" y="549.06" width="82" height="38" as="geometry" />
        </mxCell>
        <mxCell id="ami44mtzP3b5byjjy8G6-67" value="" style="shape=image;verticalLabelPosition=bottom;labelBackgroundColor=default;verticalAlign=top;aspect=fixed;imageAspect=0;image=data:image/png,iVBORw0KGgoAAAANSUhEUgAAAMgAAADICAYAAACtWK6eAAAAAXNSR0IArs4c6QAAAERlWElmTU0AKgAAAAgAAYdpAAQAAAABAAAAGgAAAAAAA6ABAAMAAAABAAEAAKACAAQAAAABAAAAyKADAAQAAAABAAAAyAAAAACbWz2VAAAL0klEQVR4Ae2dDVLjPAyGt8zeC7jIwk1Kb0K5CHAx+lmd5MM1LZETx5biZ2d2areOLT/SW/8lZfen8L9///6dCldJdUoCu93u43Q6fb69vb0oL/lR7Pn5+SHUsZcPwutDiTp/NOLojV1pWxFIaaKz6zvkCiX47iW0dhZH2mqvQrlLQZDfDIG9jAba3gxlr4pD6pDRJLzsBxHJW138QyAbdvM4VdJ08evr60FTLpTpSiQIRBkVHRS7OXpc6fv+6enpPWeEulKHi7cQiAs3zTNymBbNu3jiKqk7jDrvW59yIZCJQPD8sSysK9i/6SkXAqkQQa2aCN/yn5Xa3qxIEEilCGrQTPY270IbNykSBLIwKqxdLtOqu7u7x9wzkEL9OC/eC9Vlopq/rawIDix+SNmqL7T7TUAW77LDFYR6eH19/fj+xGeKEcSn30xbPe5wbWEbGIGYDjXfxm1hGxiB+I5BD9a7XrwjEA8h5t9GtyJBIP6Dr3YPDjMbdCkSBDLT271eNmwfdyMSBNJrpC/ot4hEzlpmVuHqrASBzPRy75fJGcdckYxnJR4YIhAPXjJqo4hEDnzn3BQpIpGnT62flSAQo8Hnyazj8SjTrVnrEjkrsSwSBOIpEg3bumTxbvlAEYEYDjpvpi0RSeiryW1gBOItCo3buzWRIBDjAefRvC2JBIF4jEAHNm9FJAjEQbB5NVFEMvesJPTZxJoEgXiNPid2LzlQtCASBOIk0DybueRAUUQiTyi26j8CaUW+w3blQHHuqXsrkSCQDgO1ZZfnnrq3ujUFgbSMlk7bXrLDVfvWFATSaZC27rYXkSCQ1pHScftLRVLjd4ERSMcBaqHrS0QS7F/9rASBWIiSzm2wLBIE0nlwWum+iMTiqTsCsRIh2PFn6an7Gg9eIRAC0xSBJSIJZyU5fyVL1W8EosJEoZoEFt6aUtTUZr/uXrQXVFaNgPzQQq3GwoiQ1ZSctmddoCjMCKKARJF+CSCQfn1PzxUEEIgCEkX6JYBA+vU9PVcQQCAKSBTplwAC6df39FxBAIEoIFGkXwIIpF/f03MFAQSigESRfglwkt6v7y96Hu6m3V28YSxT8wQ/7jojSEyDNAQSAggkAUIWAjEBBBLTIA2BhAACSYCQhUBMAIHENEhDICGAQBIgZCEQE0AgMQ3SEEgIIJAECFkIxAQQSEyDNAQSAggkAUIWAjEBBBLTIA2BhAACSYCQhUBMAIHENEhDICGAQBIgZCEQE0AgMQ3SEEgIIJAECFkIxAQQSEyDNAQSAggkAUIWAjEBBBLTIA2BhAACSYCQhUBMAIHENEhDICGAQBIgZCEQE0AgMQ3SEEgIIJAECFkIxAQQSEyDNAQSAggkAUIWAjEBBBLTIA2BhAACSYCQhUBMAIHENEhDICGAQBIgZCEQE0AgMQ3SEEgIIJAECFkIxAQQSEyDNAQSAggkAUIWAjEBBBLTIA2BhAACSYCQhUBMAIHENEhDICGAQBIgZCEQE0AgMQ3SEEgI7Fr9/enEDrIQMEmAEcSkWzDKCgEEYsUT2GGSAAIx6RaMskIAgVjxBHaYJIBATLoFo6wQQCBWPIEdJgkgEJNuwSgrBBCIFU9gh0kCCMSkWzDKCgEEYsUT2GGSAAIx6RaMskIAgVjxBHaYJPC3lVW73e7jeDw+rtH+8/Pzw1jv19fXOR3auz+dTv+/P35e6vXt7W23tC6xe7RX6hKb5XVNu6X+a//u7u4eX19fP6591uK9VjfVNhPImpATx144OQrC/Zo2zKl7sPvC3rGeECAvQ9qc3aONW3zdpEB+c1QUhC9D0LkIuDBCvQz9cmX3b77w8FnXaxAJumFqdPDgrNHG2G6Zqo7v81qeQNcCGXEO386uRCK2i93DOs6d7SN7668IZPDQ+K3s8RvZq8Cti0PsQyCJl4JAXH4bi0hk5ynpDtmFBBBIAlAW8V4DTWwPQgkaZ12SuHV21vwu1rAt+57TQwmQcHbwKdeEYP8Ydq7UVUj5sMMlI0nRHa6pvsSBLfbPsV06Geo51Do7aXU+oXbmwoKbHEGG4JDg3oeDt3dx4rClq8YlU5Y4YNUXLigodo//l9guAvc6Ci7At8qlmxTIDVL7XJHIN/GNumq/LbZniVxEUlvgtaHUaK8ngQjP/dPTk3q6ljs1q+CwLPtlCxiRLPNKbwI539eUM5JYCzCZguWIPNhvZRRcFqmNru5OIAPnvSyYNcwtBliOSJhqabx8u0yvApGRRLVDZXCadfamiMSzyG+HpK1PuhWILTfMs0Z26DRXWhW5xvbWZboViHwDa+FbW4fEdmeMIh/xdaR1BLoViODRBpcOZZtS2qmixbVUG2J5rXYtkDxUNktr1yIs1uf5D4HM42bqqvgxXVOGbcCYrgWiXbzmrFdaxESYPt1r2mWapaF0WaZbgVheeF+6aDpnXcDTPbBboluBhKA63+075RovC3kvdk7xtvZ5twIZnsKb9MeW5vfaKeUklI4K9CoQ9f1J2vl9RzHTVVfNPzC1gjcO2tFD2t7a/F7WXiX7JE8wruCjc5Vyi/9adWvr7UYgEhi5v+SYc9evFjjlfBHYpEDGHSpZiMtjq+KSmfNv1Q2NFlw+rJXOfbVgz1ZsMC+QIbBXG8ZvOZLR4xaZvt7vdZH+q5cHcbgZPX7tDB8uIoBAEnyIIwHSeRaBRAHgWRzjWivqDskCBMyvQQr0cbIKOYUOC/p9ye3PyUYbFeihjyXRdi2QURhbOi0vGRyausKo2/ysQmPn3DLdCWS8Z0lGjC0JQ7ONLX0PfZ4bK11e50IgY1DP9ZAIQW4ZkekFATKXYp/XmRfI8K33vtQ9QRxLqzB7/XgwOmXglkbMqb6W+pxdrFIkG9YTxK+6db+hiW6bRiBuXfdtuHaLV6aZ31eR0hBAIBpKxstoFujSBVmDGe+KOfMQiDmXZBukerZlOATNrrz3CxCI8wjIeLZl77yrTcxHIE2wF2uU0aMYyusVIZDrXDy8m/VkpIcOWbQRgVj0yoRNcu6RMbWS2pheTTC99TECuUXG6PsijpxHh3P+2I7RLjc1C4E0xZ/d+CFHHLJzxdZuNuOLCxDIBQ6bGRk15K/W5kyrPD/bYskL5u/FsgSrli0iCGkrvB60h4BXbGPdcQVK7lsIJJfYgvK1foCCQ8EFTkouRSAJEM9ZufM5rDn2rDvKeRGBlGPZtKZSjwU07YTBxlmkG3RKrkkypQrPerznXkf5aQKMINOMzJZgSrW+axDI+oyLtzAKgycEi6P9USEC+YHE5hujKGQBznP19XyEQOqxnmxJRDAWktEhnIPcx/kxzWs9AruwwDvVa46WIOCLALtYvvyFtZUJIJDKwGnOFwEE4stfWFuZAAKpDJzmfBFAIL78hbWVCSCQysBpzhcBBOLLX1hbmQACqQyc5nwRQCC+/IW1lQkgkMrAac4XAQTiy19YW5kAAqkMnOZ8EUAgvvyFtZUJIJDKwGnOF4FdaXO1t8+HH0Er3nbpvlCfHQKt4qr4CDL+6NkU2vjhoKmyfA6BVgSKC6RVR2gXAmsQQCBrUKXOzRAoLpDwowKfGjqhHL8dqwFFmaYEigtE+yeJ+XnMpn6ncSWB4gLJ+TVy+UVApZ0Ug0ATAsUFIr3Q7mSFont2s5r4nUaVBNYSiOqvr4qNrEWUnqJYEwKrCCSnJ7IWYaqVQ4yyNQmsIhBZh2RMs6S/e0RS0+20pSWwikCk8SAQ9TRrMBaRaL1GuWoEVhPIsJuFSKq5kobWILCaQMTYnL/KGnVORpITU66ICMlmBGr8uruMInNOzUUoe1nLhIX853gAmXPO0owqDW+GwK5GT4bRYI5IaphHGxsiUPoxilWnWCP3YaqVux4ZL+cVAs0IVBGI9E5Ekrn12wwKDUNgJFBNINLg8Xh8DC+MJCN9Xs0TqCoQocF0y3xMYGBEoLpApG1EEnmApGkCVXaxfiPADtdvdPgsl0D48i0a00Ury+1MXB6hxDRIzyWwWYGMQAahSJZzkxEKr2oCmxdITCISi9z8eC+f8ahuTIh0SqC0QP4DAThuQfWnphUAAAAASUVORK5CYII=;" parent="1" vertex="1">
          <mxGeometry x="716" y="292" width="28" height="28" as="geometry" />
        </mxCell>
        <mxCell id="ami44mtzP3b5byjjy8G6-68" value="" style="shape=image;verticalLabelPosition=bottom;labelBackgroundColor=default;verticalAlign=top;aspect=fixed;imageAspect=0;image=data:image/png,iVBORw0KGgoAAAANSUhEUgAAAMgAAADICAYAAACtWK6eAAAAAXNSR0IArs4c6QAAAERlWElmTU0AKgAAAAgAAYdpAAQAAAABAAAAGgAAAAAAA6ABAAMAAAABAAEAAKACAAQAAAABAAAAyKADAAQAAAABAAAAyAAAAACbWz2VAAAL3klEQVR4Ae2dbXaWPBCGW+u+rJvR4ypsV9FTN2NdWO2bVPIeoJkhhAkZ4PIPD5CPyTVzk0xUuLnhDwQgAAEIQAACEIAABCAAAQhAAAIQgAAEIAABCEAAAhCAAAQgAAEIQAACEIAABCAAAQhAAAIQgAAEIAABCEAAAhCAAAQgAAEIQAAC5ydw22uIT09P9736pl87Aj9+/Hixa81fS7sJJAri7u7uZ0Tw9vZ27w8FFlUSePz+/ftDZV331ZoLJAkDUbiPhS0GnlYkTQXy/Pz8EKi/zxpb6FP3EAROKZJmAkEchwhqayNPJ5ImAkEc1nF3qPZOJRJzgSCOQwVzK2NPI5LPrQhJ7d7e3r68vr4+xvtn3yKUGBztesVD72eoc3OG3S1TgRSAfPz27dvD0QIEe6sInEIkn6qGXlfpNNNu3fAvWSuK5OHII7cWiLSliziOHCWC7XG5/Pfv36/C7XT50CKxFkiCwvEiBGIeeWaRmAlE+7dVAeDLReLlksM8s0jMBKJFBrtVGp1z3DurSHYRyDlCgFEsETijSBDIkte5v4rA2USCQFa5n8IlBM4kEgRS4nHKrCZwFpEgkNWup0IpgTOIBIGUeptyVQSOLhIEUuV2Kq0hcGSRIJA1nqZsNYGjigSBVLucimsJHFEkCGStlym/icDRRIJANrmbyjUEjiQSBFLjYepsJnAUkSCQza6mgVoCRxAJAqn1LvVMCHgXCQIxcTONbCHgWSQIZItnqWtGwKtIEIiZi2loKwGPIkEgW71KfVMC3kSCQEzdS2MWBDyJBIFYeJQ2zAl4EQkCMXctDVoR8CASBGLlTdppQqC3SBBIE7deo9H41TDtfWhWFHqKBIFYefGi7aTvTrYefi+RmL7dvTUk2vdHIM4i4QXVb/E9vTtZ97LwvcufYVZ7iYKysAeBWFA8eRvx1bGfPn2SXkz+PvqFoD0sIZZYh3XdfoZbPY33s9iuJwRix/LsLb1/Fezsg5yPD4HMiXCeJRA/p7ZjnpG1ocdFBNKD+kH7DJ/Pix/LudRMQpJ+0GDtZfbwYc6H+PcfIXG/72XH0K+6cWBhGwKxoHjBNobE/aXn0MP2cnOBsMTq6WH6dk8Agbh3EQb2JIBAetKnb/cEEIh7F2FgTwIIpCd9+nZPAIG4dxEG9iSAQHrSp2/3BBCIexdhYE8CCKQnffp2TwCBuHcRBvYkgEB60qdv9wQQiHsXYWBPAgikJ336dk8Agbh3EQb2JIBAetKnb/cEEIh7F2FgTwIIpCd9+nZPAIG4dxEG9iSAQHrSp2/3BPg/6cFFSy9gbvniNK99txyze1WMDEQgA4zwho7fIy7//xzeBfXy/wXDH+GlAw+hOfXFA6HM4/AmEcOe/zUljTneDcL9ikhublhiLYRdy3fOBvF9Wej+pqTMUhs19xHHP2oIJHBYCoalZVBNAMY6JeIrKVPT/zB7SVUv9XI4CUK8jkAGOtprNVu8IG0hQCc+ayXQSSecZAkgkAHL6+ur+NTstcxJHmv0kRox92mV86TxHOmIQAq81WiZIwZogUkU2YkAAhlAxzxEW2b1XOZEgVr2v7C8E2fSnWLSVTcIpIM7lAB91ETawdTLd4lARiGg5SGN8oBR7/pP4/7F5R35x9QPCGTEY2m7d1R0689sgMbglETaKA+ajIPZa4Lj/QSBzJhIQWKVB0jLq9SvJlKLPETqP2IIY/wzw3H5UwTiJATGwZnEMjfNeJk1b/4mfs32w8WLX0AgswCQljixmFGAZpdXYzPGYhlft/gdxPdFakebvaQ6Z7+OQGYe7hUk4+RYepJbLPNiG7Mhp1O2dxOJ0RGBjGCkn9ISRwmuVFU9Kuv/SXC2EqnSv2r3lW8ikIz3tWWWRaKc6fLDJUmkRsu8D/2NZ7APNy98AYGsdP7Gf7iYzT9ySypJpFtmMSn/kMS4Es0piyOQjFu1JY4UZJlmJpe0mUfrb9LIcKK1lSufrkniCtfZ3k2QZkcEMgOSTqWnqhRkqZ50VGaeSf6R6kfRSDbULLPIPxLZdUcEIvCSljixeM0TvHbmEcwzvUz+IeNEIDIb0zvSzKMFpyTS2NZakUoClWYp08EfuDEEIjjPcokjLW+WgnNtbiIM5f2yJNBwnfxDAYdAFDjSLSnYpPLS9ZLglES0Jg/RZpvcDppk7xWvIxDF69ISJ1bRgi7TZPH27ryuZMMakSobBIsvrJjbc7VzBKJ43GKJowlpa/ta2+NhSflHKJPdQRvXvfpvBLIQAVuXOMrTuyg4NRGVLrPWzDYLOC53G4E0drny9C7uWRJpSQPaLKPtoJW0fYUyCGTBy1tzAOnpvSY4NRs0AcShSTPYFtEtIDvVbQSy4E5tibMUnLXbu3OTNBvmZefn0gxWsoM2b+uK5wikwOvS07Y0B5h3UROctTZIMxjbu3Ov5M8RSJ7L5GpNQA8NZLd3J403PNFmuC2zUkOT3TWNQApcIj1tpadzbFILzjX5RzKvJg+R8o/QZtEOWur7ykcEUuB97WkrCcE6ODUbpCFI+YdUnusfCSCQj0yyV6QcQBJCi+CUbJByIWmGk2bE7MAvfhGBFAaAtMSRhNAiOCUbckOQZrZYtmY2yvVxhWsIZKOXc0KQtndjVy2CM9owF4Q0swUTyD9W+ByBFMKKgS0tcebBqTS5KTg1G5Q+ubWBAALZAE+puvv2biYPydpQs4OmjPP0txDIChdLOYCynJm0bhGckg3jjqQZTZoBx3X5PSWAQKY8qs7GibqUf1gFp5TDjHMhSbChzJ+qAV64EgJZ4XwpBxgHp9ScZXBKYpNmjmQT27uJRPkRgZSzUkum4BzPJuMKlsFZILZs/iHNPmM7+T0lgECmPBbPlnIAaTaxDE5JbNLSahjUph20RTAnLYBAVjpWCvS4iyTlH6EL0+CUbIizl2LDypFSPBJAIBVxIOUAFU1VV1lrg8UOWrWxB66IQCqcl8sB4tJKyj9aBGduqafZUDFMqgQCCKQiDKQcIJd/rH3SV5gzqZKzIRQwXeJNOjz5CQKpcLCUA+SaCgHb5O8eog17iy83vrNfQyCVHi4NTmm2qey2qlqLJV6VIQeshEAqnZbLAXJNrZltcvW1ayU2lApZ6+fK9xBIW+83XfuXiK/VEq8tNj+tI5BKX5QEZ2XTq6otzRAelnirBuSsMALZ4JCl4Nxj7b+0zPIi5A2Yu1b93LX3g3cegzP8844mu1Qr0WSXcsweKylmiiOQDJTSS8PT+aW0fItyHmxoMS4vbbLE8uIJ7HBJAIG4dAtGeSGAQLx4AjtcEkAgLt2CUV4IIBAvnsAOlwQQiEu3YJQXAgjEiyewwyUBBOLSLRjlhQAC8eIJ7HBJAIG4dAtGeSGAQLx4AjtcEkAgLt2CUV4IIBAvnsAOlwQQiEu3YJQXAgjEiyewwyUBBOLSLRjlhQAC8eIJ7HBJAIG4dAtGeSGAQLx4AjtcEkAgLt2CUV4IIBAvnsAOlwQQiEu3YJQXAgjEiyewwyUBBOLSLRjlhQAC8eIJ7HBJAIG4dAtGeSGAQLx4AjtcEkAgLt2CUV4IIBAvnsAOlwQQiEu3YJQXArsI5Onp6d7LgLEDAmsImAmELxmtwU7ZrQSen58fpDYsY9FMIJKx8frd3d1P7T73IOCVgKlApG/2hS+t3rPM8hoCx7NrmD2kh272c3S1ozQViPZByfAtv9/atFg7AOpdi8DwoJXEYQ7j1rrFX79+/Y4zhtLuu8L3+AKsYgO3DkQgrT7iUn0ptqzjyvwjnsOXX+8V/u/qD7PJbk8BxRZuHYhAEMfu1pousaL1ww6C6Tpwdyp0eEQCj9azR4RgvsRKZBcSqVSMIwQsCDQRRzSsmUBi44gkUuBPYwLNxBHtbiqQ2MFo54qcIwLhjwmB+FcKMd+1/EvBnGHNBZI6RSiJBMctBPYSRrJxN4GkDtMxbd2lc44Q0Ai0nim0vrkHAQhAAAIQgAAEIAABCEAAAhCAAAQgAAEIQAACEIAABCAAAQhAAAIQgAAEIAABCEAAAhCAAAQgAAEIQAACEIAABCAAAQhAAAIQgMDZCfwHMP4MwEMGmPYAAAAASUVORK5CYII=;" parent="1" vertex="1">
          <mxGeometry x="744" y="291.25" width="31.75" height="31.75" as="geometry" />
        </mxCell>
        <mxCell id="ami44mtzP3b5byjjy8G6-69" style="edgeStyle=orthogonalEdgeStyle;rounded=0;orthogonalLoop=1;jettySize=auto;html=1;exitX=0.5;exitY=1;exitDx=0;exitDy=0;strokeColor=#3399FF;strokeWidth=2;" parent="1" source="ami44mtzP3b5byjjy8G6-70" edge="1">
          <mxGeometry relative="1" as="geometry">
            <mxPoint x="729.3333333333333" y="400.33333333333337" as="targetPoint" />
          </mxGeometry>
        </mxCell>
        <mxCell id="ami44mtzP3b5byjjy8G6-70" value="文档" style="text;html=1;align=center;verticalAlign=middle;whiteSpace=wrap;rounded=0;fontSize=16;" parent="1" vertex="1">
          <mxGeometry x="704.5" y="318.75" width="49" height="30.25" as="geometry" />
        </mxCell>
        <mxCell id="ami44mtzP3b5byjjy8G6-71" value="&lt;font style=&quot;font-size: 16px;&quot;&gt;分块+索引&lt;/font&gt;" style="text;html=1;align=center;verticalAlign=middle;whiteSpace=wrap;rounded=0;" parent="1" vertex="1">
          <mxGeometry x="730" y="359" width="90" height="30" as="geometry" />
        </mxCell>
        <mxCell id="ami44mtzP3b5byjjy8G6-72" value="&lt;font style=&quot;font-size: 16px;&quot;&gt;向量数据库&lt;/font&gt;" style="text;html=1;align=center;verticalAlign=middle;whiteSpace=wrap;rounded=0;" parent="1" vertex="1">
          <mxGeometry x="687.12" y="448" width="83.75" height="30" as="geometry" />
        </mxCell>
        <mxCell id="ami44mtzP3b5byjjy8G6-74" style="edgeStyle=orthogonalEdgeStyle;rounded=0;orthogonalLoop=1;jettySize=auto;html=1;exitX=0.5;exitY=1;exitDx=0;exitDy=0;entryX=0.806;entryY=-0.028;entryDx=0;entryDy=0;entryPerimeter=0;strokeColor=#007FFF;strokeWidth=2;" parent="1" source="ami44mtzP3b5byjjy8G6-72" target="ami44mtzP3b5byjjy8G6-54" edge="1">
          <mxGeometry relative="1" as="geometry" />
        </mxCell>
        <mxCell id="ami44mtzP3b5byjjy8G6-75" value="&lt;font style=&quot;font-size: 16px;&quot;&gt;提示词&lt;/font&gt;" style="text;html=1;align=center;verticalAlign=middle;whiteSpace=wrap;rounded=0;" parent="1" vertex="1">
          <mxGeometry x="555" y="800" width="60" height="30" as="geometry" />
        </mxCell>
        <mxCell id="ami44mtzP3b5byjjy8G6-76" value="&lt;font style=&quot;font-size: 16px;&quot;&gt;LLM&lt;/font&gt;" style="text;html=1;align=center;verticalAlign=middle;whiteSpace=wrap;rounded=0;" parent="1" vertex="1">
          <mxGeometry x="682" y="800" width="60" height="30" as="geometry" />
        </mxCell>
        <mxCell id="ami44mtzP3b5byjjy8G6-77" style="rounded=0;orthogonalLoop=1;jettySize=auto;html=1;strokeColor=#CCCCCC;" parent="1" edge="1">
          <mxGeometry relative="1" as="geometry">
            <mxPoint x="610" y="795.62" as="sourcePoint" />
            <mxPoint x="682" y="795.62" as="targetPoint" />
          </mxGeometry>
        </mxCell>
        <mxCell id="ami44mtzP3b5byjjy8G6-78" value="&lt;font style=&quot;font-size: 18px;&quot;&gt;输出&lt;/font&gt;" style="text;html=1;align=center;verticalAlign=middle;whiteSpace=wrap;rounded=0;" parent="1" vertex="1">
          <mxGeometry x="640" y="879" width="60" height="30" as="geometry" />
        </mxCell>
        <mxCell id="ami44mtzP3b5byjjy8G6-79" value="&lt;h2&gt;&lt;font face=&quot;Times New Roman&quot; style=&quot;color: rgb(0, 127, 255); font-size: 24px;&quot;&gt;高级RAG&lt;/font&gt;&lt;/h2&gt;" style="text;html=1;align=center;verticalAlign=middle;whiteSpace=wrap;rounded=0;" parent="1" vertex="1">
          <mxGeometry x="581" y="925" width="139" height="59" as="geometry" />
        </mxCell>
        <mxCell id="ami44mtzP3b5byjjy8G6-80" value="&lt;br&gt;&lt;div&gt;&lt;font face=&quot;Times New Roman&quot; style=&quot;font-size: 16px;&quot;&gt;a. 查询路由&lt;/font&gt;&lt;/div&gt;&lt;div&gt;&lt;font face=&quot;Times New Roman&quot; style=&quot;font-size: 16px;&quot;&gt;b. 查询扩展&lt;/font&gt;&lt;/div&gt;&lt;div&gt;&lt;font face=&quot;Times New Roman&quot; style=&quot;font-size: 16px;&quot;&gt;c. 查询重写&lt;/font&gt;&lt;/div&gt;&lt;div&gt;&lt;font face=&quot;Times New Roman&quot; style=&quot;font-size: 16px;&quot;&gt;......&lt;/font&gt;&lt;/div&gt;&lt;div&gt;&lt;br&gt;&lt;/div&gt;" style="text;html=1;align=left;verticalAlign=middle;whiteSpace=wrap;rounded=0;" parent="1" vertex="1">
          <mxGeometry x="529.5" y="413" width="82" height="83" as="geometry" />
        </mxCell>
        <mxCell id="ami44mtzP3b5byjjy8G6-83" value="&lt;span style=&quot;font-family: &amp;quot;Times New Roman&amp;quot;; text-align: left;&quot;&gt;&lt;font style=&quot;font-size: 20px;&quot;&gt;&lt;b&gt;预检索&lt;/b&gt;&lt;/font&gt;&lt;/span&gt;" style="text;html=1;align=center;verticalAlign=middle;whiteSpace=wrap;rounded=0;" parent="1" vertex="1">
          <mxGeometry x="528" y="389" width="93" height="30" as="geometry" />
        </mxCell>
        <mxCell id="ami44mtzP3b5byjjy8G6-94" style="rounded=0;orthogonalLoop=1;jettySize=auto;html=1;exitX=0.5;exitY=1;exitDx=0;exitDy=0;entryX=0.225;entryY=0.03;entryDx=0;entryDy=0;entryPerimeter=0;strokeColor=#FFB570;strokeWidth=2;" parent="1" source="ami44mtzP3b5byjjy8G6-80" target="ami44mtzP3b5byjjy8G6-54" edge="1">
          <mxGeometry relative="1" as="geometry" />
        </mxCell>
        <mxCell id="ami44mtzP3b5byjjy8G6-116" style="edgeStyle=orthogonalEdgeStyle;rounded=0;orthogonalLoop=1;jettySize=auto;html=1;exitX=0.5;exitY=1;exitDx=0;exitDy=0;strokeWidth=2;strokeColor=#FFB570;" parent="1" source="ami44mtzP3b5byjjy8G6-98" edge="1">
          <mxGeometry relative="1" as="geometry">
            <mxPoint x="644.5555555555554" y="760.5555555555554" as="targetPoint" />
          </mxGeometry>
        </mxCell>
        <mxCell id="ami44mtzP3b5byjjy8G6-98" value="" style="rounded=1;whiteSpace=wrap;html=1;strokeColor=#d79b00;fillColor=#ffe6cc;strokeWidth=2;" parent="1" vertex="1">
          <mxGeometry x="509" y="636" width="272" height="83" as="geometry" />
        </mxCell>
        <mxCell id="ami44mtzP3b5byjjy8G6-99" value="&lt;font style=&quot;font-size: 20px;&quot;&gt;后检索&lt;/font&gt;" style="text;html=1;align=center;verticalAlign=middle;whiteSpace=wrap;rounded=0;" parent="1" vertex="1">
          <mxGeometry x="557.5" y="662.5" width="93.25" height="30" as="geometry" />
        </mxCell>
        <mxCell id="ami44mtzP3b5byjjy8G6-100" value="&lt;br&gt;&lt;div&gt;&lt;font face=&quot;Times New Roman&quot; style=&quot;font-size: 16px;&quot;&gt;a. 重排&lt;/font&gt;&lt;/div&gt;&lt;div&gt;&lt;font face=&quot;Times New Roman&quot; style=&quot;font-size: 16px;&quot;&gt;b. 总结&lt;/font&gt;&lt;/div&gt;&lt;div&gt;&lt;font face=&quot;Times New Roman&quot; style=&quot;font-size: 16px;&quot;&gt;c. 融合&lt;/font&gt;&lt;/div&gt;&lt;div&gt;&lt;font face=&quot;Times New Roman&quot; style=&quot;font-size: 16px;&quot;&gt;......&lt;/font&gt;&lt;/div&gt;&lt;div&gt;&lt;br&gt;&lt;/div&gt;" style="text;html=1;align=left;verticalAlign=middle;whiteSpace=wrap;rounded=0;" parent="1" vertex="1">
          <mxGeometry x="652.88" y="640" width="82" height="83" as="geometry" />
        </mxCell>
        <mxCell id="OjBoxP9DTPbRT_fUNsws-36" style="edgeStyle=orthogonalEdgeStyle;rounded=0;orthogonalLoop=1;jettySize=auto;html=1;exitX=0.5;exitY=0;exitDx=0;exitDy=0;entryX=0;entryY=0.5;entryDx=0;entryDy=0;endArrow=none;endFill=0;strokeWidth=2;strokeColor=#007FFF;dashed=1;" parent="1" source="ami44mtzP3b5byjjy8G6-124" target="OjBoxP9DTPbRT_fUNsws-10" edge="1">
          <mxGeometry relative="1" as="geometry" />
        </mxCell>
        <mxCell id="OjBoxP9DTPbRT_fUNsws-38" style="edgeStyle=orthogonalEdgeStyle;rounded=0;orthogonalLoop=1;jettySize=auto;html=1;exitX=0.5;exitY=1;exitDx=0;exitDy=0;entryX=0.5;entryY=0;entryDx=0;entryDy=0;strokeWidth=2;dashed=1;strokeColor=#007FFF;endArrow=none;endFill=0;" parent="1" source="ami44mtzP3b5byjjy8G6-124" target="OjBoxP9DTPbRT_fUNsws-6" edge="1">
          <mxGeometry relative="1" as="geometry" />
        </mxCell>
        <mxCell id="ami44mtzP3b5byjjy8G6-124" value="&lt;font style=&quot;font-size: 20px;&quot;&gt;路由&lt;/font&gt;" style="rounded=1;whiteSpace=wrap;html=1;strokeColor=#007FFF;strokeWidth=2;" parent="1" vertex="1">
          <mxGeometry x="992" y="215.12" width="112" height="70" as="geometry" />
        </mxCell>
        <mxCell id="ami44mtzP3b5byjjy8G6-133" value="&lt;h2&gt;&lt;font face=&quot;Times New Roman&quot; style=&quot;color: rgb(0, 127, 255); font-size: 24px;&quot;&gt;模块化RAG&lt;/font&gt;&lt;/h2&gt;" style="text;html=1;align=center;verticalAlign=middle;whiteSpace=wrap;rounded=0;" parent="1" vertex="1">
          <mxGeometry x="1218" y="1076" width="139" height="59" as="geometry" />
        </mxCell>
        <mxCell id="OjBoxP9DTPbRT_fUNsws-4" value="&lt;font style=&quot;font-size: 30px;&quot;&gt;&lt;b style=&quot;&quot;&gt;模块&lt;/b&gt;&lt;/font&gt;" style="text;html=1;align=center;verticalAlign=middle;whiteSpace=wrap;rounded=0;" parent="1" vertex="1">
          <mxGeometry x="992" y="122" width="71" height="30" as="geometry" />
        </mxCell>
        <mxCell id="OjBoxP9DTPbRT_fUNsws-5" value="&lt;font style=&quot;font-size: 30px;&quot;&gt;&lt;b style=&quot;&quot;&gt;模式&lt;/b&gt;&lt;/font&gt;" style="text;html=1;align=center;verticalAlign=middle;whiteSpace=wrap;rounded=0;" parent="1" vertex="1">
          <mxGeometry x="987" y="597" width="71" height="30" as="geometry" />
        </mxCell>
        <mxCell id="OjBoxP9DTPbRT_fUNsws-40" style="edgeStyle=orthogonalEdgeStyle;rounded=0;orthogonalLoop=1;jettySize=auto;html=1;exitX=0.5;exitY=1;exitDx=0;exitDy=0;entryX=0;entryY=0.5;entryDx=0;entryDy=0;strokeWidth=2;strokeColor=#007FFF;endArrow=none;endFill=0;dashed=1;" parent="1" source="OjBoxP9DTPbRT_fUNsws-6" target="OjBoxP9DTPbRT_fUNsws-7" edge="1">
          <mxGeometry relative="1" as="geometry" />
        </mxCell>
        <mxCell id="OjBoxP9DTPbRT_fUNsws-6" value="&lt;span style=&quot;font-size: 20px;&quot;&gt;演示&lt;/span&gt;" style="rounded=1;whiteSpace=wrap;html=1;strokeColor=#007FFF;strokeWidth=2;" parent="1" vertex="1">
          <mxGeometry x="992" y="453.05999999999995" width="112" height="70" as="geometry" />
        </mxCell>
        <mxCell id="OjBoxP9DTPbRT_fUNsws-41" style="edgeStyle=orthogonalEdgeStyle;rounded=0;orthogonalLoop=1;jettySize=auto;html=1;exitX=1;exitY=0.5;exitDx=0;exitDy=0;entryX=0.5;entryY=1;entryDx=0;entryDy=0;endArrow=none;endFill=0;strokeWidth=2;strokeColor=#007FFF;dashed=1;" parent="1" source="OjBoxP9DTPbRT_fUNsws-7" target="OjBoxP9DTPbRT_fUNsws-8" edge="1">
          <mxGeometry relative="1" as="geometry" />
        </mxCell>
        <mxCell id="OjBoxP9DTPbRT_fUNsws-7" value="&lt;span style=&quot;font-size: 20px;&quot;&gt;记忆&lt;/span&gt;" style="rounded=1;whiteSpace=wrap;html=1;strokeColor=#007FFF;strokeWidth=2;" parent="1" vertex="1">
          <mxGeometry x="1229.25" y="517" width="112" height="70" as="geometry" />
        </mxCell>
        <mxCell id="OjBoxP9DTPbRT_fUNsws-8" value="&lt;span style=&quot;font-size: 20px;&quot;&gt;融合&lt;/span&gt;" style="rounded=1;whiteSpace=wrap;html=1;strokeColor=#007FFF;strokeWidth=2;" parent="1" vertex="1">
          <mxGeometry x="1447" y="452.05999999999995" width="112" height="70" as="geometry" />
        </mxCell>
        <mxCell id="OjBoxP9DTPbRT_fUNsws-42" style="edgeStyle=orthogonalEdgeStyle;rounded=0;orthogonalLoop=1;jettySize=auto;html=1;exitX=0.5;exitY=1;exitDx=0;exitDy=0;entryX=0.5;entryY=0;entryDx=0;entryDy=0;strokeWidth=2;endArrow=none;endFill=0;dashed=1;strokeColor=#007FFF;" parent="1" source="OjBoxP9DTPbRT_fUNsws-9" target="OjBoxP9DTPbRT_fUNsws-8" edge="1">
          <mxGeometry relative="1" as="geometry" />
        </mxCell>
        <mxCell id="OjBoxP9DTPbRT_fUNsws-9" value="&lt;span style=&quot;font-size: 20px;&quot;&gt;预测&lt;/span&gt;" style="rounded=1;whiteSpace=wrap;html=1;strokeColor=#007FFF;strokeWidth=2;" parent="1" vertex="1">
          <mxGeometry x="1447" y="214" width="112" height="70" as="geometry" />
        </mxCell>
        <mxCell id="OjBoxP9DTPbRT_fUNsws-37" style="edgeStyle=orthogonalEdgeStyle;rounded=0;orthogonalLoop=1;jettySize=auto;html=1;exitX=1;exitY=0.5;exitDx=0;exitDy=0;entryX=0.5;entryY=0;entryDx=0;entryDy=0;endArrow=none;endFill=0;dashed=1;strokeColor=#007FFF;strokeWidth=2;" parent="1" source="OjBoxP9DTPbRT_fUNsws-10" target="OjBoxP9DTPbRT_fUNsws-9" edge="1">
          <mxGeometry relative="1" as="geometry" />
        </mxCell>
        <mxCell id="OjBoxP9DTPbRT_fUNsws-10" value="&lt;span style=&quot;font-size: 20px;&quot;&gt;搜索&lt;/span&gt;" style="rounded=1;whiteSpace=wrap;html=1;strokeColor=#007FFF;strokeWidth=2;" parent="1" vertex="1">
          <mxGeometry x="1227" y="146" width="112" height="70" as="geometry" />
        </mxCell>
        <mxCell id="OjBoxP9DTPbRT_fUNsws-46" style="edgeStyle=orthogonalEdgeStyle;rounded=0;orthogonalLoop=1;jettySize=auto;html=1;exitX=1;exitY=0.5;exitDx=0;exitDy=0;entryX=0.5;entryY=1;entryDx=0;entryDy=0;strokeWidth=2;dashed=1;strokeColor=#007FFF;endArrow=none;endFill=0;" parent="1" source="OjBoxP9DTPbRT_fUNsws-12" target="OjBoxP9DTPbRT_fUNsws-20" edge="1">
          <mxGeometry relative="1" as="geometry" />
        </mxCell>
        <mxCell id="OjBoxP9DTPbRT_fUNsws-12" value="&lt;span style=&quot;font-size: 20px;&quot;&gt;检索&lt;/span&gt;" style="rounded=1;whiteSpace=wrap;html=1;strokeColor=#D79B00;strokeWidth=2;" parent="1" vertex="1">
          <mxGeometry x="1246" y="404" width="83" height="54.5" as="geometry" />
        </mxCell>
        <mxCell id="OjBoxP9DTPbRT_fUNsws-43" style="edgeStyle=orthogonalEdgeStyle;rounded=0;orthogonalLoop=1;jettySize=auto;html=1;exitX=0.5;exitY=0;exitDx=0;exitDy=0;entryX=0;entryY=0.5;entryDx=0;entryDy=0;dashed=1;strokeWidth=2;endArrow=none;endFill=0;strokeColor=#007FFF;" parent="1" source="OjBoxP9DTPbRT_fUNsws-18" target="OjBoxP9DTPbRT_fUNsws-19" edge="1">
          <mxGeometry relative="1" as="geometry" />
        </mxCell>
        <mxCell id="OjBoxP9DTPbRT_fUNsws-45" style="edgeStyle=orthogonalEdgeStyle;rounded=0;orthogonalLoop=1;jettySize=auto;html=1;exitX=0.5;exitY=1;exitDx=0;exitDy=0;entryX=0;entryY=0.5;entryDx=0;entryDy=0;strokeWidth=2;strokeColor=#007FFF;dashed=1;endArrow=none;endFill=0;" parent="1" source="OjBoxP9DTPbRT_fUNsws-18" target="OjBoxP9DTPbRT_fUNsws-12" edge="1">
          <mxGeometry relative="1" as="geometry" />
        </mxCell>
        <mxCell id="OjBoxP9DTPbRT_fUNsws-18" value="&lt;span style=&quot;font-size: 20px;&quot;&gt;重写&lt;/span&gt;" style="rounded=1;whiteSpace=wrap;html=1;strokeColor=#007FFF;strokeWidth=2;" parent="1" vertex="1">
          <mxGeometry x="1119" y="345.75" width="83" height="54.5" as="geometry" />
        </mxCell>
        <mxCell id="OjBoxP9DTPbRT_fUNsws-44" style="edgeStyle=orthogonalEdgeStyle;rounded=0;orthogonalLoop=1;jettySize=auto;html=1;exitX=1;exitY=0.5;exitDx=0;exitDy=0;entryX=0.5;entryY=0;entryDx=0;entryDy=0;strokeWidth=2;endArrow=none;endFill=0;strokeColor=#007FFF;dashed=1;" parent="1" source="OjBoxP9DTPbRT_fUNsws-19" target="OjBoxP9DTPbRT_fUNsws-20" edge="1">
          <mxGeometry relative="1" as="geometry" />
        </mxCell>
        <mxCell id="OjBoxP9DTPbRT_fUNsws-19" value="&lt;span style=&quot;font-size: 20px;&quot;&gt;阅读&lt;/span&gt;" style="rounded=1;whiteSpace=wrap;html=1;strokeColor=#D79B00;strokeWidth=2;" parent="1" vertex="1">
          <mxGeometry x="1241.5" y="287" width="83" height="54.5" as="geometry" />
        </mxCell>
        <mxCell id="OjBoxP9DTPbRT_fUNsws-20" value="&lt;span style=&quot;font-size: 20px;&quot;&gt;重排&lt;/span&gt;" style="rounded=1;whiteSpace=wrap;html=1;strokeColor=#007FFF;strokeWidth=2;" parent="1" vertex="1">
          <mxGeometry x="1356" y="344.25" width="83" height="54.5" as="geometry" />
        </mxCell>
        <mxCell id="OjBoxP9DTPbRT_fUNsws-22" value="&lt;h2&gt;&lt;font face=&quot;Times New Roman&quot; style=&quot;color: rgb(0, 127, 255); font-size: 24px;&quot;&gt;RAG&lt;/font&gt;&lt;/h2&gt;" style="text;html=1;align=center;verticalAlign=middle;whiteSpace=wrap;rounded=0;" parent="1" vertex="1">
          <mxGeometry x="1237" y="347.5" width="96.5" height="51" as="geometry" />
        </mxCell>
        <mxCell id="OjBoxP9DTPbRT_fUNsws-51" style="edgeStyle=orthogonalEdgeStyle;rounded=0;orthogonalLoop=1;jettySize=auto;html=1;exitX=0.5;exitY=1;exitDx=0;exitDy=0;entryX=0.5;entryY=0;entryDx=0;entryDy=0;strokeWidth=2;strokeColor=#007FFF;" parent="1" source="OjBoxP9DTPbRT_fUNsws-23" target="OjBoxP9DTPbRT_fUNsws-24" edge="1">
          <mxGeometry relative="1" as="geometry" />
        </mxCell>
        <mxCell id="OjBoxP9DTPbRT_fUNsws-23" value="&lt;span style=&quot;font-size: 20px;&quot;&gt;检索&lt;/span&gt;" style="rounded=1;whiteSpace=wrap;html=1;strokeColor=#D79B00;strokeWidth=2;" parent="1" vertex="1">
          <mxGeometry x="999" y="776.25" width="83" height="54.5" as="geometry" />
        </mxCell>
        <mxCell id="OjBoxP9DTPbRT_fUNsws-24" value="&lt;span style=&quot;font-size: 20px;&quot;&gt;阅读&lt;/span&gt;" style="rounded=1;whiteSpace=wrap;html=1;strokeColor=#D79B00;strokeWidth=2;" parent="1" vertex="1">
          <mxGeometry x="999" y="944.75" width="83" height="54.5" as="geometry" />
        </mxCell>
        <mxCell id="OjBoxP9DTPbRT_fUNsws-53" style="edgeStyle=orthogonalEdgeStyle;rounded=0;orthogonalLoop=1;jettySize=auto;html=1;exitX=0.5;exitY=1;exitDx=0;exitDy=0;entryX=0.5;entryY=0;entryDx=0;entryDy=0;strokeWidth=2;strokeColor=#007FFF;" parent="1" source="OjBoxP9DTPbRT_fUNsws-25" target="OjBoxP9DTPbRT_fUNsws-27" edge="1">
          <mxGeometry relative="1" as="geometry" />
        </mxCell>
        <mxCell id="OjBoxP9DTPbRT_fUNsws-25" value="&lt;span style=&quot;font-size: 20px;&quot;&gt;检索&lt;/span&gt;" style="rounded=1;whiteSpace=wrap;html=1;strokeColor=#D79B00;strokeWidth=2;" parent="1" vertex="1">
          <mxGeometry x="1161" y="776.25" width="83" height="54.5" as="geometry" />
        </mxCell>
        <mxCell id="OjBoxP9DTPbRT_fUNsws-52" style="edgeStyle=orthogonalEdgeStyle;rounded=0;orthogonalLoop=1;jettySize=auto;html=1;exitX=0.5;exitY=1;exitDx=0;exitDy=0;entryX=0.5;entryY=0;entryDx=0;entryDy=0;strokeWidth=2;strokeColor=#007FFF;" parent="1" source="OjBoxP9DTPbRT_fUNsws-26" target="OjBoxP9DTPbRT_fUNsws-25" edge="1">
          <mxGeometry relative="1" as="geometry" />
        </mxCell>
        <mxCell id="OjBoxP9DTPbRT_fUNsws-26" value="&lt;span style=&quot;font-size: 20px;&quot;&gt;重写&lt;/span&gt;" style="rounded=1;whiteSpace=wrap;html=1;strokeColor=#007FFF;strokeWidth=2;" parent="1" vertex="1">
          <mxGeometry x="1161" y="694.75" width="83" height="54.5" as="geometry" />
        </mxCell>
        <mxCell id="OjBoxP9DTPbRT_fUNsws-54" style="edgeStyle=orthogonalEdgeStyle;rounded=0;orthogonalLoop=1;jettySize=auto;html=1;exitX=0.5;exitY=1;exitDx=0;exitDy=0;entryX=0.5;entryY=0;entryDx=0;entryDy=0;strokeWidth=2;strokeColor=#007FFF;" parent="1" source="OjBoxP9DTPbRT_fUNsws-27" target="OjBoxP9DTPbRT_fUNsws-28" edge="1">
          <mxGeometry relative="1" as="geometry" />
        </mxCell>
        <mxCell id="OjBoxP9DTPbRT_fUNsws-27" value="&lt;span style=&quot;font-size: 20px;&quot;&gt;重排&lt;/span&gt;" style="rounded=1;whiteSpace=wrap;html=1;strokeColor=#007FFF;strokeWidth=2;" parent="1" vertex="1">
          <mxGeometry x="1161" y="865.25" width="83" height="54.5" as="geometry" />
        </mxCell>
        <mxCell id="OjBoxP9DTPbRT_fUNsws-28" value="&lt;span style=&quot;font-size: 20px;&quot;&gt;阅读&lt;/span&gt;" style="rounded=1;whiteSpace=wrap;html=1;strokeColor=#D79B00;strokeWidth=2;" parent="1" vertex="1">
          <mxGeometry x="1161" y="944.75" width="83" height="54.5" as="geometry" />
        </mxCell>
        <mxCell id="OjBoxP9DTPbRT_fUNsws-55" style="edgeStyle=orthogonalEdgeStyle;rounded=0;orthogonalLoop=1;jettySize=auto;html=1;exitX=0.5;exitY=1;exitDx=0;exitDy=0;entryX=0.5;entryY=0;entryDx=0;entryDy=0;strokeWidth=2;strokeColor=#007FFF;" parent="1" source="OjBoxP9DTPbRT_fUNsws-29" target="OjBoxP9DTPbRT_fUNsws-30" edge="1">
          <mxGeometry relative="1" as="geometry" />
        </mxCell>
        <mxCell id="OjBoxP9DTPbRT_fUNsws-29" value="&lt;span style=&quot;font-size: 20px;&quot;&gt;演示&lt;/span&gt;" style="rounded=1;whiteSpace=wrap;html=1;strokeColor=#007FFF;strokeWidth=2;" parent="1" vertex="1">
          <mxGeometry x="1324" y="694" width="83" height="54.5" as="geometry" />
        </mxCell>
        <mxCell id="OjBoxP9DTPbRT_fUNsws-56" style="edgeStyle=orthogonalEdgeStyle;rounded=0;orthogonalLoop=1;jettySize=auto;html=1;exitX=0.5;exitY=1;exitDx=0;exitDy=0;entryX=0.5;entryY=0;entryDx=0;entryDy=0;strokeWidth=2;strokeColor=#007FFF;" parent="1" source="OjBoxP9DTPbRT_fUNsws-30" target="OjBoxP9DTPbRT_fUNsws-31" edge="1">
          <mxGeometry relative="1" as="geometry" />
        </mxCell>
        <mxCell id="OjBoxP9DTPbRT_fUNsws-30" value="&lt;span style=&quot;font-size: 20px;&quot;&gt;搜索&lt;/span&gt;" style="rounded=1;whiteSpace=wrap;html=1;strokeColor=#007FFF;strokeWidth=2;" parent="1" vertex="1">
          <mxGeometry x="1324" y="823.75" width="83" height="54.5" as="geometry" />
        </mxCell>
        <mxCell id="OjBoxP9DTPbRT_fUNsws-31" value="&lt;span style=&quot;font-size: 20px;&quot;&gt;预测&lt;/span&gt;" style="rounded=1;whiteSpace=wrap;html=1;strokeColor=#007FFF;strokeWidth=2;" parent="1" vertex="1">
          <mxGeometry x="1324" y="944.75" width="83" height="54.5" as="geometry" />
        </mxCell>
        <mxCell id="OjBoxP9DTPbRT_fUNsws-57" style="edgeStyle=orthogonalEdgeStyle;rounded=0;orthogonalLoop=1;jettySize=auto;html=1;exitX=0.5;exitY=1;exitDx=0;exitDy=0;entryX=0.5;entryY=0;entryDx=0;entryDy=0;strokeWidth=2;strokeColor=#007FFF;" parent="1" source="OjBoxP9DTPbRT_fUNsws-32" target="OjBoxP9DTPbRT_fUNsws-33" edge="1">
          <mxGeometry relative="1" as="geometry" />
        </mxCell>
        <mxCell id="OjBoxP9DTPbRT_fUNsws-32" value="&lt;span style=&quot;font-size: 20px;&quot;&gt;检索&lt;/span&gt;" style="rounded=1;whiteSpace=wrap;html=1;strokeColor=#D79B00;strokeWidth=2;" parent="1" vertex="1">
          <mxGeometry x="1479" y="688.5" width="83" height="54.5" as="geometry" />
        </mxCell>
        <mxCell id="OjBoxP9DTPbRT_fUNsws-58" style="edgeStyle=orthogonalEdgeStyle;rounded=0;orthogonalLoop=1;jettySize=auto;html=1;exitX=0.5;exitY=1;exitDx=0;exitDy=0;entryX=0.5;entryY=0;entryDx=0;entryDy=0;strokeWidth=2;strokeColor=#007FFF;" parent="1" source="OjBoxP9DTPbRT_fUNsws-33" target="OjBoxP9DTPbRT_fUNsws-34" edge="1">
          <mxGeometry relative="1" as="geometry" />
        </mxCell>
        <mxCell id="OjBoxP9DTPbRT_fUNsws-33" value="&lt;span style=&quot;font-size: 20px;&quot;&gt;阅读&lt;/span&gt;" style="rounded=1;whiteSpace=wrap;html=1;strokeColor=#D79B00;strokeWidth=2;" parent="1" vertex="1">
          <mxGeometry x="1479" y="769.25" width="83" height="54.5" as="geometry" />
        </mxCell>
        <mxCell id="OjBoxP9DTPbRT_fUNsws-59" style="edgeStyle=orthogonalEdgeStyle;rounded=0;orthogonalLoop=1;jettySize=auto;html=1;exitX=0.5;exitY=1;exitDx=0;exitDy=0;entryX=0.5;entryY=0;entryDx=0;entryDy=0;strokeWidth=2;strokeColor=#007FFF;" parent="1" source="OjBoxP9DTPbRT_fUNsws-34" target="OjBoxP9DTPbRT_fUNsws-35" edge="1">
          <mxGeometry relative="1" as="geometry" />
        </mxCell>
        <mxCell id="OjBoxP9DTPbRT_fUNsws-34" value="&lt;span style=&quot;font-size: 20px;&quot;&gt;检索&lt;/span&gt;" style="rounded=1;whiteSpace=wrap;html=1;strokeColor=#D79B00;strokeWidth=2;" parent="1" vertex="1">
          <mxGeometry x="1479" y="857.5" width="83" height="54.5" as="geometry" />
        </mxCell>
        <mxCell id="OjBoxP9DTPbRT_fUNsws-60" style="edgeStyle=orthogonalEdgeStyle;rounded=0;orthogonalLoop=1;jettySize=auto;html=1;exitX=1;exitY=0.5;exitDx=0;exitDy=0;entryX=1;entryY=0.5;entryDx=0;entryDy=0;strokeWidth=2;strokeColor=#007FFF;" parent="1" source="OjBoxP9DTPbRT_fUNsws-35" target="OjBoxP9DTPbRT_fUNsws-32" edge="1">
          <mxGeometry relative="1" as="geometry" />
        </mxCell>
        <mxCell id="OjBoxP9DTPbRT_fUNsws-35" value="&lt;span style=&quot;font-size: 20px;&quot;&gt;阅读&lt;/span&gt;" style="rounded=1;whiteSpace=wrap;html=1;strokeColor=#D79B00;strokeWidth=2;" parent="1" vertex="1">
          <mxGeometry x="1479" y="944.75" width="83" height="54.5" as="geometry" />
        </mxCell>
        <mxCell id="OjBoxP9DTPbRT_fUNsws-65" value="&lt;h2&gt;&lt;font face=&quot;Times New Roman&quot; style=&quot;color: rgb(0, 127, 255); font-size: 20px;&quot;&gt;朴素RAG&lt;/font&gt;&lt;/h2&gt;" style="text;html=1;align=center;verticalAlign=middle;whiteSpace=wrap;rounded=0;" parent="1" vertex="1">
          <mxGeometry x="995.5" y="1011.75" width="90" height="37" as="geometry" />
        </mxCell>
        <mxCell id="OjBoxP9DTPbRT_fUNsws-66" value="&lt;h2&gt;&lt;font face=&quot;Times New Roman&quot; style=&quot;color: rgb(0, 127, 255); font-size: 20px;&quot;&gt;高级RAG&lt;/font&gt;&lt;/h2&gt;" style="text;html=1;align=center;verticalAlign=middle;whiteSpace=wrap;rounded=0;" parent="1" vertex="1">
          <mxGeometry x="1158.37" y="1011.75" width="90" height="37" as="geometry" />
        </mxCell>
        <mxCell id="OjBoxP9DTPbRT_fUNsws-67" value="&lt;h2&gt;&lt;font style=&quot;color: rgb(0, 127, 255); font-size: 20px;&quot;&gt;DSP&lt;/font&gt;&lt;/h2&gt;" style="text;html=1;align=center;verticalAlign=middle;whiteSpace=wrap;rounded=0;" parent="1" vertex="1">
          <mxGeometry x="1319.5" y="1011.75" width="90" height="37" as="geometry" />
        </mxCell>
        <mxCell id="OjBoxP9DTPbRT_fUNsws-68" value="&lt;h2&gt;&lt;font color=&quot;#007fff&quot;&gt;&lt;span style=&quot;font-size: 20px;&quot;&gt;ITER_RETGEN&lt;/span&gt;&lt;/font&gt;&lt;/h2&gt;" style="text;html=1;align=center;verticalAlign=middle;whiteSpace=wrap;rounded=0;" parent="1" vertex="1">
          <mxGeometry x="1446.5" y="1011.75" width="150" height="37" as="geometry" />
        </mxCell>
        <mxCell id="fmNg_jpIAyJqXXn-QGbe-1" value="&lt;span style=&quot;box-sizing: border-box; font-family: Inter, sans-serif; text-align: left;&quot; class=&quot;ng-star-inserted&quot;&gt;&lt;span style=&quot;box-sizing: border-box;&quot; class=&quot;ng-star-inserted&quot;&gt;&lt;font style=&quot;font-size: 20px; color: rgb(25, 25, 25);&quot;&gt;&lt;b&gt;②&lt;/b&gt;&lt;/font&gt;&lt;/span&gt;&lt;/span&gt;" style="text;html=1;align=center;verticalAlign=middle;whiteSpace=wrap;rounded=0;" parent="1" vertex="1">
          <mxGeometry x="1138" y="662.5" width="39" height="28" as="geometry" />
        </mxCell>
        <mxCell id="fmNg_jpIAyJqXXn-QGbe-2" value="&lt;span style=&quot;box-sizing: border-box; font-family: Inter, sans-serif; text-align: left;&quot; class=&quot;ng-star-inserted&quot;&gt;&lt;span style=&quot;box-sizing: border-box;&quot; class=&quot;ng-star-inserted&quot;&gt;&lt;font style=&quot;color: rgb(0, 0, 0); font-size: 20px;&quot;&gt;&lt;b style=&quot;&quot;&gt;①&lt;/b&gt;&lt;/font&gt;&lt;/span&gt;&lt;/span&gt;" style="text;html=1;align=center;verticalAlign=middle;whiteSpace=wrap;rounded=0;" parent="1" vertex="1">
          <mxGeometry x="978" y="661.5" width="40" height="29" as="geometry" />
        </mxCell>
        <mxCell id="fmNg_jpIAyJqXXn-QGbe-3" value="&lt;div style=&quot;text-align: left;&quot;&gt;&lt;span style=&quot;background-color: transparent; font-size: 20px;&quot;&gt;&lt;font face=&quot;Inter, sans-serif&quot;&gt;&lt;b&gt;③&lt;/b&gt;&lt;/font&gt;&lt;/span&gt;&lt;/div&gt;" style="text;html=1;align=center;verticalAlign=middle;whiteSpace=wrap;rounded=0;" parent="1" vertex="1">
          <mxGeometry x="1305" y="660" width="34" height="29" as="geometry" />
        </mxCell>
        <mxCell id="fmNg_jpIAyJqXXn-QGbe-4" value="&lt;div style=&quot;text-align: left;&quot;&gt;&lt;font style=&quot;font-size: 20px; color: rgb(25, 25, 25);&quot; face=&quot;Inter, sans-serif&quot;&gt;&lt;b style=&quot;&quot;&gt;④&lt;/b&gt;&lt;/font&gt;&lt;/div&gt;" style="text;html=1;align=center;verticalAlign=middle;whiteSpace=wrap;rounded=0;" parent="1" vertex="1">
          <mxGeometry x="1444" y="655.5" width="38" height="32" as="geometry" />
        </mxCell>
        <mxCell id="1lWh8q4CggjqC2O8VYAE-2" value="&lt;span style=&quot;box-sizing: border-box; font-family: Inter, sans-serif; text-align: left;&quot; class=&quot;ng-star-inserted&quot;&gt;&lt;span style=&quot;box-sizing: border-box;&quot; class=&quot;ng-star-inserted&quot;&gt;&lt;font style=&quot;color: rgb(25, 25, 25); font-size: 16px;&quot;&gt;&lt;b&gt;等价于：可通过模块化组合实现&lt;/b&gt;&lt;/font&gt;&lt;/span&gt;&lt;/span&gt;" style="text;html=1;align=center;verticalAlign=middle;whiteSpace=wrap;rounded=0;" vertex="1" parent="1">
          <mxGeometry x="177.81" y="1041" width="235.19" height="50" as="geometry" />
        </mxCell>
        <mxCell id="1lWh8q4CggjqC2O8VYAE-4" value="&lt;div style=&quot;text-align: left;&quot;&gt;&lt;span style=&quot;background-color: transparent; font-size: 16px;&quot;&gt;&lt;font face=&quot;Inter, sans-serif&quot; color=&quot;#191919&quot;&gt;&lt;b&gt;升级版：通过增加“重写”、“重排”等模块实现&lt;/b&gt;&lt;/font&gt;&lt;/span&gt;&lt;/div&gt;" style="text;html=1;align=center;verticalAlign=middle;whiteSpace=wrap;rounded=0;" vertex="1" parent="1">
          <mxGeometry x="650.75" y="1108" width="330.25" height="50" as="geometry" />
        </mxCell>
        <mxCell id="1lWh8q4CggjqC2O8VYAE-6" value="&lt;div style=&quot;&quot;&gt;&lt;font face=&quot;Inter, sans-serif&quot; color=&quot;#191919&quot;&gt;&lt;span style=&quot;font-size: 16px;&quot;&gt;&lt;b&gt;优点: 架构简单，易于实现。&lt;/b&gt;&lt;/span&gt;&lt;/font&gt;&lt;/div&gt;&lt;div style=&quot;&quot;&gt;&lt;font face=&quot;Inter, sans-serif&quot; color=&quot;#191919&quot;&gt;&lt;span style=&quot;font-size: 16px;&quot;&gt;&lt;b&gt;缺点: 检索质量不稳定，对噪声敏感。&lt;/b&gt;&lt;/span&gt;&lt;/font&gt;&lt;/div&gt;" style="text;html=1;align=left;verticalAlign=middle;whiteSpace=wrap;rounded=0;" vertex="1" parent="1">
          <mxGeometry x="51.63" y="173" width="273" height="71" as="geometry" />
        </mxCell>
        <mxCell id="1lWh8q4CggjqC2O8VYAE-7" value="&lt;div style=&quot;&quot;&gt;&lt;div&gt;&lt;b&gt;&lt;font style=&quot;font-size: 16px;&quot;&gt;优点: 通过预/后处理显著提升检索精度和生成质量。&lt;/font&gt;&lt;/b&gt;&lt;/div&gt;&lt;div&gt;&lt;b&gt;&lt;font style=&quot;font-size: 16px;&quot;&gt;缺点: 流程固化，灵活性不足。&lt;/font&gt;&lt;/b&gt;&lt;/div&gt;&lt;div&gt;&lt;br&gt;&lt;/div&gt;&lt;/div&gt;" style="text;html=1;align=left;verticalAlign=middle;whiteSpace=wrap;rounded=0;" vertex="1" parent="1">
          <mxGeometry x="460.75" y="187.5" width="379.5" height="59.5" as="geometry" />
        </mxCell>
        <mxCell id="1lWh8q4CggjqC2O8VYAE-8" value="&lt;div style=&quot;&quot;&gt;&lt;div&gt;&lt;font style=&quot;font-size: 16px;&quot;&gt;&lt;b&gt;优点: 高度灵活，可插拔，支持复杂流程与协同工作。&lt;/b&gt;&lt;/font&gt;&lt;/div&gt;&lt;div&gt;&lt;font style=&quot;font-size: 16px;&quot;&gt;&lt;b&gt;缺点: 设计与编排复杂度高，对系统工程能力要求高。&lt;/b&gt;&lt;/font&gt;&lt;/div&gt;&lt;div&gt;&lt;br&gt;&lt;/div&gt;&lt;/div&gt;" style="text;html=1;align=left;verticalAlign=middle;whiteSpace=wrap;rounded=0;" vertex="1" parent="1">
          <mxGeometry x="1115" y="41" width="394" height="54" as="geometry" />
        </mxCell>
      </root>
    </mxGraphModel>
  </diagram>
</mxfile>
